<svg width="43" height="43" viewBox="0 0 43 43" fill="none" xmlns="http://www.w3.org/2000/svg">
<path d="M39.8086 34.869H36.8555V19.3715C36.8552 19.0515 36.7882 18.7351 36.6587 18.4424C36.5293 18.1498 36.3403 17.8873 36.1037 17.6718L22.9777 5.73906C22.5559 5.35274 22.0046 5.13846 21.4326 5.13846C20.8606 5.13846 20.3093 5.35274 19.8875 5.73906L6.76345 17.672C6.52688 17.8874 6.33784 18.1499 6.20841 18.4425C6.07897 18.7351 6.01198 19.0515 6.01172 19.3715V34.869H3.05859C2.79752 34.869 2.54714 34.9727 2.36254 35.1573C2.17793 35.3419 2.07422 35.5923 2.07422 35.8534C2.07422 36.1145 2.17793 36.3648 2.36254 36.5494C2.54714 36.7341 2.79752 36.8378 3.05859 36.8378H39.8086C40.0697 36.8378 40.32 36.7341 40.5047 36.5494C40.6893 36.3648 40.793 36.1145 40.793 35.8534C40.793 35.5923 40.6893 35.3419 40.5047 35.1573C40.32 34.9727 40.0697 34.869 39.8086 34.869ZM7.98047 19.3715C7.98051 19.3258 7.99009 19.2806 8.0086 19.2388C8.0271 19.197 8.05412 19.1595 8.08793 19.1287L21.2119 7.19561C21.2722 7.14044 21.351 7.10985 21.4327 7.10985C21.5144 7.10985 21.5932 7.14044 21.6534 7.19561L34.7793 19.1285C34.813 19.1593 34.84 19.1968 34.8585 19.2386C34.877 19.2804 34.8866 19.3256 34.8867 19.3713V34.869H26.3545V26.6646C26.3538 26.0556 26.1116 25.4718 25.681 25.0412C25.2504 24.6106 24.6666 24.3684 24.0576 24.3677H18.8076C18.1987 24.3684 17.6148 24.6106 17.1842 25.0412C16.7536 25.4718 16.5114 26.0556 16.5107 26.6646V34.869H7.98047V19.3715ZM24.3857 34.869H18.4795V26.6646C18.4796 26.5776 18.5142 26.4942 18.5757 26.4327C18.6372 26.3711 18.7206 26.3365 18.8076 26.3365H24.0576C24.1446 26.3365 24.228 26.3711 24.2895 26.4327C24.351 26.4942 24.3856 26.5776 24.3857 26.6646V34.869Z" fill="#394273"/>
</svg>
