<svg width="43" height="43" viewBox="0 0 43 43" fill="none" xmlns="http://www.w3.org/2000/svg">
<g clip-path="url(#clip0)">
<path d="M34.2115 19.5314C33.2088 19.5303 32.216 19.7303 31.2919 20.1194L26.7378 12.3126H31.5865C32.0215 12.3131 32.4385 12.4861 32.7461 12.7937C33.0537 13.1013 33.2267 13.5183 33.2271 13.9532C33.2271 14.2143 33.3309 14.4647 33.5155 14.6493C33.7001 14.8339 33.9505 14.9376 34.2115 14.9376C34.4726 14.9376 34.723 14.8339 34.9076 14.6493C35.0922 14.4647 35.1959 14.2143 35.1959 13.9532C35.1948 12.9963 34.8142 12.0789 34.1375 11.4022C33.4609 10.7256 32.5435 10.345 31.5865 10.3439H25.024C24.8509 10.3439 24.6808 10.3895 24.5309 10.4763C24.381 10.563 24.2567 10.6878 24.1704 10.8379C24.0842 10.9881 24.039 11.1583 24.0396 11.3315C24.0402 11.5047 24.0864 11.6746 24.1737 11.8242L26.3726 15.5939H16.1832L13.4056 10.8323C13.3189 10.6837 13.1948 10.5604 13.0456 10.4747C12.8964 10.389 12.7273 10.3439 12.5553 10.3439H7.96152C7.70045 10.3439 7.45007 10.4476 7.26547 10.6322C7.08086 10.8168 6.97715 11.0672 6.97715 11.3282C6.97715 11.5893 7.08086 11.8397 7.26547 12.0243C7.45007 12.2089 7.70045 12.3126 7.96152 12.3126H11.9899L14.4433 16.5184L11.5737 20.4539C9.88541 19.5273 7.90783 19.2778 6.0423 19.7559C4.17677 20.2341 2.56304 21.4041 1.52861 23.0286C0.494188 24.653 0.116562 26.6102 0.472372 28.5028C0.828182 30.3955 1.89077 32.0819 3.4445 33.2198C4.99822 34.3577 6.92667 34.8618 8.83849 34.6299C10.7503 34.3979 12.5023 33.4473 13.7388 31.9708C14.9753 30.4944 15.6038 28.6028 15.4967 26.68C15.3896 24.7571 14.5549 22.947 13.162 21.6171L15.5261 18.3747L20.8926 27.5742C20.9571 27.6871 21.0433 27.7862 21.1462 27.8656C21.2492 27.9451 21.3669 28.0033 21.4925 28.037C21.6181 28.0707 21.7492 28.0791 21.8781 28.0619C22.007 28.0447 22.1312 28.002 22.2435 27.9365C22.3558 27.871 22.4541 27.7839 22.5325 27.6801C22.611 27.5764 22.6681 27.4582 22.7006 27.3323C22.7331 27.2064 22.7404 27.0753 22.7219 26.9465C22.7035 26.8178 22.6597 26.694 22.5931 26.5823L17.3316 17.5626H27.5211L29.5937 21.1156C28.1833 22.2104 27.2072 23.7702 26.839 25.5173C26.4709 27.2644 26.7346 29.0854 27.5832 30.6563C28.4318 32.2272 29.8103 33.446 31.4733 34.0958C33.1363 34.7456 34.9759 34.7843 36.6647 34.2049C38.3535 33.6256 39.782 32.4658 40.6959 30.9319C41.6098 29.3981 41.9498 27.5897 41.6554 25.8287C41.3609 24.0677 40.4512 22.4683 39.0881 21.3151C37.725 20.162 35.997 19.5299 34.2115 19.5314ZM13.5397 27.0782C13.5403 28.2901 13.1465 29.4692 12.4178 30.4374C11.689 31.4056 10.665 32.1104 9.50031 32.4451C8.33565 32.7799 7.09367 32.7265 5.96204 32.293C4.83042 31.8595 3.87063 31.0694 3.22771 30.0422C2.5848 29.015 2.29368 27.8064 2.39835 26.5991C2.50303 25.3918 2.9978 24.2514 3.80792 23.3502C4.61803 22.449 5.69947 21.8359 6.88882 21.6036C8.07817 21.3713 9.31081 21.5325 10.4005 22.0627L7.16615 26.4983C7.08932 26.6027 7.03388 26.7212 7.00299 26.8471C6.97211 26.973 6.96639 27.1038 6.98618 27.2319C7.00596 27.36 7.05085 27.483 7.11827 27.5937C7.18569 27.7044 7.27431 27.8007 7.37905 27.8771C7.48379 27.9534 7.60259 28.0084 7.72861 28.0387C7.85464 28.0691 7.98542 28.0742 8.11344 28.0539C8.24146 28.0335 8.36421 27.9881 8.47463 27.9202C8.58505 27.8523 8.68098 27.7633 8.7569 27.6582L11.9893 23.2252C12.9846 24.2609 13.5403 25.6418 13.5397 27.0782ZM34.2115 32.6564C33.0703 32.6571 31.9564 32.3075 31.0202 31.6549C30.084 31.0023 29.3707 30.0781 28.9765 29.0072C28.5824 27.9362 28.5264 26.7701 28.8161 25.6663C29.1059 24.5625 29.7274 23.5742 30.5967 22.8349L33.3612 27.5742C33.4263 27.6859 33.5128 27.7836 33.6157 27.8619C33.7186 27.9401 33.8359 27.9973 33.9609 28.0302C34.086 28.0631 34.2162 28.0711 34.3443 28.0536C34.4724 28.0362 34.5958 27.9937 34.7075 27.9286C34.8192 27.8635 34.9169 27.777 34.9951 27.6741C35.0734 27.5712 35.1306 27.4538 35.1635 27.3288C35.1964 27.2038 35.2044 27.0735 35.1869 26.9454C35.1695 26.8174 35.127 26.694 35.0619 26.5823L32.2951 21.8392C33.0604 21.5595 33.8777 21.4507 34.6895 21.5207C35.5013 21.5907 36.2879 21.8377 36.9941 22.2443C37.7002 22.651 38.3086 23.2073 38.7766 23.8744C39.2446 24.5414 39.5608 25.3028 39.703 26.1052C39.8451 26.9075 39.8098 27.7312 39.5994 28.5184C39.389 29.3056 39.0087 30.0372 38.4853 30.6616C37.9619 31.2861 37.308 31.7883 36.5696 32.1329C35.8312 32.4775 35.0264 32.6562 34.2115 32.6564Z" fill="#394273"/>
</g>
<defs>
<clipPath id="clip0">
<rect width="42" height="42" fill="white" transform="translate(0.0859375 0.828247)"/>
</clipPath>
</defs>
</svg>
