<svg width="43" height="43" viewBox="0 0 43 43" fill="none" xmlns="http://www.w3.org/2000/svg">
<path d="M21.3418 4.7345C18.0321 4.7345 14.7966 5.71595 12.0447 7.55475C9.29273 9.39354 7.14784 12.0071 5.88126 15.0649C4.61467 18.1227 4.28328 21.4874 4.92898 24.7336C5.57468 27.9797 7.16847 30.9615 9.50881 33.3019C11.8492 35.6422 14.8309 37.236 18.0771 37.8817C21.3232 38.5274 24.688 38.196 27.7458 36.9294C30.8036 35.6628 33.4171 33.5179 35.2559 30.766C37.0947 28.014 38.0762 24.7786 38.0762 21.4689C38.0712 17.0322 36.3065 12.7786 33.1693 9.6414C30.0321 6.50418 25.7785 4.73949 21.3418 4.7345ZM21.3418 36.2345C18.4214 36.2345 15.5667 35.3685 13.1385 33.746C10.7103 32.1236 8.81772 29.8175 7.70015 27.1194C6.58257 24.4214 6.29016 21.4525 6.8599 18.5882C7.42963 15.724 8.83592 13.093 10.9009 11.028C12.9659 8.96299 15.5969 7.5567 18.4612 6.98696C21.3254 6.41723 24.2943 6.70964 26.9924 7.82721C29.6904 8.94479 31.9965 10.8373 33.619 13.2655C35.2414 15.6937 36.1074 18.5485 36.1074 21.4689C36.103 25.3836 34.5459 29.1367 31.7778 31.9049C29.0097 34.673 25.2565 36.2301 21.3418 36.2345ZM13.7949 18.1876C13.7949 17.8631 13.8912 17.5459 14.0714 17.2761C14.2517 17.0063 14.5079 16.7961 14.8077 16.6719C15.1075 16.5477 15.4374 16.5152 15.7556 16.5785C16.0739 16.6418 16.3662 16.7981 16.5957 17.0275C16.8251 17.257 16.9814 17.5493 17.0447 17.8676C17.108 18.1858 17.0755 18.5157 16.9513 18.8155C16.8271 19.1152 16.6168 19.3715 16.347 19.5518C16.0772 19.732 15.76 19.8282 15.4356 19.8282C15.0004 19.8282 14.5831 19.6554 14.2755 19.3477C13.9678 19.04 13.7949 18.6227 13.7949 18.1876ZM30.2012 18.1876C30.2012 18.4487 30.0975 18.6991 29.9129 18.8837C29.7283 19.0683 29.4779 19.172 29.2168 19.172H25.2793C25.0182 19.172 24.7679 19.0683 24.5832 18.8837C24.3986 18.6991 24.2949 18.4487 24.2949 18.1876C24.2949 17.9265 24.3986 17.6762 24.5832 17.4916C24.7679 17.307 25.0182 17.2032 25.2793 17.2032H29.2168C29.4779 17.2032 29.7283 17.307 29.9129 17.4916C30.0975 17.6762 30.2012 17.9265 30.2012 18.1876ZM29.0157 25.8987C28.2377 27.2455 27.1191 28.3638 25.7721 29.1413C24.4251 29.9188 22.8972 30.3282 21.3419 30.3282C19.7866 30.3282 18.2587 29.9189 16.9117 29.1414C15.5647 28.3639 14.4461 27.2456 13.6681 25.8989C13.6019 25.7869 13.5585 25.6629 13.5404 25.5341C13.5224 25.4053 13.53 25.2741 13.563 25.1483C13.5959 25.0224 13.6535 24.9044 13.7324 24.8009C13.8112 24.6974 13.9098 24.6106 14.0224 24.5455C14.135 24.4804 14.2594 24.4382 14.3884 24.4214C14.5174 24.4047 14.6485 24.4136 14.774 24.4478C14.8995 24.482 15.017 24.5408 15.1197 24.6206C15.2224 24.7005 15.3082 24.7999 15.3722 24.9132C15.9773 25.961 16.8474 26.8312 17.8953 27.4361C18.9432 28.0411 20.1318 28.3596 21.3418 28.3596C22.5518 28.3596 23.7404 28.0411 24.7883 27.4361C25.8362 26.8312 26.7064 25.961 27.3114 24.9132C27.4436 24.6902 27.6584 24.5284 27.9091 24.4629C28.1599 24.3973 28.4264 24.4333 28.6508 24.5631C28.8752 24.6928 29.0394 24.9058 29.1077 25.1558C29.176 25.4059 29.1429 25.6728 29.0157 25.8986V25.8987Z" fill="#394273"/>
</svg>
