<svg width="1280" height="819" viewBox="0 0 1280 819" fill="none" xmlns="http://www.w3.org/2000/svg">
<g clip-path="url(#clip0)">
<path d="M1364 83.0811C1364 261.745 1199.5 594.581 945.749 594.581C767.085 594.581 943.75 383.081 622.25 271.081C300.75 159.081 767.085 -52.4189 945.749 -52.4189C1124.41 -52.4189 1364 -95.5831 1364 83.0811Z" fill="url(#paint0_linear)" fill-opacity="0.7"/>
<path d="M-462.909 697.227C-461.518 532.979 -307.85 228.28 -74.8064 230.254C89.278 231.644 -174.238 470.322 219.775 530.167C613.789 590.012 84.2397 826.437 -79.8447 825.047C-243.929 823.657 -464.3 861.475 -462.909 697.227Z" fill="url(#paint1_linear)" fill-opacity="0.7"/>
</g>
<defs>
<linearGradient id="paint0_linear" x1="938" y1="-57" x2="938" y2="594.581" gradientUnits="userSpaceOnUse">
<stop stop-color="#8BD996"/>
<stop offset="1" stop-color="#798BF2"/>
</linearGradient>
<linearGradient id="paint1_linear" x1="-51.7299" y1="829.497" x2="-46.6559" y2="230.492" gradientUnits="userSpaceOnUse">
<stop stop-color="#8BD996"/>
<stop offset="1" stop-color="#798BF2"/>
</linearGradient>
<clipPath id="clip0">
<rect width="1280" height="819" fill="white"/>
</clipPath>
</defs>
</svg>
