<svg width="69" height="65" viewBox="0 0 69 65" fill="none" xmlns="http://www.w3.org/2000/svg">
<path d="M41.6155 0.196404C39.1813 0.383453 35.633 0.888489 32.534 1.50575C25.3906 2.92734 19.3894 5.0223 15.9254 7.30431C14.9142 7.96835 13.7814 9.03453 13.5005 9.58633C13.2384 10.1194 12.1992 13.4302 11.9651 14.4964C11.7404 15.5532 11.5813 15.8993 11.3285 15.8993C11.2255 15.8993 10.7948 15.5813 10.3735 15.1885C8.91302 13.8604 7.43378 13.0374 5.82346 12.6633C4.69063 12.4014 3.34246 12.682 1.26403 13.6173L0.09375 14.1504L0.402705 14.487C1.14233 15.3101 1.81641 16.554 2.38751 18.1439C3.46417 21.1835 4.40976 23.0165 6.40393 25.9532C8.89429 29.6288 11.6749 32.4813 14.8393 34.6043C18.6217 37.1388 22.8722 39.187 27.3193 40.6273C29.8284 41.4317 32.4498 42.7784 35.7172 44.9388C40.3796 48.0158 44.6956 51.654 50.8373 57.6676C52.354 59.1547 53.9362 60.6511 54.3482 60.9878C57.007 63.1669 59.9468 65 60.7894 65C60.9767 65 61.1358 64.9532 61.1358 64.8971C61.1358 64.5604 60.8362 64.3173 58.1399 62.4748C55.3967 60.6043 55.0316 60.2957 52.2885 57.6209C47.6729 53.1036 42.7389 48.5209 38.2263 44.5367C37.0279 43.4799 36.0449 42.6101 36.0449 42.5914C36.0449 42.5072 37.0373 42.9281 37.8705 43.3489C39.7243 44.3029 41.5874 45.5374 48.4499 50.3914C52.8596 53.5151 54.292 54.4878 56.9696 56.1806C61.9878 59.3604 66.6502 61.9511 67.989 62.3065C68.4852 62.4374 68.5788 62.3906 68.5039 62.082C68.4571 61.923 67.9984 61.5957 66.7345 60.8475C61.4073 57.6676 56.3236 54.2727 51.2586 50.5036C46.4183 46.9029 42.5798 43.6669 39.5464 40.618C37.7957 38.8597 36.925 37.8496 35.1087 35.446C34.2661 34.3424 33.2643 33.0518 32.8711 32.5935C31.9349 31.4806 30.2777 29.8345 29.3509 29.105C27.9653 28.0108 27.8061 27.8611 27.8061 27.6835C27.8061 27.5058 27.881 27.4964 29.2479 27.4964C31.6072 27.4964 32.0753 27.3374 33.6107 25.9906C34.1537 25.5137 37.1777 22.5396 40.3328 19.3691L46.0719 13.6079L45.9127 13.3086C45.8285 13.1496 45.3229 12.5043 44.7799 11.8777C44.2463 11.2511 43.8156 10.718 43.8343 10.6993C43.853 10.6806 45.0327 11.1108 46.4464 11.6532L49.0117 12.6353L50.1351 12.1957C53.9549 10.7086 62.5402 7.26691 64.3471 6.50935C67.4928 5.18129 69.0844 4.35827 68.8784 4.15252C68.8503 4.12446 68.3822 4.00288 67.8392 3.87194C67.2868 3.75036 65.3769 3.27338 63.5887 2.80575C57.2786 1.17842 53.7958 0.533089 49.3019 0.18705C47.8975 0.0748215 43.1134 0.0841675 41.6155 0.196404Z" fill="white"/>
</svg>
