<?xml version="1.0" encoding="utf-8"?>
<!-- Generator: Adobe Illustrator 21.1.0, SVG Export Plug-In . SVG Version: 6.00 Build 0)  -->
<svg version="1.1" id="Capa_1" xmlns="http://www.w3.org/2000/svg" xmlns:xlink="http://www.w3.org/1999/xlink" x="0px" y="0px"
	 viewBox="0 0 186.9 65" style="enable-background:new 0 0 186.9 65;" xml:space="preserve">
<style type="text/css">
	.st0{fill:#FFFFFF;}
</style>
<path class="st0" d="M41.6,0.2c-2.4,0.2-6,0.7-9.1,1.3C25.4,2.9,19.4,5,15.9,7.3c-1,0.7-2.1,1.7-2.4,2.3c-0.3,0.5-1.3,3.8-1.5,4.9
	c-0.2,1.1-0.4,1.4-0.6,1.4c-0.1,0-0.5-0.3-1-0.7c-1.5-1.3-2.9-2.2-4.6-2.5c-1.1-0.3-2.5,0-4.6,1l-1.2,0.5l0.3,0.3
	c0.7,0.8,1.4,2.1,2,3.7c1.1,3,2,4.9,4,7.8c2.5,3.7,5.3,6.5,8.4,8.7c3.8,2.5,8,4.6,12.5,6c2.5,0.8,5.1,2.2,8.4,4.3
	c4.7,3.1,9,6.7,15.1,12.7c1.5,1.5,3.1,3,3.5,3.3c2.7,2.2,5.6,4,6.4,4c0.2,0,0.3,0,0.3-0.1c0-0.3-0.3-0.6-3-2.4
	c-2.7-1.9-3.1-2.2-5.9-4.9c-4.6-4.5-9.5-9.1-14.1-13.1C37,43.5,36,42.6,36,42.6c0-0.1,1,0.3,1.8,0.8c1.9,1,3.7,2.2,10.6,7
	c4.4,3.1,5.8,4.1,8.5,5.8c5,3.2,9.7,5.8,11,6.1c0.5,0.1,0.6,0.1,0.5-0.2c0-0.2-0.5-0.5-1.8-1.2c-5.3-3.2-10.4-6.6-15.5-10.3
	c-4.8-3.6-8.7-6.8-11.7-9.9c-1.8-1.8-2.6-2.8-4.4-5.2c-0.8-1.1-1.8-2.4-2.2-2.9c-0.9-1.1-2.6-2.8-3.5-3.5c-1.4-1.1-1.5-1.2-1.5-1.4
	c0-0.2,0.1-0.2,1.4-0.2c2.4,0,2.8-0.2,4.4-1.5c0.5-0.5,3.6-3.5,6.7-6.6l5.7-5.8l-0.2-0.3c-0.1-0.2-0.6-0.8-1.1-1.4
	c-0.5-0.6-1-1.2-0.9-1.2c0,0,1.2,0.4,2.6,1l2.6,1l1.1-0.4c3.8-1.5,12.4-4.9,14.2-5.7c3.1-1.3,4.7-2.2,4.5-2.4c0,0-0.5-0.1-1-0.3
	c-0.6-0.1-2.5-0.6-4.3-1.1c-6.3-1.6-9.8-2.3-14.3-2.6C47.9,0.1,43.1,0.1,41.6,0.2z"/>
<path class="st0" d="M70.4,24h8.9v24h6.1V24h8.9v-5.1H70.4V24z M95.9,48h6.1V35.7c0-2.7,2-4.5,4.6-4.5c0.8,0,2,0.1,2.6,0.3v-5.4
	c-0.5-0.1-1.3-0.2-1.9-0.2c-2.4,0-4.4,1.4-5.2,4.1h-0.2v-3.8h-5.9V48z M117.8,48.4c3.2,0,5.3-1.4,6.4-3.4h0.2v3h5.7V33.3
	c0-5.2-4.4-7.4-9.3-7.4c-5.2,0-8.7,2.5-9.5,6.5l5.6,0.5c0.4-1.4,1.7-2.5,3.9-2.5c2.1,0,3.2,1,3.2,2.8v0.1c0,1.4-1.5,1.6-5.3,2
	c-4.3,0.4-8.2,1.8-8.2,6.7C110.6,46.2,113.7,48.4,117.8,48.4z M119.6,44.2c-1.9,0-3.2-0.9-3.2-2.5c0-1.7,1.4-2.5,3.5-2.8
	c1.3-0.2,3.5-0.5,4.2-1v2.3C124.1,42.5,122.2,44.2,119.6,44.2z M154.4,26.2H148l-4.5,15.6h-0.2l-4.5-15.6h-6.4l7.6,21.8h6.8
	L154.4,26.2z M157.5,48h6.1V26.2h-6.1V48z M160.5,23.4c1.8,0,3.3-1.4,3.3-3.1c0-1.7-1.5-3.1-3.3-3.1c-1.8,0-3.3,1.4-3.3,3.1
	C157.2,22,158.7,23.4,160.5,23.4z M174.6,48.4c3.2,0,5.3-1.4,6.4-3.4h0.2v3h5.7V33.3c0-5.2-4.4-7.4-9.3-7.4c-5.2,0-8.7,2.5-9.5,6.5
	l5.6,0.5c0.4-1.4,1.7-2.5,3.9-2.5c2.1,0,3.2,1,3.2,2.8v0.1c0,1.4-1.5,1.6-5.3,2c-4.3,0.4-8.2,1.8-8.2,6.7
	C167.3,46.2,170.4,48.4,174.6,48.4z M176.3,44.2c-1.9,0-3.2-0.9-3.2-2.5c0-1.7,1.4-2.5,3.5-2.8c1.3-0.2,3.5-0.5,4.2-1v2.3
	C180.9,42.5,179,44.2,176.3,44.2z"/>
</svg>
