<svg width="42" height="42" viewBox="0 0 42 42" fill="none" xmlns="http://www.w3.org/2000/svg">
<path d="M31.7266 18.3828C31.7266 18.6377 31.6253 18.8821 31.4451 19.0623C31.2649 19.2425 31.0205 19.3438 30.7656 19.3438H24.3594C24.1045 19.3438 23.8601 19.2425 23.6799 19.0623C23.4997 18.8821 23.3984 18.6377 23.3984 18.3828C23.3984 18.128 23.4997 17.8835 23.6799 17.7033C23.8601 17.5231 24.1045 17.4219 24.3594 17.4219H30.7656C31.0205 17.4219 31.2649 17.5231 31.4451 17.7033C31.6253 17.8835 31.7266 18.128 31.7266 18.3828ZM30.7656 22.5469H24.3594C24.1045 22.5469 23.8601 22.6481 23.6799 22.8283C23.4997 23.0085 23.3984 23.253 23.3984 23.5078C23.3984 23.7627 23.4997 24.0071 23.6799 24.1873C23.8601 24.3675 24.1045 24.4688 24.3594 24.4688H30.7656C31.0205 24.4688 31.2649 24.3675 31.4451 24.1873C31.6253 24.0071 31.7266 23.7627 31.7266 23.5078C31.7266 23.253 31.6253 23.0085 31.4451 22.8283C31.2649 22.6481 31.0205 22.5469 30.7656 22.5469ZM20.6601 27.1115C20.6931 27.2342 20.7015 27.3622 20.6848 27.4882C20.668 27.6142 20.6264 27.7356 20.5624 27.8454C20.4984 27.9552 20.4133 28.0512 20.3119 28.1278C20.2105 28.2045 20.095 28.2603 19.9719 28.292C19.8488 28.3237 19.7207 28.3307 19.5949 28.3125C19.4691 28.2944 19.3482 28.2514 19.2391 28.1862C19.1301 28.121 19.035 28.0348 18.9595 27.9326C18.8839 27.8304 18.8294 27.7142 18.7991 27.5908C18.5679 26.697 18.0463 25.9053 17.3163 25.3401C16.5863 24.7749 15.6893 24.4682 14.766 24.4683C13.8428 24.4683 12.9457 24.775 12.2158 25.3402C11.4858 25.9055 10.9643 26.6972 10.7331 27.591C10.7031 27.7148 10.6489 27.8313 10.5734 27.934C10.498 28.0366 10.4029 28.1232 10.2938 28.1887C10.1846 28.2542 10.0634 28.2974 9.93741 28.3158C9.81139 28.3341 9.68298 28.3272 9.55965 28.2954C9.43632 28.2637 9.32053 28.2077 9.21901 28.1308C9.11749 28.0539 9.03227 27.9576 8.96829 27.8475C8.90432 27.7374 8.86287 27.6157 8.84636 27.4894C8.82985 27.3631 8.8386 27.2348 8.87211 27.112C9.07298 26.3309 9.42742 25.5976 9.91473 24.955C10.402 24.3124 11.0125 23.7733 11.7104 23.3691C10.9467 22.7397 10.396 21.8898 10.1335 20.9356C9.871 19.9814 9.90958 18.9695 10.2439 18.038C10.5783 17.1066 11.1921 16.3011 12.0015 15.7317C12.811 15.1622 13.7765 14.8566 14.7661 14.8566C15.7557 14.8566 16.7212 15.1622 17.5307 15.7317C18.3401 16.3011 18.9539 17.1066 19.2883 18.038C19.6226 18.9695 19.6612 19.9814 19.3987 20.9356C19.1362 21.8898 18.5855 22.7397 17.8218 23.3691C18.5197 23.7732 19.1301 24.3123 19.6174 24.9548C20.1047 25.5973 20.4592 26.3305 20.6601 27.1115ZM14.7662 22.5469C15.3363 22.5469 15.8937 22.3778 16.3678 22.061C16.8419 21.7443 17.2114 21.294 17.4295 20.7673C17.6477 20.2405 17.7048 19.6609 17.5936 19.1017C17.4824 18.5424 17.2078 18.0288 16.8046 17.6256C16.4015 17.2224 15.8878 16.9479 15.3286 16.8366C14.7694 16.7254 14.1897 16.7825 13.663 17.0007C13.1362 17.2189 12.686 17.5884 12.3692 18.0625C12.0524 18.5365 11.8834 19.0939 11.8834 19.6641C11.8842 20.4284 12.1882 21.1611 12.7287 21.7016C13.2691 22.242 14.0019 22.546 14.7662 22.5469ZM36.8516 9.41406V32.4766C36.8509 33.071 36.6144 33.6409 36.1941 34.0613C35.7737 34.4816 35.2038 34.7181 34.6094 34.7188H6.42188C5.82742 34.7181 5.2575 34.4816 4.83716 34.0613C4.41681 33.6409 4.18037 33.071 4.17969 32.4766V9.41406C4.18037 8.81961 4.41681 8.24969 4.83716 7.82935C5.2575 7.409 5.82742 7.17255 6.42188 7.17188H34.6094C35.2038 7.17255 35.7737 7.409 36.1941 7.82935C36.6144 8.24969 36.8509 8.81961 36.8516 9.41406ZM34.9297 9.41406C34.9296 9.32914 34.8958 9.24771 34.8358 9.18766C34.7757 9.12761 34.6943 9.09383 34.6094 9.09375H6.42188C6.33695 9.09383 6.25553 9.12761 6.19547 9.18766C6.13542 9.24771 6.10165 9.32914 6.10156 9.41406V32.4766C6.10165 32.5615 6.13542 32.6429 6.19547 32.703C6.25553 32.763 6.33695 32.7968 6.42188 32.7969H34.6094C34.6943 32.7968 34.7757 32.763 34.8358 32.703C34.8958 32.6429 34.9296 32.5615 34.9297 32.4766V9.41406Z" fill="#394273"/>
</svg>
