<svg width="581" height="581" viewBox="0 0 581 581" fill="none" xmlns="http://www.w3.org/2000/svg">
<path d="M84.4275 424.103L85.5476 384.2C86.4794 383.706 87.12 382.753 87.1337 381.64C87.1509 380.008 85.8251 378.669 84.1739 378.651C83.9033 378.649 83.643 378.692 83.3929 378.756L28.3389 322.465C28.5102 322.094 28.6164 321.69 28.6198 321.254C28.6266 320.612 28.4245 320.023 28.0785 319.537L108.222 214.165C107.393 213.734 106.568 213.309 105.735 212.867L25.5607 318.273C23.9506 318.308 22.6488 319.59 22.6317 321.187C22.6146 322.817 23.9403 324.159 25.5949 324.179C25.7662 324.179 25.9306 324.156 26.1019 324.133L81.3306 380.607C81.221 380.914 81.1491 381.231 81.1456 381.574C81.1319 382.73 81.8034 383.732 82.7797 384.226L81.6595 424.071L81.5876 426.616L81.5088 429.384C81.4848 430.146 82.0877 430.785 82.8516 430.805C82.8585 430.805 82.8687 430.805 82.8756 430.805C83.6292 430.814 84.2527 430.216 84.2733 429.463L84.3555 426.636L84.4275 424.103Z" fill="#394273"/>
<path d="M81.5855 426.617C68.3622 426.62 57.8958 428.377 57.8702 430.672C57.8445 433.063 69.1806 435.131 83.1902 435.288C97.2031 435.442 108.584 433.63 108.61 431.236C108.635 428.906 97.8675 426.884 84.3553 426.637L84.2751 429.464C84.2526 430.216 83.63 430.814 82.8757 430.806C82.8693 430.806 82.8597 430.806 82.8532 430.806C82.0862 430.786 81.486 430.146 81.5084 429.385L81.5855 426.617Z" fill="#323B6E"/>
<path d="M138.194 212.064C131.419 222.545 129.958 233.654 134.931 236.864C139.902 240.077 149.427 234.18 156.199 223.692C162.973 213.205 164.432 202.102 159.461 198.892C154.491 195.68 144.965 201.577 138.194 212.064Z" fill="#F2CD13"/>
<path d="M316.448 86.5669C315.986 89.9353 316.764 93.6272 319.2 95.9971C319.954 96.7336 320.881 97.2914 321.876 97.6489C324.106 98.444 326.68 98.2314 328.445 96.6843L328.458 96.6535C327.078 95.9601 325.85 94.9062 324.992 93.6365C322.824 90.4222 322.603 86.2495 323.263 82.4312C323.465 81.2818 323.753 80.1199 324.182 79.029C322.218 78.6746 320.154 79.5775 318.805 81.0506C317.435 82.5483 316.729 84.5545 316.448 86.5669Z" fill="#FEA77C"/>
<path d="M343.394 95.3498C342.066 95.0182 340.717 94.6179 339.479 94.0353L339.439 94.1219C339.504 95.3408 339.986 96.5239 340.759 97.4709C341.256 98.0804 341.873 98.5883 342.57 98.9468H342.587C342.68 97.7159 342.947 96.5 343.394 95.3498Z" fill="#FEA77C"/>
<path d="M331.647 86.3217C331.413 89.2647 331.619 92.3986 333.257 94.8532C333.752 95.6015 334.415 96.2589 335.172 96.7661C336.846 97.9026 338.97 98.3253 340.759 97.4706C339.985 96.525 339.503 95.3416 339.438 94.1237L339.478 94.036C338.489 93.5696 337.571 92.9779 336.787 92.2139C335.023 90.4857 334.161 87.6148 335.398 85.4827C335.796 84.7939 336.429 84.2022 337.206 84.0456C337.904 83.9016 338.616 84.1208 339.293 84.3399C340.096 84.5967 340.903 84.8502 341.706 85.1101C342.36 82.7025 343.083 80.2855 344.451 78.2098C345.405 76.7665 346.737 75.5016 348.284 74.7659V74.7628L348.245 74.6876C345.798 72.5868 342.673 70.677 339.528 71.3909C337.451 71.8636 335.897 73.3445 334.763 75.1885C334.018 76.3939 333.456 77.7496 333.042 79.0739C332.311 81.4283 331.841 83.8609 331.647 86.3217Z" fill="#FEA77C"/>
<path d="M324.181 79.0291C323.752 80.1168 323.464 81.2794 323.262 82.4295C322.602 86.2475 322.823 90.4208 324.991 93.6341C325.849 94.9057 327.077 95.9561 328.458 96.6511C330.562 97.7108 333.026 97.9414 335.101 96.8661L335.173 96.7664C334.416 96.2584 333.753 95.6039 333.258 94.8527C331.62 92.3967 331.414 89.2644 331.648 86.3222C331.842 83.8631 332.312 81.4259 333.043 79.0727C333.456 77.7512 334.019 76.3955 334.764 75.1893L334.39 74.9524C332.449 72.9733 328.954 73.3286 326.836 75.1145C325.61 76.1493 324.763 77.5237 324.181 79.0291Z" fill="#FEA77C"/>
<path d="M341.705 85.1105C340.902 84.8523 340.095 84.5973 339.292 84.3391C338.615 84.1214 337.903 83.9005 337.205 84.0436C336.428 84.2022 335.795 84.7932 335.397 85.4806C334.16 87.6143 335.022 90.4851 336.786 92.2144C337.57 92.9765 338.488 93.5674 339.477 94.034C340.715 94.6187 342.064 95.02 343.393 95.3497C342.946 96.5005 342.678 97.7166 342.586 98.9452H342.568C341.871 98.5875 341.255 98.0805 340.758 97.4709C338.969 98.3231 336.845 97.9002 335.171 96.7649L335.1 96.8644C333.024 97.9406 330.561 97.7073 328.456 96.6498L328.443 96.6809C326.677 98.2299 324.103 98.4413 321.874 97.6482L321.846 97.726C321.469 99.7788 321.629 101.934 322.295 103.912C323.228 106.687 325.12 109.079 325.925 111.89C326.457 113.744 326.478 115.732 326.043 117.881C335.525 118.92 345.188 118.254 354.44 115.94L354.432 115.897C355.395 110.799 357.992 106.189 360.126 101.455C362.255 96.7245 363.965 91.5084 362.996 86.4106C362.305 82.7715 360.256 79.459 357.506 76.98C355.706 75.3502 353.447 74.0159 351.019 74.0812C350.064 74.1061 349.141 74.3549 348.283 74.7593V74.7655C346.736 75.4995 345.404 76.7654 344.45 78.2086C343.082 80.2832 342.359 82.7031 341.705 85.1105Z" fill="#FEA77C"/>
<path d="M524.671 97.2655C525.353 98.5654 525.859 99.9602 526.176 101.391C527.535 101.34 528.873 100.726 529.783 99.7139L529.862 99.6723C529.605 99.2034 529.382 98.7137 529.195 98.2181C527.646 98.0905 526.1 97.6276 524.671 97.2655Z" fill="#FEA77C"/>
<path d="M545.408 82.5636C545.02 82.7197 544.654 82.9309 544.319 83.185C543.276 83.9931 542.606 85.1808 542.01 86.3593C540.527 89.2979 539.34 92.3865 538.468 95.567C537.824 97.9209 537.43 100.676 538.924 102.604C538.942 102.626 538.959 102.647 538.981 102.669C540.493 104.545 543.206 104.83 545.633 104.86C545.53 104.698 545.444 104.521 545.376 104.331C545.036 103.416 545.099 102.408 545.229 101.441C545.789 97.1342 547.535 92.9773 550.219 89.5611C550.819 88.7959 551.515 88.0367 552.374 87.6388L552.28 87.449C552.048 85.441 551.35 83.5615 549.393 82.637C548.151 82.0523 546.671 82.0462 545.408 82.5636Z" fill="#FEA77C"/>
<path d="M374.467 224.567C373.157 224.553 372.085 225.602 372.071 226.912C372.056 228.216 373.105 229.288 374.414 229.303C375.72 229.317 376.792 228.268 376.806 226.964C376.821 225.654 375.772 224.582 374.467 224.567Z" fill="#20140F"/>
<path d="M525.789 79.0795C522.73 81.9178 520.847 84.9414 519.498 88.8884V88.8915C520.208 88.8885 520.925 88.9595 521.634 89.0305L529.665 89.8459C530.01 89.8798 530.365 89.9231 530.723 89.9756C531.359 87.5975 532.383 85.3151 533.751 83.2644C534.232 82.5417 534.757 81.8406 535.359 81.2167L535.181 81.0437C533.944 79.2401 531.925 77.9893 529.76 77.6866C529.056 77.5816 528.32 77.5816 527.647 77.8194C526.935 78.0696 526.342 78.5668 525.789 79.0795Z" fill="#FEA77C"/>
<path d="M402.195 208.993C401.577 209.469 401.195 210.338 401.515 211.041C401.738 211.529 402.242 211.837 402.758 211.971C403.278 212.104 403.817 212.093 404.351 212.116C405.8 212.171 407.278 212.494 408.473 213.319C409.099 213.751 409.636 214.309 410.298 214.678C410.965 215.047 411.839 215.184 412.462 214.742C413.058 214.321 413.225 213.464 413.019 212.755C412.812 212.052 412.301 211.477 411.75 210.989C409.559 209.042 406.503 208.104 403.594 208.493C403.6 208.363 402.809 208.522 402.195 208.993Z" fill="#323B6E"/>
<path d="M531.865 98.0237C530.986 98.2549 530.087 98.2919 529.194 98.2179C529.382 98.7142 529.604 99.2012 529.862 99.6698C530.691 101.174 531.868 102.475 533.406 103.196C535.149 104.016 537.385 103.899 538.883 102.749L538.98 102.672C538.959 102.651 538.942 102.626 538.924 102.604C537.43 100.678 537.824 97.922 538.468 95.57C539.34 92.3888 540.527 89.3 542.009 86.3592C542.605 85.1848 543.276 83.9949 544.318 83.1873C544.654 82.9315 545.02 82.7218 545.407 82.5646C544.55 81.2545 543.605 79.8982 542.185 79.2509C540.642 78.5419 538.772 78.8285 537.295 79.6701C536.572 80.0831 535.935 80.6134 535.359 81.2175C534.756 81.8402 534.232 82.54 533.75 83.2613C532.383 85.3143 531.359 87.5954 530.723 89.9751C532.521 90.2464 534.354 90.8136 535.148 92.3826C536.271 94.6051 534.277 97.3825 531.865 98.0237Z" fill="#FEA77C"/>
<path d="M545.634 104.865C543.207 104.832 540.494 104.547 538.981 102.675L538.884 102.75C537.386 103.902 535.15 104.02 533.407 103.199C531.869 102.478 530.692 101.175 529.863 99.6724L529.783 99.7148C528.874 100.727 527.535 101.342 526.177 101.393C525.859 99.9603 525.354 98.5667 524.672 97.267C526.1 97.6275 527.646 98.091 529.195 98.2183C530.088 98.294 530.987 98.2576 531.866 98.0244C534.278 97.3851 536.271 94.6101 535.149 92.3833C534.355 90.8171 532.521 90.2475 530.724 89.9779C530.365 89.9264 530.011 89.881 529.666 89.8476L521.635 89.0327C520.926 88.963 520.208 88.8873 519.499 88.8933C518.789 88.8933 518.083 88.9691 517.406 89.1902C514.68 90.0809 513.187 93.1347 513.054 95.9976C512.918 98.8605 513.819 101.654 514.393 104.465C515.71 110.939 515.257 117.771 513.098 124.021C523.822 127.178 533.605 129.571 544.676 129.541C544.741 129.217 544.81 128.892 544.893 128.571C544.893 128.565 544.893 128.562 544.893 128.562C545.568 125.787 546.784 123.148 548.457 120.834C550.01 118.686 551.936 116.841 553.563 114.754C558.509 108.398 560.441 99.8027 558.688 91.941C558.458 90.5838 557.51 89.1811 556.205 88.2541C555.288 87.5997 554.132 87.1846 553.03 87.421C552.801 87.4725 552.582 87.5482 552.375 87.6421C551.516 88.039 550.82 88.7994 550.22 89.5628C547.536 92.9832 545.79 97.1367 545.229 101.448C545.1 102.414 545.037 103.42 545.377 104.335C545.444 104.526 545.53 104.701 545.634 104.865Z" fill="#FEA77C"/>
<path d="M378.202 244.186C378.176 246.117 379.295 247.895 380.682 249.24C382.91 251.407 385.914 252.752 389.017 253.031C392.116 253.307 395.287 252.529 397.938 250.902C399.125 250.17 400.23 249.252 400.94 248.052C401.646 246.849 401.908 245.336 401.397 244.043C400.497 241.774 397.672 240.944 395.231 241.036C392.794 241.127 390.346 241.827 387.95 241.368C385.703 240.935 383.445 239.503 381.303 240.293C379.851 240.83 378.228 242.257 378.202 244.186Z" fill="white"/>
<path d="M455.201 383.404C462.587 360.609 476.017 340.712 489.653 320.836L489.744 320.9C492.752 323.811 494.182 326.359 495.619 330.295C498.489 338.171 498.253 346.842 497.1 355.145C494.758 371.994 488.848 388.108 482.975 404.074C480.604 410.511 478.241 416.952 475.869 423.392L451.081 423.427H442.902L455.201 383.404Z" fill="#F26716"/>
<path d="M404.74 224.904C403.434 224.89 402.362 225.939 402.348 227.249C402.333 228.553 403.382 229.625 404.687 229.639C405.997 229.654 407.069 228.605 407.083 227.301C407.098 225.991 406.049 224.919 404.74 224.904Z" fill="#20140F"/>
<path d="M368.828 212.264C368.606 212.967 368.754 213.827 369.341 214.263C369.953 214.716 370.831 214.6 371.505 214.248C372.179 213.891 372.724 213.345 373.36 212.929C374.573 212.13 376.057 211.84 377.508 211.817C378.042 211.805 378.585 211.828 379.103 211.709C379.622 211.587 380.133 211.291 380.367 210.806C380.703 210.108 380.34 209.234 379.732 208.746C379.129 208.261 378.342 208.081 378.345 208.211C375.445 207.758 372.369 208.627 370.136 210.527C369.574 211.003 369.051 211.567 368.828 212.264Z" fill="#323B6E"/>
<path d="M370.16 186.965C375.703 190.393 382.864 191.735 389.814 191.985C394.132 192.138 398.445 191.921 402.754 191.723C404.713 191.636 406.851 191.316 408.794 191.473C410.392 191.601 421.863 193.428 429.272 205.147C429.526 205.545 429.794 205.929 430.043 206.329C434.773 213.975 436.787 223.591 434.408 232.257C434.307 232.62 434.456 233.021 434.711 233.3C434.971 233.578 435.324 233.747 435.682 233.869C436.389 234.119 437.181 234.197 437.894 233.965C438.61 233.732 439.235 233.146 439.383 232.408C440.707 230.368 442.809 228.849 445.126 228.477C445.96 228.341 446.819 228.355 447.649 228.509C447.891 228.007 448.133 227.507 448.376 227.004C453.13 215.489 455.371 202.257 449.628 191.624C445.133 183.307 436.491 178.026 427.657 174.659C418.823 171.298 409.446 169.462 400.702 165.868C395.157 162.223 388.802 158.908 381.92 158.472C377.634 158.199 373.278 159.094 369.44 161.026C367.705 161.9 366.054 162.995 364.776 164.457C362.189 167.402 361.345 171.652 362.117 175.496C362.885 179.336 365.133 182.784 367.999 185.46C368.685 186.003 369.407 186.503 370.16 186.965Z" fill="#323B6E"/>
<path d="M402.345 227.249C402.36 225.939 403.432 224.89 404.737 224.905C406.047 224.919 407.095 225.991 407.08 227.302C407.066 228.606 405.994 229.655 404.684 229.64C403.379 229.626 402.331 228.554 402.345 227.249ZM401.513 211.042C401.193 210.339 401.575 209.471 402.193 208.994C402.807 208.524 403.598 208.364 403.592 208.495C406.501 208.105 409.557 209.044 411.748 210.99C412.299 211.478 412.81 212.053 413.016 212.756C413.223 213.465 413.056 214.322 412.46 214.743C411.837 215.185 410.963 215.048 410.296 214.679C409.634 214.31 409.097 213.753 408.471 213.32C407.276 212.495 405.798 212.172 404.349 212.117C403.815 212.094 403.276 212.105 402.756 211.972C402.24 211.838 401.736 211.53 401.513 211.042ZM380.682 249.24C379.295 247.895 378.176 246.117 378.202 244.185C378.228 242.257 379.851 240.83 381.303 240.293C383.445 239.503 385.703 240.935 387.95 241.368C390.346 241.827 392.794 241.126 395.231 241.036C397.672 240.943 400.497 241.774 401.396 244.043C401.908 245.336 401.645 246.849 400.94 248.052C400.23 249.252 399.125 250.17 397.938 250.902C395.287 252.529 392.115 253.307 389.016 253.031C385.913 252.752 382.91 251.407 380.682 249.24ZM372.072 226.912C372.086 225.602 373.158 224.553 374.468 224.568C375.773 224.582 376.822 225.654 376.807 226.965C376.793 228.269 375.721 229.318 374.415 229.303C373.106 229.289 372.057 228.217 372.072 226.912ZM369.339 214.264C368.752 213.828 368.604 212.968 368.826 212.265C369.049 211.568 369.572 211.004 370.134 210.528C372.367 208.628 375.443 207.76 378.343 208.213C378.34 208.082 379.127 208.262 379.73 208.747C380.338 209.235 380.701 210.11 380.364 210.807C380.131 211.292 379.62 211.588 379.101 211.71C378.583 211.829 378.04 211.806 377.506 211.818C376.055 211.841 374.571 212.132 373.358 212.93C372.722 213.346 372.177 213.892 371.503 214.249C370.828 214.601 369.951 214.717 369.339 214.264ZM440.291 246.385C443.544 247.753 447.553 247.355 450.376 245.202C453.84 242.556 455.211 237.495 453.56 233.466C453.112 232.365 452.458 231.342 451.604 230.512C450.525 229.466 449.126 228.777 447.648 228.51C446.818 228.356 445.959 228.342 445.125 228.478C442.808 228.85 440.706 230.369 439.382 232.409C439.234 233.146 438.609 233.733 437.893 233.966C437.18 234.198 436.388 234.12 435.681 233.87C435.323 233.748 434.971 233.579 434.711 233.3C434.455 233.022 434.306 232.621 434.407 232.257C436.786 223.592 434.772 213.976 430.042 206.33C429.793 205.929 429.525 205.546 429.271 205.148C421.862 193.429 410.391 191.602 408.793 191.474C406.85 191.317 404.713 191.637 402.753 191.724C398.444 191.921 394.131 192.139 389.813 191.985C382.863 191.736 375.702 190.393 370.159 186.965C368.606 192.627 367.05 198.286 365.497 203.948C359.529 225.695 358.29 242.599 361.955 254.19C364.071 260.872 367.815 265.79 373.227 268.855C379.222 272.248 385.964 274.206 392.823 274.735C392.437 276.408 391.954 278.064 391.384 279.685C390.782 281.384 390.049 283.098 388.76 284.359C388.623 284.492 388.477 284.617 388.327 284.742C392.738 290.276 400.378 292.685 407.411 291.807C414.527 290.913 421.014 287.043 426.182 282.067L426.613 281.965C426.362 280.504 426.773 278.985 427.214 277.555C430.487 266.842 435.188 256.625 439.874 246.451L440.291 246.385Z" fill="#FEA77C"/>
<path d="M147.196 212.845C147.196 218.481 142.627 223.05 136.991 223.05C131.355 223.05 126.786 218.481 126.786 212.845C126.786 207.209 131.355 202.64 136.991 202.64C142.627 202.64 147.196 207.209 147.196 212.845Z" fill="white"/>
<path d="M124.945 193.524C124.148 193.119 123.829 192.15 124.238 191.351C124.637 190.557 125.612 190.241 126.406 190.644L132.164 193.569C132.957 193.972 133.276 194.944 132.87 195.737C132.468 196.533 131.496 196.852 130.706 196.45L124.945 193.524ZM120.367 199.238C119.574 198.835 119.258 197.863 119.664 197.07C120.063 196.274 121.035 195.955 121.831 196.357L127.592 199.283C128.386 199.685 128.702 200.657 128.299 201.456C127.894 202.25 126.925 202.566 126.125 202.163L120.367 199.238ZM116.252 205.44C115.459 205.038 115.14 204.066 115.542 203.266C115.948 202.473 116.92 202.157 117.716 202.56L123.471 205.485C124.268 205.888 124.587 206.86 124.181 207.653C123.776 208.449 122.803 208.768 122.01 208.36L116.252 205.44ZM113.387 212.427C112.593 212.024 112.277 211.052 112.68 210.259C113.082 209.46 114.055 209.144 114.851 209.546L120.612 212.472C121.405 212.874 121.721 213.846 121.319 214.642C120.913 215.436 119.944 215.755 119.145 215.352L113.387 212.427ZM108.225 214.165C111.758 215.969 115.298 217.708 119.112 219.92C121.253 221.158 123.418 222.422 125.159 224.176C128.946 227.993 130.473 233.885 134.916 236.888L134.934 236.861C129.96 233.652 131.421 222.545 138.196 212.063C144.968 201.576 154.492 195.68 159.463 198.892C156.356 196.023 151.895 195.943 147.712 195.305C137.224 193.709 128.243 187.239 119.201 181.683C116.977 180.323 114.573 178.961 111.97 179.035C109.194 179.11 106.731 180.812 104.688 182.691C100.678 186.377 95.0477 194.616 94.9463 203.848C95.1431 206.093 96.3836 207.361 98.6677 208.807C101.095 210.346 103.43 211.649 105.738 212.868C106.57 213.31 107.396 213.736 108.225 214.165Z" fill="#394273"/>
<path d="M112.678 210.26C112.277 211.053 112.594 212.023 113.387 212.427L119.145 215.352C119.944 215.756 120.914 215.437 121.318 214.644C121.721 213.848 121.405 212.874 120.612 212.474L114.851 209.548C114.055 209.144 113.082 209.461 112.678 210.26Z" fill="#F2CD13"/>
<path d="M115.542 203.268C115.138 204.067 115.458 205.037 116.251 205.441L122.009 208.36C122.802 208.77 123.775 208.45 124.182 207.655C124.585 206.861 124.266 205.888 123.47 205.487L117.715 202.562C116.919 202.158 115.946 202.475 115.542 203.268Z" fill="#F2CD13"/>
<path d="M119.662 197.071C119.258 197.865 119.574 198.835 120.367 199.239L126.125 202.164C126.924 202.568 127.894 202.248 128.298 201.455C128.702 200.659 128.385 199.686 127.592 199.285L121.832 196.36C121.036 195.956 120.062 196.276 119.662 197.071Z" fill="#F2CD13"/>
<path d="M124.236 191.351C123.827 192.15 124.146 193.12 124.942 193.524L130.703 196.449C131.496 196.853 132.466 196.533 132.87 195.737C133.274 194.944 132.954 193.971 132.161 193.57L126.403 190.645C125.61 190.241 124.637 190.558 124.236 191.351Z" fill="#F2CD13"/>
<path d="M326.888 356.24C327.485 353.756 328.083 351.261 328.671 348.765C326.684 313.098 308.693 254.643 309.124 218.208C309.555 181.771 315.328 154.705 325.573 119.734C325.769 119.107 325.925 118.485 326.045 117.884C335.527 118.921 345.191 118.259 354.443 115.94C354.509 115.926 354.579 115.908 354.645 115.891C350.882 146.24 351.234 176.815 353.644 207.12C354.913 223.042 356.811 239.145 361.654 254.286C362.971 258.411 364.507 262.457 366.308 266.417C370.007 274.551 375.423 282.714 383.824 285.686C385.324 286.261 387.061 285.753 388.329 284.742C392.741 290.276 400.381 292.684 407.413 291.807C414.529 290.912 421.017 287.043 426.184 282.066L426.615 281.965C426.631 282.075 426.656 282.185 426.681 282.296C427.063 283.862 428.576 285.268 430.152 284.954L430.318 285.003C449.602 274.046 457.445 261.784 466.67 246.555C475.894 231.33 482.519 214.69 488.685 197.987C497.674 173.622 505.782 148.936 512.968 123.982L513.099 124.019C523.823 127.177 533.606 129.568 544.677 129.539C544.742 129.216 544.811 128.891 544.894 128.568C544.655 130.721 540.05 232.945 516.64 278.023C508.891 292.946 499.22 306.89 489.655 320.837C476.019 340.713 462.59 360.609 455.204 383.405L455.203 383.454C455.203 383.454 455.193 383.457 455.187 383.46L442.905 423.427L418.891 423.473L310.718 423.622L310.72 423.468C316.108 401.058 321.5 378.652 326.888 356.24Z" fill="#278B96"/>
<path d="M539.488 104.029C539.219 104.029 538.95 104.029 538.682 104.029C538.678 104.395 538.391 104.252 538.204 104.301C538.023 104.354 537.853 104.445 537.628 104.542C537.628 104.111 537.628 103.721 537.628 103.287C537.362 103.366 537.14 103.407 536.94 103.495C536.699 103.604 536.896 104.137 536.377 104.052C536.177 104.02 535.933 104.246 535.68 104.372C535.909 104.612 536.087 104.8 536.296 105.019C536.23 105.298 536.159 105.597 536.056 106.036C536.588 105.729 537.015 105.48 537.424 105.239C537.884 105.301 538.369 105.365 538.861 105.43C539.48 105.819 539.183 106.291 538.928 106.781C539.22 106.992 539.51 107.2 539.845 107.44C539.715 107.64 539.625 107.78 539.564 107.871C539.766 108.372 539.965 108.862 540.194 109.43C540.374 109.333 540.582 109.216 540.779 109.108C540.522 108.604 540.286 108.138 540.042 107.66C540.208 107.481 540.382 107.297 540.613 107.05C540.401 106.892 540.189 106.734 539.946 106.552C540.059 106.356 540.142 106.212 540.224 106.069C540.096 105.717 539.959 105.339 539.841 105.014C539.905 104.767 539.965 104.533 540.026 104.298C539.822 104.257 539.511 104.43 539.488 104.029Z" fill="#F57D77"/>
<path d="M328.984 99.7294C329.071 99.9996 329.157 100.267 329.254 100.57C329.764 100.172 330.178 99.8452 330.638 99.483C330.54 99.3227 330.434 99.1506 330.282 98.9012C330.663 98.4054 331.201 97.9661 331.404 97.31C331.169 97.2506 330.933 97.1883 330.638 97.1141C330.628 97.215 330.643 97.3902 330.592 97.5416C330.431 98.0255 330.159 98.2629 329.737 98.0848C329.43 97.9542 329.251 98.0759 329.005 98.0908C328.736 98.1086 328.454 97.9364 328.178 97.8473C328.125 97.9601 328.072 98.0729 328.002 98.2214C328.065 98.4678 328.141 98.7646 328.229 99.109C327.81 99.2396 327.457 99.3495 327.102 99.4593C327.02 99.6018 326.938 99.7413 326.858 99.8779C326.932 99.9669 327.01 100.059 327.143 100.216C326.598 100.216 326.118 100.216 325.709 100.216C325.306 100.525 325.064 100.816 325.329 101.368C325.694 101.282 326.081 101.193 326.51 101.092C326.547 101.35 326.583 101.597 326.62 101.855C326.777 101.855 326.898 101.855 327.065 101.855C327.065 101.442 327.065 101.05 327.065 100.84C327.49 100.418 327.801 100.106 328.18 99.7294C328.358 99.7294 328.671 99.7294 328.984 99.7294C329.074 99.6404 329.164 99.5513 329.232 99.4741C329.21 99.204 329.21 98.9517 329.21 98.7171C329.014 98.6518 328.86 98.6014 328.433 98.4618C328.914 98.4143 329.119 98.3936 329.383 98.3668C329.593 98.5865 329.822 98.827 330.058 99.0734C329.768 99.2129 329.511 99.3376 329.232 99.4741C329.164 99.5513 329.074 99.6404 328.984 99.7294Z" fill="#F57D77"/>
<path d="M325.454 99.0465C324.998 98.8807 324.687 98.7683 324.325 98.6381C324.159 98.8955 323.984 99.1648 323.763 99.5051C323.656 99.2773 323.579 99.1145 323.493 98.9311C323.377 98.9399 323.256 98.9518 323.018 98.9725C323.119 99.2329 323.199 99.4371 323.27 99.6206C323.101 99.733 322.92 99.8573 322.753 99.9727C322.969 100.431 323.552 100.331 324.586 99.7655C324.744 99.9253 324.901 100.082 325.045 100.227C325.269 100.118 325.487 100.014 325.786 99.8721C325.672 99.591 325.554 99.298 325.454 99.0465Z" fill="#F57D77"/>
<path d="M335.598 99.4292C335.96 99.4174 336.214 99.4174 336.469 99.4174C336.632 98.849 336.069 98.772 335.913 98.4493C335.566 98.5589 335.23 98.6654 334.835 98.7898C334.959 99.0384 335.069 99.2575 335.193 99.5062C335.106 99.6276 335.014 99.7578 334.895 99.9266C335.145 100.081 335.392 100.234 335.711 100.433C335.623 100.667 335.516 100.951 335.328 101.448C335.853 101.244 336.173 101.117 336.505 100.986C336.505 100.693 336.505 100.43 336.505 100.172C336.22 99.968 335.932 99.7578 335.598 99.4292C335.717 99.4559 335.7 99.4736 335.682 99.4914C335.609 99.4292 335.536 99.3671 335.463 99.3019C335.491 99.2753 335.519 99.2457 335.547 99.219C335.61 99.293 335.673 99.3641 335.598 99.4292Z" fill="#F57D77"/>
<path d="M529.766 101.072C529.499 101.072 529.187 101.072 528.778 101.072C528.745 102.073 528.539 103.08 529.121 104.051C529.558 103.557 528.989 103.233 528.986 102.768C529.236 102.723 529.479 102.682 529.766 102.635C529.766 102.12 529.766 101.596 529.766 101.072Z" fill="#F57D77"/>
<path d="M540.027 104.299C540.16 104.299 540.294 104.299 540.479 104.299C540.523 104.534 540.569 104.78 540.623 105.064C540.913 105.064 541.212 105.064 541.65 105.064C541.555 104.924 541.486 104.821 541.399 104.692C541.465 104.622 541.549 104.528 541.664 104.402C541.394 104.223 541.126 104.047 540.858 103.871C540.922 103.807 540.985 103.745 541.126 103.605C540.949 103.558 540.808 103.552 540.703 103.487C540.567 103.402 540.459 103.27 540.332 103.15C540.128 103.288 539.996 103.376 539.871 103.461C539.78 103.388 539.69 103.314 539.489 103.153C539.489 103.522 539.489 103.777 539.489 104.03C539.693 104.071 540.004 103.898 540.027 104.299Z" fill="#F57D77"/>
<path d="M538.177 107.903C538.242 107.827 538.32 107.733 538.391 107.652C538.295 107.535 538.213 107.439 538.196 107.419C538.292 106.9 538.375 106.454 538.483 105.874C538.014 106.273 537.676 106.562 537.308 106.877C537.485 106.938 537.64 106.99 537.859 107.063C537.769 107.194 537.687 107.311 537.57 107.483C537.649 107.629 537.741 107.801 537.833 107.97C537.68 108.031 537.527 108.092 537.29 108.188C537.411 108.41 537.524 108.617 537.629 108.809C538.009 108.809 538.341 108.809 538.83 108.809C538.556 108.427 538.366 108.165 538.177 107.903Z" fill="#F57D77"/>
<path d="M323.16 101.119C323.06 100.83 323.007 100.677 322.943 100.491C322.794 100.55 322.636 100.562 322.571 100.644C322.364 100.91 322.191 101.199 321.903 101.632C322.319 101.511 322.605 101.428 323 101.313C323.33 101.484 323.733 101.691 324.296 101.983C323.967 102.186 323.75 102.319 323.482 102.484C323.732 102.67 323.871 102.773 324.033 102.894C324.862 102.59 324.028 101.599 324.816 101.119C324.166 101.119 323.688 101.119 323.16 101.119Z" fill="#F57D77"/>
<path d="M333.557 98.1194C333.337 97.2051 333.118 97.119 332.213 97.5821C332.388 97.7186 332.564 97.8582 332.755 98.0096C332.411 98.1639 332.074 98.3153 331.671 98.4994C331.683 98.7072 331.697 98.9476 331.716 99.292C332.044 99.1347 332.263 99.0308 332.482 98.9269C332.619 98.3628 333.208 98.4014 333.557 98.1194Z" fill="#F57D77"/>
<path d="M531.4 103.761C530.935 103.761 530.581 103.761 530.209 103.761C529.912 104.069 529.606 104.388 529.329 104.675C529.439 104.83 529.561 105.003 529.669 105.155C530.14 104.891 530.528 104.675 531.13 104.341C531.14 104.32 531.263 104.057 531.4 103.761Z" fill="#F57D77"/>
<path d="M532.386 104.126C532.316 104.401 532.258 104.632 532.21 104.823C532.395 104.957 531.879 105.209 531.96 105.478C532.273 105.686 532.582 105.891 532.982 106.157C533.054 106.063 533.17 105.911 533.285 105.756C533.223 105.694 533.161 105.633 533.08 105.551C533.161 105.393 533.246 105.226 533.319 105.083C533.062 104.82 532.828 104.58 532.386 104.126Z" fill="#F57D77"/>
<path d="M328.954 101.554C329.499 101.736 329.998 101.904 330.531 102.084C330.599 102.016 330.723 101.892 330.833 101.78C330.833 101.556 330.833 101.35 330.833 101.053C330.516 101.106 330.245 101.153 329.833 101.221C329.716 101.126 329.476 100.935 329.106 100.637C329.036 101.061 328.991 101.332 328.954 101.554Z" fill="#F57D77"/>
<path d="M327.409 97.97C327.178 97.8068 326.976 97.6614 326.674 97.4449C326.507 98.1569 326.367 98.7502 326.2 99.4622C326.506 99.4622 326.673 99.477 326.836 99.4562C326.929 99.4444 327.076 99.388 327.094 99.3257C327.205 98.9222 327.287 98.5128 327.409 97.97Z" fill="#F57D77"/>
<path d="M534.112 103.227C534.049 103.458 533.986 103.687 533.932 103.886C534.334 104.2 534.782 104.549 535.358 105C535.401 104.578 535.428 104.305 535.456 104.033C535.366 103.945 535.276 103.854 535.187 103.763C535.047 103.587 534.907 103.408 534.764 103.227C534.552 103.227 534.332 103.227 534.112 103.227Z" fill="#F57D77"/>
<path d="M332.616 98.9216C332.362 99.3297 332.146 99.6728 331.899 100.072C331.974 100.232 332.064 100.415 332.141 100.604C332.203 100.755 332.249 100.912 332.306 101.078C332.451 101.06 332.572 101.042 332.797 101.013C332.676 100.708 332.576 100.457 332.447 100.128C332.622 100.054 332.798 99.9774 332.993 99.8946C332.993 99.6048 332.993 99.309 332.993 98.9541C332.81 98.9393 332.645 98.9246 332.616 98.9216Z" fill="#F57D77"/>
<path d="M542.337 106.93C543.033 107.212 543.614 106.277 544.219 107.002C544.37 106.798 544.516 106.6 544.72 106.324C544.17 106.108 543.756 106.09 543.382 106.408C543.238 106.312 543.102 106.225 542.882 106.082C542.682 106.394 542.512 106.659 542.337 106.93Z" fill="#F57D77"/>
<path d="M324.996 103.528C325.28 103.625 325.586 103.728 325.895 103.833C326.023 103.419 326.119 103.108 326.246 102.694C326.026 102.594 325.724 102.462 325.372 102.303C325.245 102.718 325.151 103.023 324.996 103.528Z" fill="#F57D77"/>
<path d="M536.205 106.892C535.534 107.209 535.079 107.526 535.212 108.303C535.465 108.303 535.674 108.303 535.766 108.303C536.045 108.044 536.266 107.837 536.545 107.578C536.47 107.427 536.363 107.212 536.205 106.892Z" fill="#F57D77"/>
<path d="M321.832 98.9287C322.619 98.9257 322.47 98.1452 322.888 97.8336C322.703 97.6317 322.586 97.5041 322.479 97.3854C322.155 97.237 321.77 98.1541 321.832 98.9287Z" fill="#F57D77"/>
<path d="M535.099 105.009C534.846 105.152 534.671 105.251 534.491 105.354C534.348 105.21 534.191 105.053 533.936 104.799C533.844 104.98 533.751 105.161 533.608 105.438C533.653 105.506 533.793 105.71 533.936 105.92C534.354 105.795 534.744 105.681 535.194 105.546C535.169 105.4 535.142 105.251 535.099 105.009Z" fill="#F57D77"/>
<path d="M542.944 105.035C543.187 104.874 543.495 104.669 543.862 104.429C543.203 104.297 542.63 104.18 541.949 104.046C541.981 104.224 541.953 104.467 542.057 104.555C542.275 104.736 542.563 104.836 542.944 105.035Z" fill="#F57D77"/>
<path d="M327.335 103.561C327.53 103.411 327.724 103.264 327.981 103.067C327.848 102.688 327.713 102.308 327.571 101.906C326.783 102.27 327.252 102.923 327.061 103.408C327.153 103.458 327.244 103.508 327.335 103.561Z" fill="#F57D77"/>
<path d="M328.145 97.8556C328.331 97.5167 328.507 97.1987 328.695 96.8599C328.139 96.5508 327.8 97.062 327.335 97.1838C327.476 97.6475 327.699 97.915 328.145 97.8556Z" fill="#F57D77"/>
<path d="M333.555 98.1138C333.645 98.3837 333.734 98.6535 333.824 98.9204C334.544 98.7247 334.544 98.7247 334.586 97.9359C334.181 97.6394 333.887 97.9863 333.555 98.1138Z" fill="#F57D77"/>
<path d="M321.715 100.243C322.018 100.243 322.226 100.243 322.477 100.243C322.63 99.7051 322.502 99.3386 321.801 99.1405C321.771 99.5219 321.744 99.8648 321.715 100.243Z" fill="#F57D77"/>
<path d="M535.183 106.59C535.183 106.482 535.183 106.394 535.183 106.187C534.939 106.252 534.727 106.307 534.452 106.377C534.365 106.327 534.195 106.225 533.91 106.053C533.877 106.412 533.855 106.651 533.834 106.875C533.962 106.925 534.052 107 534.112 106.98C534.477 106.861 534.835 106.718 535.183 106.59Z" fill="#F57D77"/>
<path d="M331.943 102.231C332.315 102.116 332.666 102.01 333.083 101.884C332.363 101.189 332.36 101.177 331.68 101.739C331.768 101.834 331.86 101.922 331.94 102.022C331.961 102.048 331.943 102.107 331.943 102.231Z" fill="#F57D77"/>
<path d="M542.445 106.991C542.312 106.991 542.18 106.991 541.977 106.991C541.977 107.581 541.977 108.178 541.977 108.82C542.057 108.838 542.178 108.867 542.272 108.887C542.811 108.628 541.89 108.195 542.422 107.954C541.935 107.622 542.287 107.308 542.445 106.991Z" fill="#F57D77"/>
<path d="M332 101.896C331.532 102.246 331.308 102.413 330.993 102.651C331.268 102.91 331.469 103.101 331.833 103.445C331.894 102.878 331.933 102.516 332 101.896Z" fill="#F57D77"/>
<path d="M327.301 101.521C327.953 101.727 328.296 101.553 328.47 101.011C327.805 100.778 327.805 100.778 327.301 101.521Z" fill="#F57D77"/>
<path d="M547.319 106.173C546.84 106.56 546.628 106.729 546.322 106.977C546.615 107.233 546.818 107.414 547.198 107.746C547.24 107.201 547.266 106.86 547.319 106.173Z" fill="#F57D77"/>
<path d="M530.178 102.924C530.493 102.739 530.807 102.557 531.127 102.368C530.992 102.095 530.874 101.854 530.709 101.521C530.455 101.989 530.238 102.389 530.021 102.789C530.073 102.833 530.125 102.88 530.178 102.924Z" fill="#F57D77"/>
<path d="M328.828 104.256C328.666 103.84 328.539 103.514 328.314 102.934C328.089 103.514 327.963 103.84 327.801 104.256C328.164 104.256 328.37 104.256 328.828 104.256Z" fill="#F57D77"/>
<path d="M333.784 99.0164C333.591 99.1199 333.397 99.2263 333.13 99.3712C333.358 99.6285 333.479 99.803 333.638 99.9301C333.72 99.9952 333.869 99.9744 333.989 99.9922C334.209 99.5723 334.155 99.2234 333.784 99.0164Z" fill="#F57D77"/>
<path d="M532.558 102.852C532.399 103.175 532.294 103.389 532.188 103.603C532.656 103.946 532.968 103.773 533.296 103.327C533.056 103.172 532.81 103.013 532.558 102.852Z" fill="#F57D77"/>
<path d="M333.106 103.504C333.469 103.774 333.688 103.938 334.028 104.19C334.063 103.806 334.084 103.568 334.103 103.369C333.942 103.208 333.82 103.084 333.748 103.014C333.583 103.14 333.417 103.266 333.106 103.504Z" fill="#F57D77"/>
<path d="M323.523 103.756C323.16 103.487 322.94 103.322 322.601 103.07C322.566 103.454 322.545 103.692 322.526 103.891C322.687 104.053 322.809 104.176 322.88 104.246C323.046 104.12 323.212 103.994 323.523 103.756Z" fill="#F57D77"/>
<path d="M333.272 105.849C332.752 105.425 332.48 105.203 332.25 105.016C332.25 105.195 332.25 105.489 332.25 105.849C332.484 105.849 332.752 105.849 333.272 105.849Z" fill="#F57D77"/>
<path d="M323.032 97.748C323.187 97.8074 323.343 97.8667 323.499 97.926C323.463 97.9734 323.427 98.0238 323.392 98.0713C323.895 98.0713 324.398 98.0713 324.901 98.0713C324.907 98.0298 324.913 97.9853 324.919 97.9438C324.326 97.8162 323.733 97.6857 323.14 97.5582C323.104 97.6205 323.068 97.6828 323.032 97.748Z" fill="#F57D77"/>
<path d="M531.963 101.879C531.941 102.338 531.906 102.805 532.5 102.955C532.594 102.785 532.687 102.614 532.783 102.441C532.661 102.02 532.396 101.829 531.963 101.879Z" fill="#F57D77"/>
<path d="M328.985 96.8428C328.985 97.0834 328.985 97.2586 328.985 97.523C329.214 97.5438 329.451 97.5675 329.745 97.5942C329.745 97.3299 329.745 97.122 329.745 96.8428C329.523 96.8428 329.254 96.8428 328.985 96.8428Z" fill="#F57D77"/>
<path d="M553.596 106.098C553.349 105.938 553.174 105.824 552.934 105.67C552.832 105.941 552.71 106.264 552.567 106.649C553.143 106.594 553.143 106.594 553.596 106.098Z" fill="#F57D77"/>
<path d="M326.626 105.272C326.626 105.523 326.626 105.844 326.626 106.291C326.927 106.113 327.129 105.993 327.267 105.912C327.033 105.678 326.807 105.453 326.626 105.272Z" fill="#F57D77"/>
<path d="M529.81 101.072C530.054 101.072 530.299 101.072 530.616 101.072C530.616 100.854 530.616 100.695 530.616 100.535C530.408 100.429 530.201 100.323 529.886 100.164C529.856 100.529 529.833 100.801 529.81 101.072Z" fill="#F57D77"/>
<path d="M538.681 104.043C538.681 103.808 538.669 103.585 538.685 103.363C538.695 103.225 539.033 103.213 538.83 102.952C538.173 102.99 538.1 103.409 538.16 103.996C538.345 104.014 538.512 104.028 538.681 104.043Z" fill="#F57D77"/>
<path d="M333.459 101.564C333.833 101.564 334.069 101.564 334.439 101.564C334.271 101.249 334.146 101.016 333.967 100.68C333.778 101.01 333.646 101.24 333.459 101.564Z" fill="#F57D77"/>
<path d="M542.249 106.078C541.999 105.88 541.808 105.728 541.486 105.471C541.428 105.88 541.391 106.134 541.328 106.583C541.737 106.358 541.972 106.23 542.249 106.078Z" fill="#F57D77"/>
<path d="M337.073 97.8943C337.073 98.0573 337.073 98.1788 337.073 98.3418C337.334 98.3418 337.573 98.3418 337.834 98.3418C337.834 98.1788 337.834 98.0573 337.834 97.8943C337.573 97.8943 337.334 97.8943 337.073 97.8943Z" fill="#F57D77"/>
<path d="M336.335 103.45C336.196 103.696 336.066 103.93 335.934 104.162C336.446 104.475 336.557 104.091 336.766 103.88C336.621 103.737 336.5 103.614 336.335 103.45Z" fill="#F57D77"/>
<path d="M328.987 101.613C328.853 101.613 328.72 101.613 328.576 101.613C328.458 101.851 328.339 102.095 328.172 102.436C328.772 102.383 329.011 102.13 328.987 101.613Z" fill="#F57D77"/>
<path d="M550.266 108.381C550.266 108.538 550.266 108.657 550.266 108.823C550.521 108.823 550.76 108.823 551.044 108.823C551.068 108.073 550.598 108.404 550.266 108.381Z" fill="#F57D77"/>
<path d="M337.093 104.008C337.257 104.008 337.377 104.008 337.541 104.008C337.541 103.747 337.541 103.507 337.541 103.246C337.377 103.246 337.257 103.246 337.093 103.246C337.093 103.507 337.093 103.747 337.093 104.008Z" fill="#F57D77"/>
<path d="M529.318 95.7217C529.565 95.5158 529.693 95.4084 529.88 95.2533C529.598 95.1011 529.366 94.9758 528.847 94.6984C529.087 95.2205 529.194 95.4532 529.318 95.7217Z" fill="#F57D77"/>
<path d="M530.06 105.689C530.096 105.891 530.122 106.042 530.17 106.311C530.466 106.098 530.674 105.946 531.027 105.689C530.599 105.689 530.363 105.689 530.06 105.689Z" fill="#F57D77"/>
<path d="M329.983 103.304C330.31 102.846 330.431 102.678 330.59 102.455C330.356 102.44 330.118 102.426 329.754 102.402C329.818 102.652 329.859 102.816 329.983 103.304Z" fill="#F57D77"/>
<path d="M339.871 98.6481C339.703 98.8286 339.592 98.9499 339.498 99.0505C339.635 99.2073 339.751 99.3405 339.866 99.4707C340.008 99.3287 340.135 99.2014 340.271 99.0653C340.153 98.944 340.034 98.8197 339.871 98.6481Z" fill="#F57D77"/>
<path d="M533.125 107.984C532.828 107.766 532.622 107.612 532.319 107.388C532.524 107.952 532.524 107.952 533.125 107.984Z" fill="#F57D77"/>
<path d="M536.252 106.999C536.424 106.984 536.585 106.973 536.763 106.958C536.776 106.798 536.786 106.682 536.801 106.501C536.639 106.484 536.492 106.466 536.295 106.446C536.278 106.664 536.265 106.827 536.252 106.999Z" fill="#F57D77"/>
<path d="M329.843 104.851C330.127 104.831 330.362 104.813 330.714 104.79C330.48 104.588 330.354 104.477 330.142 104.292C330.064 104.439 329.97 104.614 329.843 104.851Z" fill="#F57D77"/>
<path d="M321.854 102.228C322.081 102.539 322.233 102.748 322.448 103.042C322.423 102.457 322.423 102.457 321.854 102.228Z" fill="#F57D77"/>
<path d="M531.962 101.751C531.726 101.628 531.49 101.504 531.225 101.366C531.195 101.481 531.165 101.595 531.112 101.801C531.413 101.842 531.682 101.875 531.952 101.91C531.955 101.857 531.959 101.804 531.962 101.751Z" fill="#F57D77"/>
<path d="M528.781 106.541C528.995 106.325 529.121 106.199 529.262 106.056C529.144 105.907 529.025 105.759 528.781 105.452C528.781 105.942 528.781 106.196 528.781 106.541Z" fill="#F57D77"/>
<path d="M535.455 104.035C535.835 103.962 535.817 103.716 535.599 103.534C535.457 103.417 535.193 103.449 535.186 103.766C535.276 103.854 535.365 103.944 535.455 104.035Z" fill="#F57D77"/>
<path d="M335.544 97.9888C335.687 97.695 335.775 97.517 335.829 97.4072C335.492 97.336 335.492 97.336 335.544 97.9888Z" fill="#F57D77"/>
<path d="M324.93 106.491C324.93 106.244 324.93 106.127 324.93 106.048C324.787 106.142 324.622 106.252 324.408 106.392C324.577 106.424 324.696 106.448 324.93 106.491Z" fill="#F57D77"/>
<path d="M337.966 100.192C338.099 100.106 338.265 100.003 338.534 99.8347C337.882 99.7845 337.882 99.7845 337.966 100.192Z" fill="#F57D77"/>
<path d="M545.798 104.762C545.668 104.969 545.565 105.136 545.441 105.334C545.783 105.393 546.104 105.477 545.798 104.762Z" fill="#F57D77"/>
<path d="M324.043 100.409C324.283 100.53 324.462 100.621 324.641 100.71C324.685 100.45 324.819 100.102 324.043 100.409Z" fill="#F57D77"/>
<path d="M325.807 101.832C325.956 101.832 326.105 101.832 326.254 101.832C326.259 101.788 326.266 101.744 326.271 101.7C326.121 101.667 325.972 101.635 325.822 101.603C325.817 101.679 325.812 101.756 325.807 101.832Z" fill="#F57D77"/>
<path d="M548.944 106.493C548.944 106.642 548.944 106.79 548.944 106.939C548.987 106.944 549.03 106.953 549.072 106.959C549.107 106.813 549.142 106.668 549.176 106.522C549.099 106.514 549.022 106.502 548.944 106.493Z" fill="#F57D77"/>
<path d="M338.462 100.537C338.462 100.717 338.462 100.897 338.462 101.077C338.506 101.077 338.551 101.077 338.596 101.077C338.596 100.897 338.596 100.717 338.596 100.537C338.551 100.537 338.506 100.537 338.462 100.537Z" fill="#F57D77"/>
<path d="M528.525 106.442C528.51 106.614 528.496 106.786 528.481 106.958C528.539 106.966 528.597 106.972 528.655 106.981C528.689 106.803 528.723 106.629 528.757 106.454C528.68 106.451 528.602 106.445 528.525 106.442Z" fill="#F57D77"/>
<path d="M534.69 107.642C534.597 107.313 534.551 107.154 534.505 106.991C534.463 107.116 534.407 107.238 534.389 107.369C534.383 107.407 534.484 107.459 534.69 107.642Z" fill="#F57D77"/>
<path d="M554.858 103.544C554.858 103.693 554.858 103.839 554.858 103.989C554.902 103.995 554.946 104 554.991 104.006C555.023 103.857 555.056 103.708 555.088 103.558C555.012 103.552 554.935 103.549 554.858 103.544Z" fill="#F57D77"/>
<path d="M332.211 97.5796C332.189 97.1759 331.878 97.351 331.674 97.3095C331.697 97.7102 332.008 97.538 332.211 97.5796Z" fill="#F57D77"/>
<path d="M341.083 97.3782C340.904 97.3782 340.725 97.3782 340.545 97.3782C340.545 97.4227 340.545 97.4672 340.545 97.5117C340.725 97.5117 340.904 97.5117 341.083 97.5117C341.083 97.4672 341.083 97.4227 341.083 97.3782Z" fill="#F57D77"/>
<path d="M331.358 99.418C331.358 99.2701 331.358 99.1193 331.358 98.9714C331.316 98.9655 331.273 98.9566 331.231 98.9507C331.196 99.0986 331.161 99.2435 331.126 99.3914C331.203 99.4002 331.281 99.4091 331.358 99.418Z" fill="#F57D77"/>
<path d="M540.518 110.174C540.518 110.023 540.518 109.875 540.518 109.727C540.475 109.721 540.432 109.712 540.39 109.707C540.355 109.852 540.32 109.997 540.285 110.145C540.363 110.154 540.44 110.163 540.518 110.174Z" fill="#F57D77"/>
<path d="M537.919 109.631C538.068 109.631 538.216 109.631 538.365 109.631C538.372 109.59 538.379 109.547 538.386 109.503C538.24 109.468 538.094 109.433 537.948 109.398C537.939 109.477 537.929 109.555 537.919 109.631Z" fill="#F57D77"/>
<path d="M331.675 97.3135C331.615 97.2393 331.555 97.165 331.494 97.0908C331.465 97.165 331.436 97.2393 331.406 97.3135C331.496 97.3135 331.585 97.3135 331.675 97.3135Z" fill="#F57D77"/>
<path d="M530.885 100.539C530.825 100.462 530.765 100.389 530.705 100.315C530.675 100.389 530.645 100.462 530.616 100.539C530.705 100.539 530.795 100.539 530.885 100.539Z" fill="#F57D77"/>
<path d="M530.858 100.562C530.92 100.635 530.982 100.706 531.045 100.78C531.073 100.753 531.101 100.724 531.13 100.697C531.057 100.632 530.984 100.57 530.91 100.509C530.893 100.526 530.875 100.544 530.858 100.562Z" fill="#F57D77"/>
<path d="M449.732 236.855C449.812 236.855 449.894 236.832 449.967 236.786C450.171 236.655 450.231 236.385 450.101 236.181C449.533 235.293 448.618 234.642 447.591 234.401C446.563 234.16 445.455 234.331 444.551 234.874C444.343 234.999 444.276 235.266 444.4 235.476C444.525 235.682 444.794 235.749 445.001 235.627C445.712 235.2 446.583 235.063 447.39 235.255C448.197 235.444 448.916 235.952 449.362 236.652C449.446 236.783 449.587 236.855 449.732 236.855Z" fill="#BF453F"/>
<path d="M386.932 236.333C387.149 236.333 387.337 236.173 387.366 235.952C387.397 235.711 387.228 235.49 386.988 235.461C385.566 235.275 383.906 234.377 383.403 232.791C382.829 230.984 383.986 229.134 384.51 228.422C385.026 227.725 385.647 227.074 386.248 226.447C386.8 225.869 387.371 225.27 387.876 224.622C388.525 223.789 389.109 222.816 389.66 221.648C389.763 221.43 389.669 221.168 389.451 221.064C389.231 220.962 388.971 221.055 388.867 221.273C388.344 222.383 387.793 223.301 387.185 224.085C386.707 224.698 386.152 225.279 385.615 225.84C384.995 226.487 384.354 227.158 383.805 227.905C382.529 229.636 382.078 231.513 382.568 233.056C383.104 234.749 384.836 236.065 386.875 236.33C386.894 236.333 386.913 236.333 386.932 236.333Z" fill="#BF453F"/>
<path d="M341.726 85.5522C341.919 85.5522 342.095 85.4248 342.148 85.2289C342.808 82.8072 343.51 80.4663 344.838 78.458C345.801 77 347.099 75.8311 348.493 75.1658C348.711 75.0601 348.804 74.799 348.699 74.5814C348.595 74.3638 348.333 74.2705 348.115 74.3731C346.58 75.1068 345.157 76.3876 344.107 77.973C342.708 80.0901 341.982 82.5056 341.303 84.9989C341.239 85.232 341.377 85.4745 341.61 85.5367C341.649 85.5491 341.688 85.5522 341.726 85.5522Z" fill="#BF453F"/>
<path d="M344.97 108.08C345.058 108.08 345.148 108.056 345.225 108.001C345.422 107.857 345.467 107.586 345.326 107.387C342.921 104.029 342.33 99.3684 343.821 95.5132C343.866 95.3972 343.859 95.266 343.801 95.1561C343.743 95.0431 343.64 94.9607 343.519 94.9302C341.317 94.3838 338.835 93.5932 337.112 91.9083C335.593 90.4217 334.616 87.7448 335.797 85.7088C336.182 85.0464 336.734 84.5977 337.312 84.4817C337.917 84.3596 338.588 84.5733 339.18 84.7625L348.617 87.7814C350.387 88.3491 352.217 88.9352 353.77 89.97C355.448 91.0872 356.548 92.6378 356.788 94.2251C356.824 94.4662 357.048 94.631 357.287 94.5944C357.526 94.5578 357.691 94.3349 357.655 94.0938C357.378 92.2623 356.139 90.4919 354.256 89.2404C352.601 88.1385 350.711 87.5341 348.883 86.9481L339.447 83.9292C338.787 83.7186 337.966 83.453 337.138 83.6209C336.315 83.7888 335.55 84.3901 335.039 85.2692C333.621 87.7112 334.7 90.7728 336.499 92.534C338.245 94.2434 340.642 95.0859 342.835 95.6628C341.459 99.6889 342.137 104.439 344.614 107.897C344.699 108.016 344.834 108.08 344.97 108.08Z" fill="#BF453F"/>
<path d="M351.748 88.8545C351.932 88.8545 352.102 88.7386 352.164 88.5555C352.669 87.039 353.442 85.6476 354.46 84.418C354.614 84.2318 354.588 83.9542 354.402 83.8016C354.215 83.646 353.939 83.6704 353.785 83.8596C352.697 85.1716 351.872 86.6606 351.332 88.2778C351.256 88.5066 351.38 88.7568 351.609 88.8331C351.655 88.8484 351.702 88.8545 351.748 88.8545Z" fill="#BF453F"/>
<path d="M342.588 99.3906C342.748 99.3906 342.902 99.3039 342.979 99.1514C343.089 98.9362 343.004 98.6731 342.788 98.5625C341.13 97.7164 339.995 95.9674 339.898 94.1078C339.886 93.8687 339.677 93.6803 339.438 93.6953C339.196 93.7072 339.011 93.9135 339.023 94.1557C339.136 96.3202 340.458 98.3562 342.39 99.3428C342.453 99.3757 342.521 99.3906 342.588 99.3906Z" fill="#BF453F"/>
<path d="M338.726 98.3555C339.504 98.3555 340.243 98.2064 340.882 97.9175C341.103 97.8181 341.201 97.5572 341.101 97.3366C341.002 97.1161 340.743 97.0198 340.522 97.1192C338.043 98.2374 335.019 96.6937 333.641 94.6187C332.323 92.637 331.82 89.9377 332.105 86.3656C332.297 83.9459 332.762 81.5386 333.485 79.209C333.933 77.7708 334.497 76.4973 335.16 75.4225C335.287 75.2175 335.223 74.9473 335.017 74.8199C334.811 74.6926 334.541 74.7578 334.414 74.9628C333.713 76.0997 333.118 77.4416 332.649 78.9481C331.906 81.3398 331.429 83.8092 331.231 86.2942C330.931 90.0713 331.481 92.9507 332.912 95.1033C334.395 97.3366 336.694 98.3555 338.726 98.3555Z" fill="#BF453F"/>
<path d="M332.155 98.0254C333.228 98.0254 334.306 97.7908 335.324 97.2631C335.539 97.152 335.623 96.8865 335.511 96.6736C335.4 96.4575 335.135 96.3742 334.921 96.4853C332.26 97.8618 327.853 97.0748 325.372 93.3959C323.043 89.9392 323.186 85.5689 323.716 82.5104C323.975 81.0197 324.358 79.708 324.854 78.6061C324.953 78.3839 324.855 78.1247 324.634 78.0259C324.413 77.9271 324.154 78.0259 324.055 78.245C323.521 79.4302 323.129 80.7758 322.853 82.3622C322.295 85.5782 322.153 90.1892 324.646 93.8835C326.22 96.2199 329.173 98.0254 332.155 98.0254Z" fill="#BF453F"/>
<path d="M324.464 98.5469C326.084 98.5469 327.607 98.0234 328.752 97.0181C328.934 96.8575 328.952 96.5809 328.792 96.3995C328.632 96.218 328.356 96.2002 328.174 96.3608C326.638 97.7081 324.288 98.0442 322.041 97.2382C321.813 97.1579 321.562 97.2739 321.48 97.5029C321.399 97.7319 321.517 97.9817 321.745 98.0621C322.649 98.3862 323.571 98.5469 324.464 98.5469Z" fill="#BF453F"/>
<path d="M326.399 129.509C327.655 129.486 328.848 129.474 330.012 129.462C335.342 129.41 339.945 129.366 347.145 128.111L346.919 126.819C339.825 128.053 335.272 128.097 329.999 128.149C328.831 128.158 327.633 128.17 326.373 128.196L326.399 129.509Z" fill="#323B6E"/>
<path d="M525.598 111.326C525.777 111.326 525.945 111.214 526.01 111.036C527.546 106.842 527.345 102.023 525.501 97.9525C527.524 98.4843 529.802 99.0554 531.998 98.4722C533.51 98.0734 534.904 96.8859 535.549 95.4506C536.048 94.3386 536.051 93.1874 535.558 92.2114C534.538 90.1869 532.038 89.6733 529.728 89.4406L521.698 88.6187C521.029 88.5523 520.264 88.4858 519.514 88.4767C519.272 88.4767 519.076 88.6731 519.077 88.9148C519.078 89.1566 519.274 89.353 519.515 89.353C519.521 89.353 519.538 89.353 519.55 89.353C520.251 89.353 520.972 89.4255 521.608 89.492L529.639 90.3108C531.713 90.5223 533.946 90.9605 534.776 92.6073C535.253 93.55 535.025 94.4776 534.75 95.091C534.209 96.2967 533.04 97.2908 531.773 97.6262C529.75 98.161 527.631 97.605 525.582 97.0702C525.317 97.0007 525.055 96.9312 524.797 96.8647C524.629 96.8254 524.452 96.8828 524.345 97.0188C524.238 97.1548 524.221 97.3421 524.302 97.4932C526.419 101.518 526.75 106.467 525.187 110.737C525.104 110.964 525.221 111.214 525.448 111.299C525.498 111.317 525.549 111.326 525.598 111.326Z" fill="#BF453F"/>
<path d="M530.743 90.4512C530.937 90.4512 531.114 90.3223 531.166 90.1259C531.79 87.7782 532.788 85.5625 534.134 83.5371C534.654 82.7546 535.158 82.1101 535.676 81.5669C535.843 81.392 535.837 81.1158 535.661 80.947C535.487 80.7813 535.209 80.7875 535.042 80.9624C534.489 81.5424 533.953 82.2267 533.405 83.0522C532.006 85.1575 530.967 87.4621 530.319 89.8988C530.257 90.1351 530.396 90.3745 530.63 90.4358C530.668 90.445 530.706 90.4512 530.743 90.4512Z" fill="#BF453F"/>
<path d="M535.836 104.201C537.056 104.201 538.247 103.837 539.168 103.131C539.36 102.983 539.396 102.707 539.249 102.515C539.101 102.322 538.826 102.289 538.635 102.435C537.323 103.442 535.258 103.605 533.612 102.835C531.933 102.046 530.533 100.404 529.669 98.211C529.58 97.9857 529.327 97.8761 529.101 97.965C528.876 98.0539 528.765 98.3088 528.854 98.5341C529.8 100.935 531.357 102.743 533.239 103.626C534.061 104.011 534.956 104.201 535.836 104.201Z" fill="#BF453F"/>
<path d="M545.815 105.333C546.055 105.333 546.251 105.14 546.253 104.901C546.256 104.659 546.061 104.46 545.82 104.457C543.375 104.433 540.687 104.166 539.291 102.37C537.832 100.49 538.376 97.671 538.912 95.7121C539.772 92.5716 540.953 89.5014 542.423 86.5905C542.957 85.5314 543.611 84.3377 544.609 83.5663C544.924 83.3215 545.279 83.1225 545.663 82.9725C545.888 82.8837 546 82.6297 545.912 82.4062C545.824 82.1797 545.57 82.0695 545.344 82.1552C544.883 82.3358 544.455 82.5777 544.073 82.8715C542.93 83.7561 542.218 85.0509 541.641 86.1956C540.145 89.1586 538.943 92.2838 538.067 95.4825C537.481 97.619 536.899 100.717 538.599 102.905C540.223 104.999 543.157 105.308 545.811 105.333C545.812 105.333 545.814 105.333 545.815 105.333Z" fill="#BF453F"/>
<path d="M549.346 107.198C550.153 107.198 550.955 107.025 551.653 106.683C553.623 105.719 555.152 103.614 555.957 100.763C556.022 100.53 555.887 100.287 555.654 100.221C555.421 100.157 555.179 100.291 555.113 100.524C554.687 102.036 553.62 104.744 551.268 105.895C550.192 106.422 548.811 106.465 547.664 106.007C546.759 105.644 546.099 105.007 545.804 104.211C545.496 103.378 545.562 102.432 545.679 101.533C546.236 97.2731 547.933 93.2379 550.584 89.86C551.072 89.2389 551.736 88.4755 552.539 88.0877C552.756 87.9817 552.848 87.7212 552.743 87.5031C552.638 87.2849 552.376 87.1941 552.158 87.2971C551.193 87.7636 550.442 88.624 549.895 89.3177C547.146 92.8198 545.388 97.0035 544.81 101.417C544.678 102.429 544.608 103.505 544.983 104.514C545.364 105.547 546.201 106.365 547.339 106.819C547.969 107.071 548.659 107.198 549.346 107.198Z" fill="#BF453F"/>
<path d="M526.3 101.853C526.309 101.853 526.318 101.853 526.327 101.85C527.776 101.764 529.161 101.102 530.127 100.035C530.289 99.8546 530.276 99.5797 530.096 99.4172C529.917 99.2546 529.64 99.2694 529.477 99.4468C528.664 100.345 527.497 100.904 526.275 100.978C526.033 100.99 525.849 101.199 525.863 101.439C525.877 101.672 526.07 101.853 526.3 101.853Z" fill="#BF453F"/>
<path d="M407.542 299.374C409.365 299.374 411.187 299.217 412.978 298.813C417.167 297.866 420.85 295.661 424.412 293.532L423.736 292.402C420.264 294.482 416.672 296.632 412.688 297.532C408.451 298.491 403.938 297.965 399.678 297.349L399.489 298.648C402.11 299.028 404.827 299.374 407.542 299.374Z" fill="#323B6E"/>
<path d="M530.863 144.743L531.077 143.445C526.031 142.614 521.086 140.714 516.775 137.954L516.067 139.061C520.526 141.917 525.642 143.88 530.863 144.743Z" fill="#323B6E"/>
<path d="M451.083 424.103L516.651 424.086L516.65 422.77L451.083 422.787L451.083 424.103Z" fill="#323B6E"/>
<path d="M42.5872 424.213L418.889 424.112L418.888 422.796L42.5872 422.9V424.213Z" fill="#323B6E"/>
<mask id="path-131-inside-1" fill="white">
<path d="M418.539 435.204C418.915 436.831 419.322 438.472 419.764 440.131L419.819 440.331L448.062 440.375C449.039 438.856 449.926 437.092 450.731 435.161C452.379 431.227 453.687 426.588 454.721 421.893C455.007 420.618 455.271 419.334 455.513 418.062C456.341 413.716 456.953 409.472 457.388 405.849C457.605 404.057 457.781 402.412 457.919 400.983C458.261 397.491 458.386 395.286 458.386 395.286L454.851 395.185L413.906 394.026C413.906 394.026 413.33 412.792 418.539 435.204Z"/>
</mask>
<path d="M418.539 435.204C418.915 436.831 419.322 438.472 419.764 440.131L419.819 440.331L448.062 440.375C449.039 438.856 449.926 437.092 450.731 435.161C452.379 431.227 453.687 426.588 454.721 421.893C455.007 420.618 455.271 419.334 455.513 418.062C456.341 413.716 456.953 409.472 457.388 405.849C457.605 404.057 457.781 402.412 457.919 400.983C458.261 397.491 458.386 395.286 458.386 395.286L454.851 395.185L413.906 394.026C413.906 394.026 413.33 412.792 418.539 435.204Z" fill="white"/>
<path d="M419.764 440.131L419.281 440.26L419.282 440.262L419.764 440.131ZM419.819 440.331L419.336 440.463L419.436 440.831L419.818 440.831L419.819 440.331ZM448.062 440.375L448.062 440.875L448.335 440.875L448.483 440.645L448.062 440.375ZM450.731 435.161L450.27 434.967L450.27 434.968L450.731 435.161ZM454.721 421.893L454.233 421.784L454.233 421.786L454.721 421.893ZM455.513 418.062L455.022 417.968L455.021 417.968L455.513 418.062ZM457.388 405.849L456.891 405.789L456.891 405.789L457.388 405.849ZM457.919 400.983L457.422 400.934L457.422 400.935L457.919 400.983ZM458.386 395.286L458.885 395.315L458.914 394.801L458.4 394.787L458.386 395.286ZM454.851 395.185L454.866 394.685L454.865 394.685L454.851 395.185ZM413.906 394.026L413.92 393.526L413.422 393.512L413.407 394.01L413.906 394.026ZM418.052 435.317C418.429 436.949 418.838 438.595 419.281 440.26L420.247 440.002C419.807 438.349 419.401 436.713 419.026 435.091L418.052 435.317ZM419.282 440.262L419.336 440.463L420.301 440.2L420.246 440L419.282 440.262ZM419.818 440.831L448.062 440.875L448.063 439.875L419.819 439.831L419.818 440.831ZM448.483 440.645C449.479 439.095 450.379 437.304 451.193 435.353L450.27 434.968C449.472 436.881 448.598 438.616 447.642 440.105L448.483 440.645ZM451.193 435.354C452.856 431.382 454.172 426.711 455.209 422.001L454.233 421.786C453.203 426.465 451.902 431.072 450.27 434.967L451.193 435.354ZM455.209 422.003C455.496 420.722 455.761 419.432 456.004 418.155L455.021 417.968C454.78 419.236 454.517 420.514 454.233 421.784L455.209 422.003ZM456.004 418.155C456.835 413.796 457.449 409.54 457.884 405.909L456.891 405.789C456.458 409.403 455.847 413.636 455.022 417.968L456.004 418.155ZM457.884 405.909C458.102 404.113 458.278 402.464 458.417 401.031L457.422 400.935C457.283 402.36 457.108 404.001 456.891 405.789L457.884 405.909ZM458.417 401.032C458.588 399.282 458.705 397.854 458.779 396.863C458.816 396.367 458.843 395.981 458.86 395.718C458.868 395.587 458.875 395.486 458.879 395.418C458.881 395.384 458.882 395.359 458.883 395.341C458.884 395.333 458.884 395.326 458.885 395.322C458.885 395.319 458.885 395.318 458.885 395.317C458.885 395.316 458.885 395.316 458.885 395.315C458.885 395.315 458.885 395.315 458.885 395.315C458.885 395.315 458.885 395.315 458.885 395.315C458.885 395.315 458.885 395.315 458.386 395.286C457.887 395.258 457.887 395.258 457.887 395.258C457.887 395.258 457.887 395.258 457.887 395.258C457.887 395.258 457.887 395.258 457.887 395.258C457.887 395.259 457.886 395.259 457.886 395.259C457.886 395.26 457.886 395.262 457.886 395.264C457.886 395.268 457.886 395.274 457.885 395.283C457.884 395.299 457.883 395.324 457.881 395.358C457.877 395.424 457.87 395.523 457.862 395.653C457.845 395.913 457.819 396.296 457.782 396.788C457.708 397.772 457.592 399.193 457.422 400.934L458.417 401.032ZM458.4 394.787L454.866 394.685L454.837 395.685L458.371 395.786L458.4 394.787ZM454.865 394.685L413.92 393.526L413.892 394.525L454.837 395.685L454.865 394.685ZM413.906 394.026C413.407 394.01 413.406 394.01 413.406 394.011C413.406 394.011 413.406 394.011 413.406 394.011C413.406 394.012 413.406 394.013 413.406 394.014C413.406 394.017 413.406 394.02 413.406 394.025C413.406 394.035 413.405 394.049 413.405 394.067C413.404 394.104 413.403 394.159 413.401 394.232C413.398 394.376 413.395 394.59 413.392 394.871C413.386 395.431 413.384 396.256 413.398 397.315C413.425 399.432 413.516 402.487 413.77 406.244C414.279 413.756 415.44 424.079 418.052 435.317L419.026 435.091C416.429 423.917 415.274 413.65 414.768 406.177C414.515 402.44 414.425 399.403 414.398 397.302C414.384 396.251 414.386 395.434 414.392 394.881C414.394 394.604 414.398 394.393 414.401 394.252C414.402 394.182 414.404 394.128 414.405 394.093C414.405 394.075 414.405 394.062 414.406 394.053C414.406 394.049 414.406 394.046 414.406 394.044C414.406 394.043 414.406 394.042 414.406 394.042C414.406 394.041 414.406 394.041 414.406 394.041C414.406 394.041 414.406 394.041 413.906 394.026Z" fill="black" mask="url(#path-131-inside-1)"/>
<mask id="path-133-inside-2" fill="white">
<path d="M455.512 418.061C455.27 419.333 455.006 420.617 454.721 421.893C459.84 423.261 465.755 421.649 469.138 417.567C472.593 413.404 472.929 406.81 469.572 402.569C468.082 400.686 465.863 399.271 463.459 399.187C461.48 399.117 459.626 399.925 457.919 400.982C457.78 402.412 457.605 404.056 457.387 405.848C459.38 403.925 462.761 403.635 465.048 405.212C467.257 406.74 468.227 409.738 467.576 412.338C466.929 414.935 464.82 417.059 462.304 417.983C460.139 418.773 457.722 418.732 455.512 418.061Z"/>
</mask>
<path d="M455.512 418.061C455.27 419.333 455.006 420.617 454.721 421.893C459.84 423.261 465.755 421.649 469.138 417.567C472.593 413.404 472.929 406.81 469.572 402.569C468.082 400.686 465.863 399.271 463.459 399.187C461.48 399.117 459.626 399.925 457.919 400.982C457.78 402.412 457.605 404.056 457.387 405.848C459.38 403.925 462.761 403.635 465.048 405.212C467.257 406.74 468.227 409.738 467.576 412.338C466.929 414.935 464.82 417.059 462.304 417.983C460.139 418.773 457.722 418.732 455.512 418.061Z" fill="white"/>
<path d="M454.721 421.893L454.233 421.783L454.128 422.252L454.592 422.376L454.721 421.893ZM469.138 417.567L468.754 417.248L468.753 417.248L469.138 417.567ZM469.572 402.569L469.964 402.258L469.964 402.258L469.572 402.569ZM463.459 399.187L463.441 399.687L463.442 399.687L463.459 399.187ZM457.919 400.982L457.656 400.557L457.445 400.688L457.421 400.934L457.919 400.982ZM457.387 405.848L456.891 405.788L456.721 407.186L457.734 406.208L457.387 405.848ZM465.048 405.212L465.333 404.801L465.332 404.8L465.048 405.212ZM467.576 412.338L467.091 412.217L467.091 412.217L467.576 412.338ZM462.304 417.983L462.475 418.452L462.476 418.452L462.304 417.983ZM455.021 417.968C454.78 419.235 454.517 420.514 454.233 421.783L455.209 422.002C455.496 420.721 455.761 419.432 456.004 418.154L455.021 417.968ZM454.592 422.376C459.88 423.789 466.003 422.133 469.523 417.886L468.753 417.248C465.507 421.164 459.8 422.733 454.85 421.41L454.592 422.376ZM469.523 417.886C473.116 413.558 473.481 406.701 469.964 402.258L469.18 402.879C472.378 406.919 472.071 413.251 468.754 417.248L469.523 417.886ZM469.964 402.258C468.409 400.294 466.065 398.778 463.477 398.687L463.442 399.687C465.662 399.765 467.755 401.078 469.18 402.879L469.964 402.258ZM463.477 398.687C461.351 398.612 459.394 399.48 457.656 400.557L458.182 401.407C459.858 400.37 461.609 399.622 463.441 399.687L463.477 398.687ZM457.421 400.934C457.283 402.36 457.108 404 456.891 405.788L457.884 405.908C458.101 404.112 458.278 402.464 458.417 401.031L457.421 400.934ZM457.734 406.208C459.557 404.449 462.675 404.182 464.764 405.624L465.332 404.8C462.848 403.087 459.203 403.401 457.04 405.488L457.734 406.208ZM464.764 405.623C466.783 407.02 467.697 409.797 467.091 412.217L468.061 412.46C468.757 409.68 467.73 406.46 465.333 404.801L464.764 405.623ZM467.091 412.217C466.489 414.633 464.513 416.639 462.132 417.513L462.476 418.452C465.127 417.479 467.369 415.237 468.061 412.459L467.091 412.217ZM462.133 417.513C460.085 418.26 457.78 418.227 455.658 417.583L455.367 418.539C457.664 419.237 460.194 419.285 462.475 418.452L462.133 417.513Z" fill="black" mask="url(#path-133-inside-2)"/>
<path d="M448.063 441.031L448.065 439.718L419.821 439.674L419.819 440.987L448.063 441.031Z" fill="#323B6E"/>
<path d="M147.36 429.445C150.407 420.512 151.927 411.054 151.822 401.609V401.531L139.272 401.304L129.567 401.13L116.404 400.898L116.401 401.217C116.009 412.93 118.124 424.722 122.566 435.566L144.897 435.813C145.806 433.727 146.625 431.601 147.36 429.445Z" fill="#323B6E"/>
<path d="M131.187 362.302C130.795 375.151 129.612 390.664 129.569 401.043V401.13L139.274 401.305L139.277 401.261C139.495 398.87 139.716 396.482 139.937 394.092C140.108 392.27 140.317 390.338 141.456 388.909C142.755 387.166 145.726 385.775 148.416 384.069C149.741 383.236 151.054 382.257 151.777 380.871C152.507 379.479 152.475 377.582 151.319 376.522C150.554 375.819 149.422 375.601 148.405 375.799C147.385 375.993 146.467 376.566 145.697 377.257C144.968 377.919 144.341 378.707 143.533 379.267C142.877 379.723 141.717 380.267 141.163 379.369C140.968 379.049 140.921 378.663 140.91 378.291C140.904 378.137 140.907 377.986 140.904 377.835C140.875 376.351 141.186 374.782 141.305 373.292C141.436 371.615 141.552 369.939 141.63 368.263C141.796 364.899 141.825 361.523 141.587 358.162C141.453 356.251 141.119 354.133 139.603 352.962C137.531 351.368 134.298 352.576 132.854 354.749C131.41 356.928 131.265 359.688 131.187 362.302Z" fill="#8BD996"/>
<path d="M178.615 423.807L181.236 436.604C181.602 438.37 183.144 439.648 184.948 439.68L365.033 441.327C366.496 441.356 367.559 439.944 367.127 438.541C366.62 436.894 365.104 435.761 363.373 435.741L299.392 435.029L278.571 336.814C277.816 333.264 274.722 330.699 271.093 330.617L164.619 328.226C161.728 328.163 159.529 330.797 160.116 333.63L178.615 423.807Z" fill="#F26716"/>
<path d="M233.991 380.592C234.598 386.254 230.499 390.844 224.837 390.844C219.176 390.844 214.095 386.254 213.488 380.592C212.88 374.928 216.979 370.338 222.641 370.338C228.303 370.338 233.384 374.928 233.991 380.592Z" fill="white"/>
</svg>
