<svg width="42" height="42" viewBox="0 0 42 42" fill="none" xmlns="http://www.w3.org/2000/svg">
<path d="M34.6611 13.8831L25.6924 4.91433C25.6032 4.82511 25.4972 4.75433 25.3807 4.70605C25.2641 4.65777 25.1392 4.63292 25.013 4.63293H9.63672C9.04226 4.63361 8.47235 4.87006 8.052 5.29041C7.63166 5.71075 7.39521 6.28067 7.39453 6.87512V35.0626C7.39521 35.6571 7.63166 36.227 8.052 36.6473C8.47235 37.0677 9.04226 37.3041 9.63672 37.3048H32.7005C33.295 37.3041 33.8649 37.0677 34.2852 36.6473C34.7056 36.227 34.942 35.6571 34.9427 35.0626V14.5626C34.9427 14.4364 34.9178 14.3114 34.8695 14.1948C34.8212 14.0782 34.7504 13.9723 34.6611 13.8831ZM33.0208 35.0626C33.0207 35.1475 32.9869 35.2289 32.9269 35.289C32.8668 35.349 32.7854 35.3828 32.7005 35.3829H9.63672C9.55181 35.3828 9.47041 35.349 9.41036 35.289C9.35032 35.2289 9.31653 35.1475 9.31641 35.0626V6.87512C9.31653 6.79021 9.35032 6.70881 9.41036 6.64877C9.47041 6.58872 9.55181 6.55494 9.63672 6.55481H24.615L33.0208 14.9606V35.0626ZM12.5208 19.6876V31.2189C12.5208 31.4737 12.6221 31.7181 12.8023 31.8984C12.9825 32.0786 13.2269 32.1798 13.4817 32.1798H28.8567C29.1116 32.1798 29.356 32.0786 29.5362 31.8984C29.7164 31.7181 29.8177 31.4737 29.8177 31.2189V19.6876C29.8177 19.4328 29.7164 19.1883 29.5362 19.0081C29.356 18.8279 29.1116 18.7267 28.8567 18.7267H13.4817C13.2269 18.7267 12.9825 18.8279 12.8023 19.0081C12.6221 19.1883 12.5208 19.4328 12.5208 19.6876ZM14.4427 20.6486H27.8958V30.2579H24.6927V24.8126C24.6927 24.5578 24.5914 24.3133 24.4112 24.1331C24.231 23.9529 23.9866 23.8517 23.7317 23.8517C23.4769 23.8517 23.2325 23.9529 23.0523 24.1331C22.8721 24.3133 22.7708 24.5578 22.7708 24.8126V30.2579H19.5677V24.8126C19.5677 24.5578 19.4664 24.3133 19.2862 24.1331C19.106 23.9529 18.8616 23.8517 18.6067 23.8517C18.3519 23.8517 18.1075 23.9529 17.9273 24.1331C17.7471 24.3133 17.6458 24.5578 17.6458 24.8126V30.2579H14.4427V20.6486Z" fill="#394273"/>
</svg>
