<svg width="43" height="43" viewBox="0 0 43 43" fill="none" xmlns="http://www.w3.org/2000/svg">
<path d="M31.3633 4.7345H11.6758C10.3709 4.73597 9.11983 5.255 8.19712 6.17771C7.27441 7.10042 6.75538 8.35146 6.75391 9.65637V30.6564C6.75538 31.9613 7.27441 33.2123 8.19712 34.135C9.11983 35.0577 10.3709 35.5768 11.6758 35.5782H14.3008L11.5445 39.2532C11.467 39.3567 11.4105 39.4743 11.3785 39.5996C11.3464 39.7248 11.3393 39.8551 11.3575 39.9831C11.3758 40.1111 11.4191 40.2342 11.485 40.3454C11.5509 40.4566 11.638 40.5538 11.7414 40.6314C11.8448 40.7089 11.9625 40.7654 12.0877 40.7975C12.213 40.8295 12.3433 40.8366 12.4712 40.8184C12.5992 40.8001 12.7223 40.7568 12.8336 40.6909C12.9448 40.625 13.042 40.5379 13.1195 40.4345L16.7617 35.5782H26.2773L29.9195 40.4345C29.9971 40.5379 30.0943 40.625 30.2055 40.6909C30.3167 40.7568 30.4398 40.8001 30.5678 40.8184C30.6958 40.8366 30.8261 40.8295 30.9513 40.7975C31.0766 40.7654 31.1942 40.7089 31.2977 40.6314C31.4011 40.5538 31.4882 40.4566 31.5541 40.3454C31.6199 40.2342 31.6632 40.1111 31.6815 39.9831C31.6998 39.8551 31.6927 39.7248 31.6606 39.5996C31.6285 39.4743 31.5721 39.3567 31.4945 39.2532L28.7383 35.5782H31.3633C32.6682 35.5768 33.9192 35.0577 34.8419 34.135C35.7647 33.2123 36.2837 31.9613 36.2852 30.6564V9.65637C36.2837 8.35146 35.7647 7.10042 34.8419 6.17771C33.9192 5.255 32.6682 4.73597 31.3633 4.7345ZM8.72266 20.4845V13.2657H20.5352V20.4845H8.72266ZM22.5039 13.2657H34.3164V20.4845H22.5039V13.2657ZM11.6758 6.70325H31.3633C32.1462 6.70412 32.8969 7.01553 33.4505 7.56916C34.0041 8.12279 34.3155 8.87342 34.3164 9.65637V11.297H8.72266V9.65637C8.72352 8.87342 9.03494 8.12279 9.58857 7.56916C10.1422 7.01553 10.8928 6.70412 11.6758 6.70325ZM31.3633 33.6095H11.6758C10.8928 33.6086 10.1422 33.2972 9.58857 32.7436C9.03494 32.19 8.72352 31.4393 8.72266 30.6564V22.4532H34.3164V30.6564C34.3155 31.4393 34.0041 32.19 33.4505 32.7436C32.8969 33.2972 32.1462 33.6086 31.3633 33.6095ZM15.9414 28.6876C15.9414 29.0121 15.8452 29.3293 15.6649 29.5991C15.4846 29.8689 15.2284 30.0792 14.9286 30.2034C14.6288 30.3275 14.299 30.36 13.9807 30.2967C13.6625 30.2334 13.3701 30.0772 13.1407 29.8477C12.9112 29.6183 12.755 29.3259 12.6917 29.0077C12.6284 28.6894 12.6609 28.3596 12.785 28.0598C12.9092 27.76 13.1195 27.5038 13.3893 27.3235C13.6591 27.1432 13.9763 27.047 14.3008 27.047C14.7357 27.0475 15.1527 27.2205 15.4603 27.5281C15.7679 27.8357 15.9409 28.2527 15.9414 28.6876ZM30.3789 28.6876C30.3789 29.0121 30.2827 29.3293 30.1024 29.5991C29.9221 29.8689 29.6659 30.0792 29.3661 30.2034C29.0663 30.3275 28.7365 30.36 28.4182 30.2967C28.1 30.2334 27.8076 30.0772 27.5782 29.8477C27.3487 29.6183 27.1925 29.3259 27.1292 29.0077C27.0659 28.6894 27.0984 28.3596 27.2225 28.0598C27.3467 27.76 27.557 27.5038 27.8268 27.3235C28.0966 27.1432 28.4138 27.047 28.7383 27.047C29.1732 27.0475 29.5902 27.2205 29.8978 27.5281C30.2054 27.8357 30.3784 28.2527 30.3789 28.6876Z" fill="#394273"/>
</svg>
