<svg width="43" height="43" viewBox="0 0 43 43" fill="none" xmlns="http://www.w3.org/2000/svg">
<path d="M40.7247 24.171C40.516 24.3278 40.2536 24.3952 39.9952 24.3585C39.7367 24.3218 39.5034 24.184 39.3466 23.9753C38.5249 22.871 37.4555 21.9751 36.2243 21.3596C34.9932 20.7441 33.6347 20.4262 32.2583 20.4315C31.9972 20.4315 31.7469 20.3278 31.5622 20.1432C31.3776 19.9586 31.2739 19.7082 31.2739 19.4471C31.2739 19.1861 31.3776 18.9357 31.5622 18.7511C31.7469 18.5665 31.9972 18.4628 32.2583 18.4628C33.0676 18.4626 33.8601 18.2322 34.5434 17.7985C35.2267 17.3648 35.7725 16.7456 36.117 16.0133C36.4616 15.2811 36.5908 14.4659 36.4894 13.663C36.3881 12.86 36.0604 12.1025 35.5447 11.4788C35.0289 10.8551 34.3464 10.391 33.5768 10.1407C32.8072 9.89038 31.9823 9.86415 31.1983 10.0651C30.4143 10.266 29.7037 10.6858 29.1494 11.2755C28.5951 11.8652 28.22 12.6003 28.0678 13.3952C28.0437 13.5222 27.9948 13.6432 27.9239 13.7513C27.8531 13.8595 27.7616 13.9526 27.6547 14.0253C27.5479 14.0981 27.4277 14.1491 27.3012 14.1754C27.1746 14.2017 27.0441 14.2029 26.9171 14.1788C26.7901 14.1547 26.6691 14.1058 26.5609 14.0349C26.4528 13.964 26.3597 13.8725 26.287 13.7657C26.2142 13.6588 26.1632 13.5387 26.1369 13.4121C26.1106 13.2856 26.1094 13.155 26.1335 13.028C26.3222 12.0354 26.7494 11.1035 27.3782 10.3126C28.007 9.5217 28.8186 8.89547 29.7431 8.48785C30.6676 8.08023 31.6774 7.90342 32.6854 7.97266C33.6935 8.04191 34.6696 8.35512 35.5297 8.88532C36.3898 9.41553 37.1082 10.1469 37.6229 11.0163C38.1376 11.8858 38.4334 12.8673 38.4846 13.8764C38.5358 14.8855 38.3409 15.892 37.9169 16.8091C37.4928 17.7262 36.8521 18.5264 36.0501 19.141C37.9908 19.8649 39.6818 21.1328 40.9205 22.7929C41.0772 23.0016 41.1447 23.264 41.108 23.5225C41.0713 23.7809 40.9334 24.0142 40.7247 24.171ZM31.4313 35.4219C31.4888 35.5382 31.5227 35.6647 31.5311 35.7942C31.5395 35.9237 31.5223 36.0535 31.4804 36.1763C31.4384 36.2991 31.3727 36.4123 31.2868 36.5096C31.2009 36.6069 31.0967 36.6862 30.9801 36.743C30.8634 36.7999 30.7367 36.8331 30.6072 36.8408C30.4777 36.8485 30.348 36.8305 30.2254 36.7879C30.1029 36.7453 29.99 36.6788 29.8932 36.5924C29.7964 36.506 29.7177 36.4013 29.6615 36.2844C28.8802 34.6794 27.6633 33.3264 26.1498 32.3799C24.6363 31.4334 22.8871 30.9315 21.1021 30.9315C19.317 30.9315 17.5678 31.4334 16.0543 32.3799C14.5408 33.3264 13.3239 34.6794 12.5426 36.2844C12.4864 36.4013 12.4077 36.506 12.3109 36.5924C12.2141 36.6788 12.1012 36.7453 11.9787 36.7879C11.8561 36.8305 11.7264 36.8485 11.5969 36.8408C11.4674 36.8331 11.3407 36.7999 11.224 36.743C11.1074 36.6862 11.0032 36.6069 10.9173 36.5096C10.8315 36.4123 10.7657 36.2991 10.7237 36.1763C10.6818 36.0535 10.6646 35.9237 10.673 35.7942C10.6814 35.6647 10.7154 35.5382 10.7728 35.4219C12.0413 32.7933 14.268 30.75 16.9957 29.7117C15.6299 28.826 14.587 27.5223 14.0228 25.9953C13.4586 24.4682 13.4033 22.7997 13.8652 21.2386C14.327 19.6776 15.2813 18.3077 16.5855 17.3335C17.8897 16.3592 19.474 15.8328 21.102 15.8328C22.7299 15.8328 24.3142 16.3592 25.6184 17.3335C26.9227 18.3077 27.8769 19.6776 28.3388 21.2386C28.8006 22.7997 28.7453 24.4682 28.1811 25.9953C27.6169 27.5223 26.5741 28.826 25.2082 29.7117C27.936 30.75 30.1628 32.7932 31.4313 35.4219ZM21.1021 28.9628C22.2053 28.9628 23.2838 28.6356 24.2011 28.0227C25.1184 27.4098 25.8334 26.5386 26.2556 25.5193C26.6778 24.5 26.7882 23.3785 26.573 22.2964C26.3578 21.2144 25.8265 20.2204 25.0464 19.4403C24.2663 18.6602 23.2723 18.1289 22.1903 17.9137C21.1082 17.6985 19.9867 17.8089 18.9674 18.2311C17.9481 18.6533 17.0769 19.3683 16.464 20.2856C15.8511 21.2029 15.5239 22.2814 15.5239 23.3846C15.5256 24.8636 16.1138 26.2814 17.1595 27.3272C18.2053 28.3729 19.6231 28.9611 21.1021 28.9628ZM9.9458 18.4628C9.13651 18.4626 8.34396 18.2322 7.66069 17.7985C6.97743 17.3648 6.43164 16.7456 6.08706 16.0133C5.74248 15.2811 5.61333 14.4659 5.71468 13.663C5.81603 12.86 6.1437 12.1025 6.65944 11.4788C7.17518 10.8551 7.85769 10.391 8.6273 10.1407C9.39691 9.89038 10.2219 9.86415 11.0058 10.0651C11.7898 10.266 12.5004 10.6858 13.0547 11.2755C13.609 11.8652 13.9841 12.6003 14.1363 13.3952C14.185 13.6517 14.3337 13.8783 14.5495 14.0253C14.7653 14.1722 15.0307 14.2273 15.2872 14.1786C15.5437 14.1299 15.7703 13.9812 15.9172 13.7654C16.0642 13.5496 16.1193 13.2842 16.0706 13.0277C15.8818 12.0351 15.4546 11.1033 14.8258 10.3124C14.197 9.52154 13.3854 8.89537 12.4608 8.4878C11.5363 8.08022 10.5265 7.90346 9.51854 7.97273C8.51053 8.04201 7.53446 8.35524 6.67438 8.88546C5.81429 9.41568 5.09596 10.147 4.58123 11.0164C4.06651 11.8859 3.77082 12.8674 3.71961 13.8765C3.66841 14.8856 3.86323 15.892 4.28731 16.8091C4.71138 17.7262 5.35199 18.5265 6.15399 19.141C4.21314 19.8649 2.52207 21.1328 1.28331 22.793C1.20566 22.8964 1.14913 23.014 1.11694 23.1392C1.08475 23.2644 1.07754 23.3947 1.09572 23.5227C1.11389 23.6507 1.1571 23.7739 1.22287 23.8851C1.28863 23.9964 1.37568 24.0937 1.47903 24.1713C1.58238 24.249 1.70002 24.3055 1.82522 24.3377C1.95041 24.3699 2.08073 24.3771 2.20871 24.3589C2.3367 24.3407 2.45985 24.2975 2.57114 24.2318C2.68243 24.166 2.77967 24.079 2.85732 23.9756C3.67899 22.8713 4.74846 21.9752 5.97964 21.3597C7.21082 20.7441 8.56932 20.4262 9.9458 20.4315C10.2069 20.4315 10.4573 20.3278 10.6419 20.1432C10.8265 19.9586 10.9302 19.7082 10.9302 19.4471C10.9302 19.1861 10.8265 18.9357 10.6419 18.7511C10.4573 18.5665 10.2069 18.4628 9.9458 18.4628Z" fill="#394273"/>
</svg>
