<svg width="69" height="69" viewBox="0 0 69 69" fill="none" xmlns="http://www.w3.org/2000/svg">
<path d="M66.8293 46.2275H65.7668V37.7275C65.7654 36.6008 65.3171 35.5207 64.5204 34.724C63.7237 33.9273 62.6436 33.479 61.5168 33.4775V15.415C61.5154 14.2883 61.0671 13.2082 60.2704 12.4115C59.4737 11.6148 58.3936 11.1665 57.2668 11.165H12.6418C11.5151 11.1665 10.435 11.6148 9.63827 12.4115C8.84156 13.2082 8.39332 14.2883 8.39185 15.415V33.4775C7.26513 33.479 6.18498 33.9273 5.38827 34.724C4.59156 35.5207 4.14332 36.6008 4.14185 37.7275V46.2275H3.07935C2.79755 46.2275 2.5273 46.3395 2.32804 46.5387C2.12879 46.738 2.01685 47.0082 2.01685 47.29V51.54C2.01685 51.8218 2.12879 52.0921 2.32804 52.2913C2.5273 52.4906 2.79755 52.6025 3.07935 52.6025H4.14185V56.8525C4.14185 57.1343 4.25379 57.4046 4.45304 57.6038C4.6523 57.8031 4.92255 57.915 5.20435 57.915H8.39185C8.63741 57.9152 8.87542 57.8301 9.06529 57.6744C9.25516 57.5187 9.38515 57.3019 9.4331 57.0611L10.3256 52.6025H59.5831L60.4756 57.0611C60.5235 57.3019 60.6535 57.5187 60.8434 57.6744C61.0333 57.8301 61.2713 57.9152 61.5168 57.915H64.7043C64.9861 57.915 65.2564 57.8031 65.4556 57.6038C65.6549 57.4046 65.7668 57.1343 65.7668 56.8525V52.6025H66.8293C67.1111 52.6025 67.3814 52.4906 67.5807 52.2913C67.7799 52.0921 67.8918 51.8218 67.8918 51.54V47.29C67.8918 47.0082 67.7799 46.738 67.5807 46.5387C67.3814 46.3395 67.1111 46.2275 66.8293 46.2275ZM10.5168 15.415C10.5176 14.8517 10.7417 14.3116 11.1401 13.9133C11.5384 13.5149 12.0785 13.2908 12.6418 13.29H57.2668C57.8302 13.2908 58.3703 13.5149 58.7686 13.9133C59.167 14.3116 59.3911 14.8517 59.3918 15.415V33.4775H57.2668V29.2275C57.2654 28.1008 56.8171 27.0207 56.0204 26.224C55.2237 25.4273 54.1436 24.979 53.0168 24.9775H40.2668C39.1401 24.979 38.06 25.4273 37.2633 26.224C36.4666 27.0207 36.0183 28.1008 36.0168 29.2275V33.4775H33.8918V29.2275C33.8904 28.1008 33.4421 27.0207 32.6454 26.224C31.8487 25.4273 30.7686 24.979 29.6418 24.9775H16.8918C15.7651 24.979 14.685 25.4273 13.8883 26.224C13.0916 27.0207 12.6433 28.1008 12.6418 29.2275V33.4775H10.5168V15.415ZM55.1418 29.2275V33.4775H38.1418V29.2275C38.1426 28.6642 38.3667 28.1241 38.7651 27.7258C39.1634 27.3274 39.7035 27.1033 40.2668 27.1025H53.0168C53.5802 27.1033 54.1203 27.3274 54.5186 27.7258C54.917 28.1241 55.1411 28.6642 55.1418 29.2275ZM31.7668 29.2275V33.4775H14.7668V29.2275C14.7676 28.6642 14.9917 28.1241 15.3901 27.7258C15.7884 27.3274 16.3285 27.1033 16.8918 27.1025H29.6418C30.2052 27.1033 30.7453 27.3274 31.1436 27.7258C31.542 28.1241 31.7661 28.6642 31.7668 29.2275ZM6.26685 37.7275C6.26758 37.1642 6.4917 36.6241 6.89006 36.2257C7.28841 35.8274 7.82849 35.6033 8.39185 35.6025H61.5168C62.0802 35.6033 62.6203 35.8274 63.0186 36.2257C63.417 36.6241 63.6411 37.1642 63.6418 37.7275V46.2275H6.26685V37.7275ZM7.5206 55.79H6.26685V52.6025H8.1581L7.5206 55.79ZM63.6418 55.79H62.3881L61.7506 52.6025H63.6418V55.79ZM65.7668 50.4775H4.14185V48.3525H65.7668V50.4775Z" fill="#394273"/>
</svg>
