<svg width="43" height="43" viewBox="0 0 43 43" fill="none" xmlns="http://www.w3.org/2000/svg">
<path d="M34.2079 18.6109L29.9328 4.12747C29.8726 3.92376 29.7481 3.74498 29.5779 3.61784C29.4078 3.49069 29.201 3.42199 28.9886 3.422H13.2386C13.0262 3.42201 12.8195 3.49074 12.6493 3.61792C12.4792 3.7451 12.3547 3.9239 12.2946 4.12763L8.01944 18.6111C7.68486 19.7421 7.76783 20.9558 8.25323 22.0308C9.30596 24.3493 10.9649 26.3407 13.0552 27.7948C15.1454 29.249 17.5894 30.1121 20.1292 30.293V37.547H14.5511C14.29 37.547 14.0396 37.6507 13.855 37.8353C13.6704 38.0199 13.5667 38.2703 13.5667 38.5314C13.5667 38.7924 13.6704 39.0428 13.855 39.2274C14.0396 39.412 14.29 39.5157 14.5511 39.5157H27.6761C27.9372 39.5157 28.1876 39.412 28.3722 39.2274C28.5568 39.0428 28.6605 38.7924 28.6605 38.5314C28.6605 38.2703 28.5568 38.0199 28.3722 37.8353C28.1876 37.6507 27.9372 37.547 27.6761 37.547H22.098V30.293C24.6378 30.1121 27.0818 29.249 29.172 27.7948C31.2622 26.3406 32.9212 24.3493 33.974 22.0308C34.4595 20.9557 34.5425 19.7419 34.2078 18.6107L34.2079 18.6109ZM13.9743 5.39075H28.2526L31.8185 17.4713C30.0696 18.2749 26.5311 19.1398 21.5538 16.651C16.9994 14.3738 13.4296 14.5592 11.0638 15.2506L13.9743 5.39075ZM32.1803 21.219C31.2176 23.3475 29.6617 25.1532 27.6988 26.4197C25.7359 27.6863 23.4495 28.3599 21.1134 28.3599C18.7774 28.3599 16.491 27.6863 14.5281 26.4197C12.5652 25.1532 11.0092 23.3475 10.0466 21.219C9.75583 20.5742 9.7064 19.8464 9.90731 19.1682L10.3673 17.61C12.1989 16.7519 15.7141 15.9323 20.6733 18.4117C23.4492 19.7999 25.8647 20.2647 27.8556 20.2645C29.4051 20.2751 30.9409 19.9735 32.3712 19.3776C32.5071 19.996 32.4401 20.6417 32.1801 21.219H32.1803Z" fill="#394273"/>
</svg>
