<svg width="34" height="33" viewBox="0 0 34 33" fill="none" xmlns="http://www.w3.org/2000/svg">
<g clip-path="url(#clip0)">
<path d="M31.1262 1.21825C31.0097 1.10531 30.8156 0.992371 30.5826 0.992371H3.56146C3.36734 0.992371 3.17323 1.06766 3.01793 1.21825C2.90146 1.36884 2.82381 1.55708 2.86264 1.78296L7.36617 32.39C7.40499 32.7288 7.71558 32.9924 8.06499 32.9924H26.0791C26.4285 32.9924 26.7391 32.7288 26.7779 32.39L31.2815 1.78296C31.3203 1.59472 31.2426 1.36884 31.1262 1.21825ZM25.4579 31.5994H8.68617L5.69676 11.3453C7.7544 10.5547 8.88029 11.0065 10.2779 11.5712C11.2485 11.9477 12.2968 12.3994 13.6944 12.3994C14.7038 12.3994 15.8685 12.1735 17.3438 11.5712C19.7121 10.5171 20.9156 11.0065 22.4297 11.6088C23.4003 11.9853 24.4485 12.4371 25.8462 12.4371C26.5838 12.4371 27.3991 12.3241 28.3697 12.023L25.4579 31.5994ZM28.6026 10.4041C25.885 11.4583 24.4873 10.8935 23.0121 10.2912C21.4591 9.65119 19.7509 8.97355 16.8003 10.2912C13.8497 11.5335 12.4132 10.9312 10.8603 10.2912C9.46264 9.72649 7.94852 9.12414 5.50264 9.95237L4.37676 2.38531H29.7673L28.6026 10.4041Z" fill="#394273"/>
</g>
<defs>
<clipPath id="clip0">
<rect width="33" height="32" fill="white" transform="translate(0.572266 0.992371)"/>
</clipPath>
</defs>
</svg>
