<svg width="69" height="69" viewBox="0 0 69 69" fill="none" xmlns="http://www.w3.org/2000/svg">
<path d="M64.1807 56.3901H59.3994V31.2989C59.3989 30.7808 59.2905 30.2685 59.0809 29.7946C58.8713 29.3208 58.5653 28.8959 58.1823 28.547L36.9307 9.22729C36.2477 8.60181 35.3552 8.25488 34.4291 8.25488C33.5029 8.25488 32.6104 8.60181 31.9274 9.22729L10.679 28.5473C10.296 28.8961 9.98993 29.321 9.78036 29.7947C9.5708 30.2685 9.46234 30.7808 9.46192 31.2989V56.3901H4.68066C4.25798 56.3901 3.8526 56.558 3.55371 56.8569C3.25483 57.1558 3.08691 57.5611 3.08691 57.9838C3.08691 58.4065 3.25483 58.8119 3.55371 59.1108C3.8526 59.4097 4.25798 59.5776 4.68066 59.5776H64.1807C64.6034 59.5776 65.0087 59.4097 65.3076 59.1108C65.6065 58.8119 65.7744 58.4065 65.7744 57.9838C65.7744 57.5611 65.6065 57.1558 65.3076 56.8569C65.0087 56.558 64.6034 56.3901 64.1807 56.3901ZM12.6494 31.2989C12.6495 31.2248 12.665 31.1516 12.695 31.084C12.7249 31.0163 12.7687 30.9556 12.8234 30.9057L34.0718 11.5855C34.1694 11.4962 34.2969 11.4467 34.4292 11.4467C34.5615 11.4467 34.689 11.4962 34.7866 11.5855L56.0379 30.9055C56.0926 30.9553 56.1363 31.0161 56.1663 31.0837C56.1962 31.1514 56.2118 31.2246 56.2119 31.2986V56.3901H42.3978V43.1067C42.3967 42.1208 42.0045 41.1755 41.3074 40.4784C40.6102 39.7812 39.665 39.3891 38.6791 39.3879H30.1791C29.1931 39.3891 28.2479 39.7812 27.5508 40.4784C26.8536 41.1755 26.4614 42.1208 26.4603 43.1067V56.3901H12.6494V31.2989ZM39.2103 56.3901H29.6478V43.1067C29.648 42.9658 29.704 42.8308 29.8036 42.7312C29.9032 42.6316 30.0382 42.5756 30.1791 42.5754H38.6791C38.8199 42.5756 38.955 42.6316 39.0546 42.7312C39.1542 42.8308 39.2102 42.9658 39.2103 43.1067V56.3901Z" fill="#278B96"/>
</svg>
