<svg width="494" height="478" viewBox="0 0 494 478" fill="none" xmlns="http://www.w3.org/2000/svg">
<mask id="mask0" mask-type="alpha" maskUnits="userSpaceOnUse" x="0" y="0" width="494" height="478">
<path d="M493.907 224.236C493.907 339.248 339.248 477.5 224.236 477.5C109.223 477.5 0 317.792 0 202.78C0 87.767 128.155 0 243.167 0C358.18 0 493.907 109.223 493.907 224.236Z" fill="#CBCBCB"/>
</mask>
<g mask="url(#mask0)">
<mask id="mask1" mask-type="alpha" maskUnits="userSpaceOnUse" x="-29" y="-16" width="541" height="596">
<path d="M-29 129C-29 48.9187 35.9187 -16 116 -16H511.432V434.621C511.432 514.702 446.514 579.621 366.432 579.621H-29V129Z" fill="#C7C7C7"/>
</mask>
<g mask="url(#mask1)">
<path d="M108.371 -14.2809C66.4055 5.3044 25.6424 29.4721 -3.33143 64.0528C-32.3054 98.6335 -48.0405 145.198 -35.5523 187.604C-27.9499 213.416 -10.3886 239.864 -20.4088 264.939C-28.6106 285.462 -53.9504 299.115 -55.0471 321.01C-55.6524 333.09 -48.3069 344.305 -39.6216 353.235C-17.9587 375.509 12.9458 388.355 44.4285 394.371C75.9112 400.386 108.319 400.132 140.446 399.852C203.25 399.309 266.053 398.764 328.857 398.22C370.273 397.861 412.673 397.339 451.482 383.762C496.718 367.935 534.461 334.145 553.44 292.477C572.421 250.81 572.376 201.847 553.314 160.212C545.754 143.696 535.21 128.184 521.017 116.118C478.259 79.7667 409.508 79.4425 369.417 40.5032C353.23 24.7801 353.994 -45.8306 179.851 -29.4362C160.879 -27.6504 125.46 -22.2551 108.371 -14.2809" fill="#F5F5EE"/>
<path d="M-37.7588 354.963C-16.2029 376.129 13.8042 388.519 44.4282 394.371C75.9109 400.386 108.319 400.132 140.446 399.852C203.25 399.309 266.052 398.764 328.856 398.22C370.273 397.861 412.672 397.339 451.482 383.762C470.457 377.125 487.978 367.179 503.485 354.963H-37.7588Z" fill="#E2E0D5"/>
<path d="M474.897 47.448C474.897 51.9269 471.268 55.5547 466.789 55.5547C462.313 55.5547 458.683 51.9269 458.683 47.448C458.683 42.9707 462.313 39.3414 466.789 39.3414C471.268 39.3414 474.897 42.9707 474.897 47.448Z" fill="#F5F5EE"/>
<path d="M517.097 -30.5846H479.654V-68.0304H517.097V-30.5846ZM517.097 8.30296H479.654V-29.1414H517.097V8.30296ZM517.097 47.1859H479.654V9.74769H517.097V47.1859ZM517.097 86.0735H479.654V48.6292H517.097V86.0735ZM440.765 86.0735V48.6292H478.208V86.0735H440.765ZM401.882 86.0735V48.6292H439.321V86.0735H401.882ZM362.995 86.0735V48.6292H400.438V86.0735H362.995ZM362.995 9.74769H400.438V47.1859H362.995V9.74769ZM362.995 -29.1414H400.438V8.30296H362.995V-29.1414ZM362.995 -68.0304H400.438V-30.5846H362.995V-68.0304ZM439.321 -68.0304V-30.5846H401.882V-68.0304H439.321ZM440.765 8.30296V-29.1414H478.208V8.30296H440.765ZM440.765 9.74769H478.208V47.1859H440.765V9.74769ZM401.882 8.30296V-29.1414H439.321V8.30296H401.882ZM439.321 9.74769V47.1859H401.882V9.74769H439.321ZM478.208 -68.0304V-30.5846H440.765V-68.0304H478.208ZM547.391 -68.0304V-69.4736H518.54V-98.3226H517.097V-69.4736H479.654V-98.3226H478.208V-69.4736H440.765V-98.3226H439.321V-69.4736H401.882V-98.3226H400.438V-69.4736H362.995V-98.3226H361.55V-69.4736H332.701V-68.0304H361.55V-30.5846H332.701V-29.1414H361.55V8.30296H332.701V9.74769H361.55V47.1859H332.701V48.6292H361.55V86.0735H332.701V87.5182H361.55V116.367H362.995V87.5182H400.438V116.367H401.882V87.5182H439.321V116.367H440.765V87.5182H478.208V116.367H479.654V87.5182H517.097V116.367H518.54V87.5182H547.391V86.0735H518.54V48.6292H547.391V47.1859H518.54V9.74769H547.391V8.30296H518.54V-29.1414H547.391V-30.5846H518.54V-68.0304H547.391" fill="#878682"/>
<path d="M340.992 336.407H142.555C140.337 336.407 138.539 334.609 138.539 332.391V94.569C138.539 92.3509 140.337 90.5514 142.555 90.5514H340.992C343.21 90.5514 345.006 92.3509 345.006 94.569V332.391C345.006 334.609 343.21 336.407 340.992 336.407" fill="#CA3107"/>
<path d="M395.71 360.425C395.71 355.216 391.487 350.993 386.279 350.993H364.631C359.42 350.993 355.198 355.216 355.198 360.425C355.198 365.531 359.274 369.637 364.34 369.8V437.76C364.34 443.897 369.317 448.872 375.453 448.872C381.592 448.872 386.567 443.897 386.567 437.76V369.8C391.635 369.637 395.71 365.531 395.71 360.425" fill="#394273"/>
<path d="M386.567 369.801L364.34 379.573V369.801H386.567Z" fill="#CA3107"/>
<path d="M119.683 350.993H93.8073C89.7654 350.993 86.4893 354.27 86.4893 358.311V362.54C86.4893 366.582 89.7654 369.858 93.8073 369.858H95.6326V440.251C95.6326 445.013 99.4934 448.872 104.254 448.872H109.237C113.999 448.872 117.858 445.013 117.858 440.251V369.858H119.683C123.725 369.858 127.001 366.582 127.001 362.54V358.311C127.001 354.27 123.725 350.993 119.683 350.993" fill="#394273"/>
<path d="M95.9238 369.859L117.861 378.728L117.572 369.859H95.9238Z" fill="#CA3107"/>
<path d="M210.135 69.2164C209.132 57.3876 213.095 40.2776 223.943 35.4563C227.452 33.8958 231.338 33.5244 235.09 32.7206C271.473 24.9367 278.97 51.6223 279.678 56.6096C280.877 65.068 280.827 73.8231 278.359 82.0028C275.893 90.181 270.848 97.7594 263.589 102.264C253.653 108.43 241.213 107.94 230.365 104.712C227.162 103.761 224.033 102.521 222.008 99.7355C219.626 96.4608 217.866 92.4159 216.074 88.8048C213.028 82.6666 210.717 76.0823 210.135 69.2164Z" fill="#412424"/>
<path d="M379.862 454.007L241.331 468.351L102.799 454.007C102.799 454.007 97.5545 486.422 110.65 486.422H237.009C242.421 486.422 245.653 486.422 245.653 486.422H372.011C385.105 486.422 379.862 454.007 379.862 454.007Z" fill="#CA3107"/>
<path d="M365.573 468.801H117.091C107.998 468.801 101.137 461.701 102.798 454.01L110.959 416.239C112.24 410.315 118.248 406.019 125.253 406.019H355.433C362.201 406.019 368.075 410.036 369.597 415.709L379.739 453.482C381.843 461.319 374.924 468.801 365.573 468.801" fill="#394273"/>
<path d="M69.7125 159.39L118.83 213.614V282.314L46.8906 170.532L69.7125 159.39" fill="#FAA5AD"/>
<path d="M138.539 209.23L118.829 213.612V295.826L138.539 292.871V209.23Z" fill="#35BBCA"/>
<path d="M188.376 156.959C181.143 163.636 170.721 160.859 163.894 173.219C153.67 191.733 138.539 209.232 138.539 209.232V282.314L176.971 252.532C176.971 252.532 193.127 152.573 188.376 156.959Z" fill="#35BBCA"/>
<path d="M138.539 282.314V214.457L145.839 276.657L138.539 282.314Z" fill="#214E37"/>
<path d="M118.83 213.614L108.717 266.598L118.83 282.314V213.614Z" fill="#412424"/>
<path d="M32.0112 139.286C32.0112 139.286 16.2105 107.31 18.8427 104.302C21.6225 101.126 32.6795 119.479 31.7524 122.344C30.8253 125.207 32.0112 139.286 32.0112 139.286Z" fill="#FAA5AD"/>
<path d="M32.344 125.401C32.344 125.401 28.5 107.39 30.8734 102.352C32.0045 99.9516 38.7364 101.022 38.7836 106.263C38.8476 113.464 39.9239 122.941 39.1505 124.337C37.6921 126.971 32.344 125.401 32.344 125.401" fill="#FAA5AD"/>
<path d="M58.3982 106.596C58.3982 106.596 79.5182 116.632 78.7083 117.81C75.5067 122.461 55.4296 115.762 54.4401 112.919C53.4521 110.075 58.3982 106.596 58.3982 106.596" fill="#FAA5AD"/>
<path d="M41.9434 102.007C41.9434 102.007 62.1209 91.7296 62.4147 93.1302C63.5717 98.6549 50.8005 105.661 48.5596 109.283C46.9748 111.843 41.9434 102.007 41.9434 102.007Z" fill="#FAA5AD"/>
<path d="M30.6622 103.406C30.6165 98.6774 45.449 90.892 45.9271 92.2409C47.8133 97.5616 42.4454 97.5128 38.7841 106.263C37.621 109.04 30.6835 105.557 30.6622 103.406Z" fill="#FAA5AD"/>
<path d="M72.7055 151.305C72.7055 151.305 83.2328 120.691 80.389 119.784C77.5482 118.877 68.2998 132.432 68.2998 132.432L72.7055 151.305" fill="#FAA5AD"/>
<path d="M59.0122 122.94C59.0122 122.94 31.7982 109.665 29.6334 122.922C27.1108 138.365 46.891 170.533 46.891 170.533C46.891 170.533 68.5727 160.482 69.7129 159.39C70.8532 158.299 74.9058 147.253 72.9921 140.103C72.4395 138.041 70.835 133.643 68.3002 132.432C59.9348 128.438 59.0122 122.94 59.0122 122.94" fill="#FAA5AD"/>
<path d="M59.1885 124.131L58.5247 106.653C58.5247 106.653 52.1125 102.192 50.4759 110.197C49.3661 115.63 50.5094 123.476 50.5094 123.476C50.5094 123.476 59.33 127.876 59.1885 124.131" fill="#FAA5AD"/>
<path d="M47.6868 104.835L51.3664 125.929C51.3664 125.929 41.7526 122.217 40.1313 118.92C38.51 115.622 41.9429 102.008 41.9429 102.008L47.6868 104.835" fill="#FAA5AD"/>
<path d="M68.3003 132.433C68.3003 132.433 63.0709 133.162 59.3198 148.133C59.3198 148.133 57.6787 134.214 62.2108 128.197L68.3003 132.433" fill="#BD4952"/>
<path d="M73.9637 163.991L62.9844 162.675L69.7133 159.39L73.9637 163.991Z" fill="#BD4952"/>
<path d="M378.836 440.71C378.836 440.71 186.437 495.011 124.298 418.991C124.298 418.991 313.246 400.138 378.836 440.71Z" fill="#412424"/>
<path d="M167.909 433.255C167.909 433.255 182.072 551.563 190.618 602.132H235.233L239.362 456.671L247.071 414.996C247.071 414.996 170.022 381.695 167.909 433.255" fill="#FAA5AD"/>
<path d="M326.592 433.255C326.592 433.255 312.428 551.563 303.883 602.132H259.268L255.139 456.671L245.253 409.667C245.253 409.667 324.477 381.695 326.592 433.255Z" fill="#FAA5AD"/>
<path d="M168.892 323.876C168.892 323.876 140.824 381.73 127.308 395.113L121.227 406.712C121.227 406.712 128.685 448.003 202.205 432.141C266.915 418.178 242.507 405.555 291.241 406.285C319.38 406.707 327.44 451.43 352.839 439.694C368.174 432.609 378.461 435.629 378.461 435.629C378.461 435.629 356.943 410.843 318.132 329.288C302.337 296.098 174.803 309.155 168.892 323.876" fill="#35BBCA"/>
<path d="M223.701 139.789C223.701 139.789 211.357 153.127 202.303 148.132L176.636 324.547C176.636 324.547 259.974 343.225 294.381 318.916L286.088 153.734C286.088 153.734 241.107 132.314 223.701 139.789" fill="#35BBCA"/>
<path d="M278.358 82.0026C278.358 82.0026 244.023 129.026 309.479 128.666C395.496 128.196 369.775 209.232 345.008 209.232C312.697 209.232 232.221 195.598 245.865 135.522C259.508 75.4472 278.358 82.0026 278.358 82.0026Z" fill="#412424"/>
<path d="M286.087 153.735C263.264 145.634 263.227 126.359 263.956 115.068C265.325 93.8901 267.772 73.2086 267.772 73.2086C267.772 73.2086 231.635 62.5535 222.001 69.9553C221.8 67.8559 221.111 86.9115 221.111 86.9115C220.455 87.9726 226.824 112.119 226.597 113.209C226.597 113.209 228.141 151.305 202.302 148.132C202.302 148.132 201.078 181.212 248.284 181.212C276.528 181.212 286.087 153.735 286.087 153.735Z" fill="#FAA5AD"/>
<path d="M263.459 116.912L229.288 95.0222L225.524 107.844C225.651 108.39 225.762 108.885 225.87 109.368C226.059 110.209 226.226 110.966 226.348 111.569C226.378 111.721 226.395 111.828 226.421 111.962C226.543 112.596 226.62 113.07 226.596 113.196C226.596 113.198 226.598 113.205 226.598 113.207C226.598 113.207 226.827 119.642 225.348 126.991C231.824 133.185 249.703 147.753 263.459 116.912" fill="#412424"/>
<path d="M222.001 69.957C222.001 69.957 213.872 123.937 246.749 128.669C246.749 128.669 257.853 128.733 264.626 114.701C271.061 101.371 269 61.3815 269 61.3815L223.352 63.0029L222.001 69.957" fill="#FAA5AD"/>
<path d="M238.045 77.6298C238.045 77.6298 232.881 73.8573 228.928 76.2703C224.976 78.6832 227.162 79.6362 227.791 79.6743C228.421 79.7124 235.405 77.5795 237.111 79.6362C237.111 79.6362 239.686 80.1067 238.045 77.6298" fill="#412424"/>
<path d="M250.392 76.8065C250.392 76.8065 255.555 73.0326 259.508 75.447C263.461 77.86 261.274 78.8115 260.645 78.8511C260.016 78.8891 253.03 76.7563 251.326 78.8115C251.326 78.8115 248.75 79.2819 250.392 76.8065Z" fill="#412424"/>
<path d="M244.979 90.4239L243.076 97.4634H248.284C248.284 97.4634 244.631 93.8036 244.979 90.4239Z" fill="#B15D4D"/>
<path d="M222.68 64.4237C222.68 64.4237 223.254 71.3063 231.701 68.7716C240.147 66.2383 240.211 61.2023 247.219 64.4237C254.225 67.645 262.211 79.9412 269.34 71.6808C276.47 63.422 273.09 55.5391 273.09 55.5391C273.09 55.5391 222.68 43.4636 222.68 64.4237Z" fill="#412424"/>
<path d="M269.315 78.8526C269.315 78.8526 275.464 75.001 276.449 79.6747C277.434 84.3499 268.932 90.4272 268.932 90.4272L269.315 78.8526Z" fill="#FAA5AD"/>
<path d="M221.56 78.8526C221.56 78.8526 215.411 75.001 214.426 79.6747C213.44 84.3499 221.942 90.4272 221.942 90.4272L221.56 78.8526" fill="#FAA5AD"/>
<path d="M413.836 159.39L364.718 213.614V282.314L436.659 170.532L413.836 159.39" fill="#FAA5AD"/>
<path d="M345.009 209.23L364.719 213.612V295.826L345.009 292.871V209.23Z" fill="#35BBCA"/>
<path d="M202.302 148.133C202.302 148.133 177.339 153.5 170.16 163.636C162.979 173.772 162.135 180.906 162.135 180.906C162.135 180.906 173.852 243.674 176.634 276.944C179.682 313.363 171.956 320.943 170.435 323.12C106.474 414.617 105.911 434.589 145.84 444.754C200.271 458.611 222.259 434.324 243.308 419.024C251.57 413.018 181.562 366.36 182.829 346.51C184.096 326.66 194.233 258.241 194.233 258.241L202.302 148.133" fill="#35BBCA"/>
<path d="M295.172 156.959C304.19 160.903 312.827 160.859 319.652 173.219C329.877 191.733 345.007 209.232 345.007 209.232V282.314L306.574 252.532C306.574 252.532 287.799 153.734 295.172 156.959" fill="#35BBCA"/>
<path d="M286.088 153.736C286.088 153.736 258.871 205.492 261.818 256.573C264.764 307.657 319.103 419.149 326.592 433.257C332.678 444.722 393.709 447.948 378.462 435.63C321.405 389.535 354.864 406.745 319.234 331.403C306.93 305.387 305.639 286.983 306.294 282.315C314.177 226.099 298.27 171.908 298.27 167.86C298.27 163.814 295.173 156.96 295.173 156.96L286.088 153.736" fill="#35BBCA"/>
<path d="M345.007 282.314V214.457L337.707 276.657L345.007 282.314Z" fill="#214E37"/>
<path d="M364.718 213.614L375.454 265.632L364.718 282.314V213.614Z" fill="#412424"/>
<path d="M251.055 86.82C251.055 86.82 254.78 88.455 261.818 85.7437C261.818 85.7437 256.438 91.1451 251.055 86.82Z" fill="#34211B"/>
<path d="M238.902 86.82C238.902 86.82 235.18 88.455 228.142 85.7437C228.142 85.7437 233.522 91.1451 238.902 86.82Z" fill="#34211B"/>
<path d="M451.538 139.286C451.538 139.286 467.339 107.31 464.707 104.302C461.925 101.126 450.868 119.479 451.795 122.344C452.723 125.207 451.538 139.286 451.538 139.286Z" fill="#FAA5AD"/>
<path d="M451.202 125.401C451.202 125.401 455.046 107.39 452.673 102.352C451.543 99.9516 444.812 101.022 444.764 106.263C444.699 113.464 443.624 122.941 444.396 124.337C445.854 126.971 451.202 125.401 451.202 125.401" fill="#FAA5AD"/>
<path d="M425.151 106.596C425.151 106.596 404.03 116.632 404.841 117.81C408.043 122.461 428.118 115.762 429.106 112.919C430.097 110.075 425.151 106.596 425.151 106.596" fill="#FAA5AD"/>
<path d="M441.605 102.007C441.605 102.007 421.427 91.7296 421.135 93.1302C419.976 98.6549 432.747 105.661 434.99 109.283C436.575 111.843 441.605 102.007 441.605 102.007Z" fill="#FAA5AD"/>
<path d="M452.885 103.406C452.931 98.6774 438.098 90.892 437.619 92.2409C435.733 97.5616 441.101 97.5128 444.763 106.263C445.925 109.04 452.864 105.557 452.885 103.406" fill="#FAA5AD"/>
<path d="M410.843 151.305C410.843 151.305 400.318 120.691 403.16 119.784C406.002 118.877 415.251 132.432 415.251 132.432L410.843 151.305" fill="#FAA5AD"/>
<path d="M424.538 122.94C424.538 122.94 451.752 109.665 453.916 122.922C456.44 138.365 436.66 170.533 436.66 170.533C436.66 170.533 414.977 160.482 413.837 159.39C412.697 158.299 408.644 147.253 410.559 140.103C411.11 138.041 412.715 133.643 415.251 132.432C423.617 128.438 424.538 122.94 424.538 122.94" fill="#FAA5AD"/>
<path d="M424.36 124.131L425.025 106.653C425.025 106.653 431.438 102.192 433.073 110.197C434.182 115.63 433.039 123.476 433.039 123.476C433.039 123.476 424.219 127.876 424.36 124.131" fill="#FAA5AD"/>
<path d="M435.862 104.835L432.183 125.929C432.183 125.929 441.796 122.217 443.419 118.92C445.039 115.622 441.606 102.008 441.606 102.008L435.862 104.835Z" fill="#FAA5AD"/>
<path d="M415.249 132.433C415.249 132.433 420.477 133.162 424.23 148.133C424.23 148.133 425.869 134.214 421.339 128.197L415.249 132.433" fill="#BD4952"/>
<path d="M409.587 163.991L420.565 162.675L413.836 159.39L409.587 163.991Z" fill="#BD4952"/>
<path d="M255.224 459.5L256.689 411.466L246.754 416.715L255.224 459.5Z" fill="#412424"/>
<path d="M178.833 156.881C178.833 156.881 186.507 223.445 244.193 223.445C301.876 223.445 309.477 162.205 309.477 162.205L284.327 153.069C284.327 153.069 274.916 176.565 250.631 177.199C218.961 178.024 208.029 169.67 202.3 148.13C202.3 148.13 187.139 149.534 178.833 156.881Z" fill="#278B96"/>
<path d="M177.098 283.757L185.734 240.199L174.082 254.357L174.09 254.45C175.178 262.62 176.085 270.366 176.635 276.943C176.836 279.342 176.985 281.6 177.098 283.757" fill="#412424"/>
<path d="M245.493 266.244H242.9V223.446H245.493V266.244Z" fill="#278B96"/>
<path d="M254.645 231.472C254.645 233.104 253.322 234.427 251.689 234.427C250.055 234.427 248.732 233.104 248.732 231.472C248.732 229.839 250.055 228.514 251.689 228.514C253.322 228.514 254.645 229.839 254.645 231.472Z" fill="#278B96"/>
<path d="M254.645 241.888C254.645 243.523 253.322 244.846 251.689 244.846C250.055 244.846 248.732 243.523 248.732 241.888C248.732 240.256 250.055 238.933 251.689 238.933C253.322 238.933 254.645 240.256 254.645 241.888Z" fill="#278B96"/>
<path d="M254.645 252.307C254.645 253.939 253.322 255.264 251.689 255.264C250.055 255.264 248.732 253.939 248.732 252.307C248.732 250.675 250.055 249.351 251.689 249.351C253.322 249.351 254.645 250.675 254.645 252.307Z" fill="#278B96"/>
<path d="M54.6987 182.392L73.9629 163.99L69.7124 159.389L50.5457 176.213L50.8806 176.775L49.9033 175.336C48.8224 173.748 46.6606 173.337 45.0728 174.417L44.5323 174.782C42.9445 175.863 42.5335 178.025 43.6128 179.612L49.678 188.532C50.7573 190.118 52.9191 190.531 54.5069 189.452L55.0458 189.085C56.6337 188.004 57.0462 185.842 55.9654 184.256L54.6987 182.392" fill="#412424"/>
<path d="M578.137 354.961H-133.191V337.507H578.137V354.961Z" fill="#5D9E78"/>
<path d="M503.099 325.572C488.847 288.187 506.502 240.516 506.683 240.038L508.569 240.744C508.388 241.214 490.999 288.195 504.985 324.851L503.099 325.572Z" fill="#394273"/>
<path d="M498.51 300.979C485.585 300.979 471.701 293.963 471.119 293.663L472.031 291.871C472.173 291.943 486.079 298.968 498.51 298.968V300.979Z" fill="#394273"/>
<path d="M493.583 280.155C493.583 280.155 487.16 295.126 475.491 294.915C463.821 294.706 423.275 259.835 433.36 249.33C443.442 238.827 484.272 262.246 493.583 280.155Z" fill="#394273"/>
<path d="M493.119 281.127C492.957 280.059 492.737 279.067 492.434 278.181C491.198 276.22 489.617 274.217 487.784 272.21C481.229 268.049 469.584 269.248 456.258 268.747C440.061 268.138 435.212 254.089 433.959 248.816C433.757 248.985 433.544 249.14 433.36 249.33C423.275 259.835 463.821 294.706 475.491 294.915C485.378 295.094 491.479 284.406 493.119 281.127" fill="#798BF2" fill-opacity="0.82"/>
<path d="M476.246 322.198H532.107C532.107 322.198 537.307 337.507 502.317 337.507C502.317 337.507 478.431 339.655 476.246 322.198Z" fill="#412424"/>
<path d="M201.688 323.311H72.9091C72.224 323.311 71.6699 322.756 71.6699 322.07V249.389C71.6699 248.705 72.224 248.149 72.9091 248.149H201.688C202.373 248.149 202.928 248.705 202.928 249.389V322.07C202.928 322.756 202.373 323.311 201.688 323.311Z" fill="#F2CD13"/>
<path d="M78.2216 323.311H196.375C199.993 323.311 202.928 320.377 202.928 316.757V254.702C202.928 254.152 202.743 253.662 202.615 253.152L76.5576 322.974C77.1011 323.12 77.6309 323.311 78.2216 323.311" fill="#F2CD13"/>
<path d="M149.089 285.728C149.089 292.241 143.811 297.519 137.3 297.519C130.787 297.519 125.509 292.241 125.509 285.728C125.509 279.217 130.787 273.939 137.3 273.939C143.811 273.939 149.089 279.217 149.089 285.728Z" fill="#F5F5EE"/>
<path d="M49.484 332.799L46.6387 329.939L70.8399 305.881H206.2L192.873 332.274L189.274 330.466L199.663 309.903H72.5053L49.484 332.799" fill="#412424"/>
<path d="M199.664 309.901L196.218 316.72H71.6699V309.901H199.664Z" fill="#D39728"/>
<path d="M-8.80762 288.575L-2.80079 337.507H18.6068L24.6141 288.575H-8.80762Z" fill="#F68A74"/>
<path d="M28.2175 288.575H-13.7227V280.156H28.2175V288.575Z" fill="#F68A74"/>
<path d="M24.6141 288.576L-7.69674 297.633L-8.80762 288.576H24.6141Z" fill="#D87763"/>
<path d="M323.553 326.506C323.553 326.506 370.084 311.707 387.558 326.506V336.499H323.553V326.506Z" fill="#F2CD13"/>
<path d="M451.564 326.506C451.564 326.506 405.034 311.707 387.558 326.506V336.499H451.564V326.506Z" fill="#F2CD13"/>
<path d="M452.571 337.507H322.544V326.506H324.557V335.496H450.559V326.506H452.571V337.507" fill="#412424"/>
<path d="M387.558 326.506L408.528 335.495L387.558 336.499V326.506Z" fill="#F2CD13"/>
<path d="M193.22 338.059H46.6387V329.939H193.22V338.059Z" fill="#412424"/>
<path d="M5.19124 -78.3022C-31.8399 -78.3022 -61.9657 -48.1759 -61.9657 -11.1442C-61.9657 25.8876 -31.8399 56.0139 5.19124 56.0139C42.2245 56.0139 72.3493 25.8876 72.3493 -11.1442C72.3493 -48.1759 42.2245 -78.3022 5.19124 -78.3022ZM5.19124 58.0249C-32.9477 58.0249 -63.9775 26.9959 -63.9775 -11.1442C-63.9775 -49.2842 -32.9477 -80.3133 5.19124 -80.3133C43.3328 -80.3133 74.3603 -49.2842 74.3603 -11.1442C74.3603 26.9959 43.3328 58.0249 5.19124 58.0249Z" fill="#878682"/>
<path d="M24.5696 485.387C22.3789 481.296 26.7146 461.787 26.7146 461.787L35.9965 472.276C35.9965 472.276 35.6707 472.986 35.1957 473.961C38.8433 471.353 42.7482 469.518 46.5435 469.221C50.3388 469.518 54.2422 471.353 57.8898 473.961C57.4163 472.986 57.089 472.276 57.089 472.276L66.3709 461.787C66.3709 461.787 70.7066 481.296 68.5175 485.387C71.2775 489.86 73.0587 494.652 73.0587 498.966C73.0587 504.557 59.0102 514.454 46.5435 515.043C34.0768 514.454 20.0283 504.557 20.0283 498.966C20.0283 494.652 21.808 489.86 24.5696 485.387" fill="#412424"/>
</g>
</g>
</svg>
