<svg width="42" height="42" viewBox="0 0 42 42" fill="none" xmlns="http://www.w3.org/2000/svg">
<path d="M37.9709 21.6562L25.6881 15.515L25.6713 8.42201C25.6714 7.79105 25.5473 7.16624 25.306 6.58325C25.0646 6.00026 24.7108 5.47052 24.2648 5.02426C23.3639 4.12299 22.142 3.6165 20.8677 3.6162C20.2367 3.61606 19.6119 3.74019 19.0289 3.98151C18.4459 4.22283 17.9162 4.57662 17.4699 5.02267C16.5687 5.92351 16.0622 7.14549 16.0619 8.41977L16.0454 15.515L3.76252 21.6562C3.60293 21.736 3.46872 21.8588 3.37492 22.0106C3.28112 22.1624 3.23144 22.3373 3.23145 22.5158V27.6408C3.23146 27.7829 3.26301 27.9233 3.32384 28.0518C3.38467 28.1803 3.47325 28.2937 3.5832 28.3839C3.69316 28.474 3.82174 28.5386 3.95968 28.573C4.09762 28.6075 4.24148 28.6108 4.38089 28.583L16.0439 26.2506V29.8054L13.763 32.0864C13.6737 32.1756 13.6029 32.2815 13.5546 32.3981C13.5063 32.5146 13.4815 32.6396 13.4814 32.7658V37.8908C13.4815 38.0478 13.52 38.2024 13.5936 38.3412C13.6672 38.4799 13.7737 38.5984 13.9037 38.6864C14.0338 38.7745 14.1834 38.8293 14.3396 38.8461C14.4957 38.8629 14.6536 38.8412 14.7994 38.7828L20.8486 36.3634L26.8979 38.7832C27.0437 38.8415 27.2016 38.8632 27.3578 38.8464C27.5139 38.8296 27.6636 38.7747 27.7937 38.6867C27.9237 38.5986 28.0302 38.48 28.1038 38.3413C28.1774 38.2025 28.2159 38.0478 28.2158 37.8908V32.7658C28.2158 32.5133 28.1164 32.2709 27.9391 32.0912L25.6895 29.8093V26.2504L37.3526 28.583C37.492 28.6108 37.6358 28.6075 37.7738 28.573C37.9117 28.5386 38.0403 28.474 38.1503 28.3839C38.2602 28.2937 38.3488 28.1803 38.4096 28.0518C38.4704 27.9233 38.502 27.7829 38.502 27.6408V22.5158C38.502 22.3373 38.4523 22.1623 38.3585 22.0105C38.2646 21.8587 38.1304 21.736 37.9708 21.6562H37.9709ZM36.5801 26.4686L24.9169 24.1361C24.7775 24.1082 24.6337 24.1116 24.4958 24.1461C24.3578 24.1805 24.2293 24.2451 24.1193 24.3352C24.0094 24.4254 23.9208 24.5388 23.86 24.6672C23.7992 24.7957 23.7677 24.9361 23.7676 25.0783V30.2033C23.7676 30.4557 23.867 30.6981 24.0442 30.8778L26.2939 33.1597V36.4715L21.2056 34.436C20.9765 34.3444 20.7209 34.3444 20.4918 34.436L15.4033 36.4715V33.1638L17.6843 30.8828C17.7735 30.7936 17.8444 30.6877 17.8927 30.5711C17.941 30.4545 17.9658 30.3295 17.9658 30.2033V25.0783C17.9658 24.9361 17.9343 24.7957 17.8734 24.6672C17.8126 24.5387 17.724 24.4253 17.6141 24.3352C17.5041 24.245 17.3755 24.1804 17.2376 24.146C17.0996 24.1116 16.9558 24.1082 16.8164 24.1361L5.15332 26.4684V23.1095L17.4347 16.9689C17.594 16.8893 17.728 16.767 17.8218 16.6156C17.9155 16.4642 17.9654 16.2898 17.9658 16.1118L17.9838 8.42201C17.9841 7.65744 18.2881 6.92431 18.8289 6.38388C19.0967 6.11629 19.4146 5.90407 19.7644 5.75933C20.1142 5.61459 20.4891 5.54017 20.8677 5.54032C21.2463 5.54047 21.6211 5.61518 21.9708 5.76019C22.3205 5.9052 22.6382 6.11767 22.9058 6.38547C23.1734 6.65327 23.3856 6.97115 23.5304 7.32096C23.6751 7.67078 23.7495 8.04568 23.7494 8.42425L23.7676 16.1118C23.768 16.2898 23.8179 16.4643 23.9117 16.6157C24.0054 16.7671 24.1394 16.8894 24.2987 16.9691L36.5801 23.1096V26.4686Z" fill="#394273"/>
</svg>
