<svg width="69" height="69" viewBox="0 0 69 69" fill="none" xmlns="http://www.w3.org/2000/svg">
<path d="M66.0424 38.6964C65.7044 38.9502 65.2795 39.0594 64.8611 39C64.4427 38.9406 64.065 38.7174 63.8111 38.3795C62.4807 36.5917 60.7492 35.1412 58.7559 34.1446C56.7627 33.1481 54.5633 32.6334 52.3348 32.642C51.9121 32.642 51.5067 32.4741 51.2078 32.1752C50.9089 31.8763 50.741 31.471 50.741 31.0483C50.741 30.6256 50.9089 30.2202 51.2078 29.9213C51.5067 29.6224 51.9121 29.4545 52.3348 29.4545C53.6451 29.4542 54.9282 29.0812 56.0345 28.379C57.1407 27.6768 58.0244 26.6744 58.5823 25.4888C59.1402 24.3032 59.3493 22.9834 59.1852 21.6834C59.0211 20.3834 58.4906 19.1569 57.6556 18.1472C56.8206 17.1374 55.7155 16.386 54.4695 15.9807C53.2235 15.5754 51.8878 15.5329 50.6186 15.8583C49.3493 16.1836 48.1988 16.8633 47.3013 17.818C46.4039 18.7727 45.7965 19.963 45.5502 21.2499C45.5112 21.4555 45.432 21.6515 45.3172 21.8265C45.2025 22.0015 45.0544 22.1523 44.8814 22.2701C44.7084 22.3879 44.5139 22.4704 44.3089 22.5131C44.104 22.5557 43.8927 22.5576 43.6871 22.5185C43.4815 22.4795 43.2855 22.4003 43.1105 22.2856C42.9354 22.1708 42.7847 22.0227 42.6669 21.8497C42.5491 21.6767 42.4665 21.4822 42.4239 21.2773C42.3813 21.0724 42.3794 20.8611 42.4185 20.6554C42.724 19.0483 43.4156 17.5395 44.4336 16.259C45.4517 14.9785 46.7657 13.9646 48.2626 13.3046C49.7594 12.6447 51.3943 12.3584 53.0263 12.4705C54.6584 12.5826 56.2387 13.0897 57.6313 13.9482C59.0239 14.8066 60.1869 15.9907 61.0203 17.3983C61.8537 18.806 62.3325 20.3952 62.4154 22.029C62.4983 23.6628 62.1829 25.2923 61.4963 26.7771C60.8096 28.2619 59.7724 29.5576 58.4739 30.5526C61.616 31.7246 64.3537 33.7774 66.3592 36.4652C66.6131 36.8031 66.7223 37.228 66.6628 37.6464C66.6034 38.0648 66.3802 38.4425 66.0424 38.6964ZM50.9958 56.9122C51.0888 57.1005 51.1438 57.3053 51.1574 57.5149C51.1711 57.7245 51.1432 57.9348 51.0753 58.1336C51.0074 58.3323 50.9009 58.5157 50.7619 58.6732C50.6228 58.8307 50.4541 58.9591 50.2653 59.0511C50.0764 59.1432 49.8713 59.1969 49.6616 59.2094C49.4519 59.2219 49.2419 59.1928 49.0435 59.1237C48.8451 59.0547 48.6623 58.9472 48.5056 58.8073C48.3489 58.6674 48.2214 58.4979 48.1305 58.3086C46.8654 55.71 44.8952 53.5195 42.4448 51.987C39.9944 50.4546 37.1624 49.642 34.2723 49.642C31.3821 49.642 28.5502 50.4546 26.0998 51.987C23.6493 53.5195 21.6792 55.71 20.4141 58.3086C20.3231 58.4979 20.1957 58.6674 20.039 58.8073C19.8823 58.9472 19.6995 59.0547 19.5011 59.1237C19.3027 59.1928 19.0926 59.2219 18.8829 59.2094C18.6733 59.1969 18.4681 59.1432 18.2793 59.0511C18.0905 58.9591 17.9217 58.8307 17.7827 58.6732C17.6437 58.5157 17.5372 58.3323 17.4693 58.1336C17.4014 57.9348 17.3735 57.7245 17.3871 57.5149C17.4008 57.3053 17.4557 57.1005 17.5488 56.9122C19.6025 52.6563 23.2076 49.3482 27.624 47.6671C25.4125 46.233 23.7241 44.1223 22.8107 41.65C21.8972 39.1776 21.8077 36.4762 22.5555 33.9488C23.3032 31.4214 24.8482 29.2035 26.9598 27.6262C29.0714 26.0488 31.6364 25.1966 34.2721 25.1966C36.9078 25.1966 39.4729 26.0488 41.5845 27.6262C43.6961 29.2035 45.2411 31.4214 45.9888 33.9488C46.7366 36.4762 46.6471 39.1776 45.7336 41.65C44.8202 44.1223 43.1318 46.233 40.9203 47.6671C45.3368 49.3481 48.9421 52.6562 50.9958 56.9122ZM34.2723 46.4545C36.0585 46.4545 37.8046 45.9249 39.2898 44.9325C40.775 43.9401 41.9325 42.5296 42.6161 40.8794C43.2996 39.2291 43.4785 37.4133 43.13 35.6614C42.7815 33.9095 41.9214 32.3003 40.6583 31.0372C39.3953 29.7742 37.7861 28.914 36.0342 28.5656C34.2823 28.2171 32.4664 28.3959 30.8162 29.0795C29.1659 29.763 27.7554 30.9206 26.7631 32.4058C25.7707 33.891 25.241 35.6371 25.241 37.4233C25.2437 39.8177 26.1961 42.1133 27.8892 43.8064C29.5823 45.4995 31.8779 46.4519 34.2723 46.4545ZM16.2098 29.4545C14.8995 29.4542 13.6163 29.0812 12.5101 28.379C11.4038 27.6768 10.5202 26.6744 9.9623 25.4888C9.40441 24.3032 9.1953 22.9834 9.35939 21.6834C9.52348 20.3834 10.054 19.1569 10.889 18.1472C11.724 17.1374 12.829 16.386 14.0751 15.9807C15.3211 15.5754 16.6567 15.5329 17.926 15.8583C19.1952 16.1836 20.3458 16.8633 21.2432 17.818C22.1407 18.7727 22.748 19.963 22.9944 21.2499C23.0733 21.6652 23.3139 22.0321 23.6634 22.27C24.0128 22.5079 24.4424 22.5972 24.8577 22.5183C25.273 22.4394 25.64 22.1987 25.8778 21.8493C26.1157 21.4998 26.205 21.0702 26.1261 20.6549C25.8205 19.0478 25.1288 17.5391 24.1107 16.2587C23.0926 14.9782 21.7786 13.9644 20.2817 13.3046C18.7849 12.6447 17.15 12.3585 15.518 12.4707C13.886 12.5828 12.3057 13.0899 10.9132 13.9484C9.52066 14.8068 8.35765 15.9909 7.52429 17.3986C6.69092 18.8062 6.21218 20.3954 6.12928 22.0291C6.04638 23.6629 6.36181 25.2923 7.0484 26.7771C7.735 28.2619 8.77218 29.5576 10.0707 30.5526C6.92832 31.7246 4.1904 33.7775 2.18478 36.4654C2.05907 36.6328 1.96754 36.8232 1.91543 37.0259C1.86332 37.2286 1.85164 37.4396 1.88107 37.6468C1.91049 37.854 1.98044 38.0534 2.08693 38.2336C2.19341 38.4138 2.33434 38.5712 2.50167 38.6969C2.669 38.8227 2.85946 38.9142 3.06216 38.9663C3.26486 39.0184 3.47584 39.0301 3.68306 39.0007C3.89028 38.9712 4.08967 38.9013 4.26985 38.7948C4.45003 38.6883 4.60747 38.5474 4.73319 38.3801C6.06351 36.5921 7.79503 35.1414 9.78837 34.1448C11.7817 33.1481 13.9812 32.6334 16.2098 32.642C16.6325 32.642 17.0378 32.4741 17.3367 32.1752C17.6356 31.8763 17.8035 31.471 17.8035 31.0483C17.8035 30.6256 17.6356 30.2202 17.3367 29.9213C17.0378 29.6224 16.6325 29.4545 16.2098 29.4545Z" fill="#278B96"/>
</svg>
