<svg width="43" height="43" viewBox="0 0 43 43" fill="none" xmlns="http://www.w3.org/2000/svg">
<path d="M38.1807 28.3595H36.54V12.2814C36.539 11.3244 36.1583 10.407 35.4817 9.73036C34.805 9.0537 33.8876 8.67308 32.9307 8.672H9.30566C8.34873 8.67308 7.4313 9.0537 6.75465 9.73036C6.078 10.407 5.69737 11.3244 5.69629 12.2814V28.3595H4.05566C3.79459 28.3595 3.54421 28.4632 3.35961 28.6478C3.175 28.8324 3.07129 29.0828 3.07129 29.3439V31.9689C3.07237 32.9258 3.453 33.8432 4.12965 34.5199C4.8063 35.1965 5.72373 35.5772 6.68066 35.5782H35.5557C36.5126 35.5772 37.43 35.1965 38.1067 34.5199C38.7833 33.8432 39.164 32.9258 39.165 31.9689V29.3439C39.165 29.0828 39.0613 28.8324 38.8767 28.6478C38.6921 28.4632 38.4417 28.3595 38.1807 28.3595ZM7.66504 12.2814C7.66552 11.8464 7.83852 11.4294 8.14609 11.1218C8.45367 10.8142 8.87069 10.6412 9.30566 10.6407H32.9307C33.3656 10.6412 33.7827 10.8142 34.0902 11.1218C34.3978 11.4294 34.5708 11.8464 34.5713 12.2814V28.3595H7.66504V12.2814ZM37.1963 31.9689C37.1958 32.4038 37.0228 32.8209 36.7152 33.1284C36.4077 33.436 35.9906 33.609 35.5557 33.6095H6.68066C6.24569 33.609 5.82867 33.436 5.52109 33.1284C5.21352 32.8209 5.04052 32.4038 5.04004 31.9689V30.3282H37.1963V31.9689ZM24.7275 14.9064C24.7275 15.1674 24.6238 15.4178 24.4392 15.6024C24.2546 15.787 24.0042 15.8907 23.7432 15.8907H18.4932C18.2321 15.8907 17.9817 15.787 17.7971 15.6024C17.6125 15.4178 17.5088 15.1674 17.5088 14.9064C17.5088 14.6453 17.6125 14.3949 17.7971 14.2103C17.9817 14.0257 18.2321 13.922 18.4932 13.922H23.7432C24.0042 13.922 24.2546 14.0257 24.4392 14.2103C24.6238 14.3949 24.7275 14.6453 24.7275 14.9064Z" fill="#394273"/>
</svg>
