<svg width="43" height="43" viewBox="0 0 43 43" fill="none" xmlns="http://www.w3.org/2000/svg">
<path d="M28.2071 27.006C28.3009 27.0957 28.376 27.203 28.4281 27.3218C28.4803 27.4407 28.5084 27.5686 28.5109 27.6983C28.5134 27.8281 28.4902 27.957 28.4427 28.0777C28.3952 28.1985 28.3243 28.3086 28.2341 28.4019C28.1438 28.4951 28.036 28.5696 27.9169 28.621C27.7978 28.6725 27.6697 28.6999 27.54 28.7016C27.4102 28.7033 27.2814 28.6794 27.161 28.6312C27.0405 28.583 26.9307 28.5115 26.838 28.4207C25.4717 27.118 23.6563 26.3912 21.7685 26.3912C19.8807 26.3912 18.0653 27.118 16.699 28.4207C16.6065 28.5124 16.4967 28.5849 16.3759 28.6339C16.2552 28.6829 16.126 28.7074 15.9957 28.706C15.8654 28.7047 15.7367 28.6775 15.617 28.626C15.4973 28.5746 15.389 28.4999 15.2984 28.4062C15.2078 28.3126 15.1367 28.2019 15.0892 28.0806C15.0417 27.9593 15.0188 27.8298 15.0217 27.6995C15.0247 27.5693 15.0534 27.4409 15.1064 27.3218C15.1593 27.2028 15.2353 27.0954 15.33 27.006C17.0635 25.3479 19.3698 24.4225 21.7686 24.4225C24.1674 24.4225 26.4737 25.3479 28.2071 27.006ZM21.7685 16.5475C17.275 16.5298 12.9568 18.2896 9.75568 21.4431C9.56956 21.6262 9.46378 21.8757 9.46163 22.1368C9.45948 22.3978 9.56112 22.6491 9.7442 22.8352C9.92727 23.0213 10.1768 23.1271 10.4379 23.1292C10.6989 23.1314 10.9501 23.0297 11.1363 22.8467C13.9791 20.0705 17.795 18.5163 21.7685 18.5163C25.742 18.5163 29.5579 20.0705 32.4007 22.8467C32.5869 23.0297 32.8381 23.1314 33.0991 23.1292C33.3602 23.1271 33.6097 23.0213 33.7928 22.8352C33.9759 22.6491 34.0775 22.3978 34.0754 22.1368C34.0732 21.8757 33.9674 21.6262 33.7813 21.4431C30.5802 18.2896 26.2621 16.5298 21.7687 16.5475H21.7685ZM39.3475 15.8766C34.6611 11.2602 28.3468 8.67247 21.7685 8.67247C15.1902 8.67247 8.87592 11.2602 4.18953 15.8766C4.09763 15.9676 4.02454 16.0757 3.97443 16.1949C3.92432 16.314 3.89817 16.4419 3.89748 16.5712C3.89678 16.7004 3.92156 16.8286 3.97039 16.9483C4.01922 17.068 4.09115 17.1769 4.18207 17.2688C4.27299 17.3607 4.38112 17.4338 4.50029 17.4839C4.61945 17.534 4.74732 17.5602 4.8766 17.5609C5.00587 17.5615 5.13401 17.5368 5.25371 17.4879C5.37341 17.4391 5.48232 17.3672 5.57422 17.2763C9.892 13.0244 15.7087 10.6412 21.7686 10.6412C27.8284 10.6412 33.6452 13.0244 37.9629 17.2763C38.0546 17.3681 38.1636 17.4409 38.2835 17.4905C38.4035 17.5401 38.532 17.5655 38.6618 17.5652C38.7916 17.5649 38.92 17.5389 39.0397 17.4888C39.1594 17.4387 39.2681 17.3654 39.3594 17.2732C39.4506 17.1809 39.5228 17.0715 39.5716 16.9513C39.6205 16.831 39.645 16.7023 39.644 16.5725C39.6429 16.4428 39.6161 16.3145 39.5653 16.1951C39.5144 16.0757 39.4404 15.9675 39.3476 15.8768L39.3475 15.8766ZM21.7698 31.6408C21.4453 31.6408 21.1281 31.737 20.8583 31.9172C20.5885 32.0975 20.3782 32.3538 20.2541 32.6535C20.1299 32.9533 20.0974 33.2832 20.1607 33.6014C20.224 33.9197 20.3803 34.212 20.6097 34.4415C20.8392 34.6709 21.1315 34.8272 21.4497 34.8905C21.768 34.9538 22.0979 34.9213 22.3976 34.7971C22.6974 34.6729 22.9537 34.4627 23.1339 34.1929C23.3142 33.9231 23.4104 33.6059 23.4104 33.2814C23.41 32.8464 23.237 32.4294 22.9294 32.1218C22.6218 31.8142 22.2048 31.6412 21.7698 31.6408Z" fill="#394273"/>
</svg>
