<svg width="69" height="69" viewBox="0 0 69 69" fill="none" xmlns="http://www.w3.org/2000/svg">
<path d="M66.0222 46.2275H64.9597V37.7275C64.9582 36.6008 64.51 35.5207 63.7133 34.724C62.9166 33.9273 61.8364 33.479 60.7097 33.4775V15.415C60.7082 14.2883 60.26 13.2082 59.4633 12.4115C58.6666 11.6148 57.5864 11.1665 56.4597 11.165H11.8347C10.708 11.1665 9.62785 11.6148 8.83114 12.4115C8.03443 13.2082 7.58619 14.2883 7.58472 15.415V33.4775C6.458 33.479 5.37785 33.9273 4.58114 34.724C3.78443 35.5207 3.33619 36.6008 3.33472 37.7275V46.2275H2.27222C1.99042 46.2275 1.72017 46.3395 1.52092 46.5387C1.32166 46.738 1.20972 47.0082 1.20972 47.29V51.54C1.20972 51.8218 1.32166 52.0921 1.52092 52.2913C1.72017 52.4906 1.99042 52.6025 2.27222 52.6025H3.33472V56.8525C3.33472 57.1343 3.44666 57.4046 3.64592 57.6038C3.84517 57.8031 4.11542 57.915 4.39722 57.915H7.58472C7.83028 57.9152 8.06829 57.8301 8.25816 57.6744C8.44803 57.5187 8.57802 57.3019 8.62597 57.0611L9.51847 52.6025H58.776L59.6685 57.0611C59.7164 57.3019 59.8464 57.5187 60.0363 57.6744C60.2262 57.8301 60.4642 57.9152 60.7097 57.915H63.8972C64.179 57.915 64.4493 57.8031 64.6485 57.6038C64.8478 57.4046 64.9597 57.1343 64.9597 56.8525V52.6025H66.0222C66.304 52.6025 66.5743 52.4906 66.7735 52.2913C66.9728 52.0921 67.0847 51.8218 67.0847 51.54V47.29C67.0847 47.0082 66.9728 46.738 66.7735 46.5387C66.5743 46.3395 66.304 46.2275 66.0222 46.2275ZM9.70972 15.415C9.71045 14.8517 9.93458 14.3116 10.3329 13.9133C10.7313 13.5149 11.2714 13.2908 11.8347 13.29H56.4597C57.0231 13.2908 57.5632 13.5149 57.9615 13.9133C58.3599 14.3116 58.584 14.8517 58.5847 15.415V33.4775H56.4597V29.2275C56.4582 28.1008 56.01 27.0207 55.2133 26.224C54.4166 25.4273 53.3364 24.979 52.2097 24.9775H39.4597C38.333 24.979 37.2529 25.4273 36.4561 26.224C35.6594 27.0207 35.2112 28.1008 35.2097 29.2275V33.4775H33.0847V29.2275C33.0832 28.1008 32.635 27.0207 31.8383 26.224C31.0416 25.4273 29.9614 24.979 28.8347 24.9775H16.0847C14.958 24.979 13.8779 25.4273 13.0811 26.224C12.2844 27.0207 11.8362 28.1008 11.8347 29.2275V33.4775H9.70972V15.415ZM54.3347 29.2275V33.4775H37.3347V29.2275C37.3355 28.6642 37.5596 28.1241 37.9579 27.7258C38.3563 27.3274 38.8964 27.1033 39.4597 27.1025H52.2097C52.7731 27.1033 53.3132 27.3274 53.7115 27.7258C54.1099 28.1241 54.334 28.6642 54.3347 29.2275ZM30.9597 29.2275V33.4775H13.9597V29.2275C13.9605 28.6642 14.1846 28.1241 14.5829 27.7258C14.9813 27.3274 15.5214 27.1033 16.0847 27.1025H28.8347C29.3981 27.1033 29.9381 27.3274 30.3365 27.7258C30.7349 28.1241 30.959 28.6642 30.9597 29.2275ZM5.45972 37.7275C5.46045 37.1642 5.68458 36.6241 6.08293 36.2257C6.48129 35.8274 7.02136 35.6033 7.58472 35.6025H60.7097C61.2731 35.6033 61.8132 35.8274 62.2115 36.2257C62.6099 36.6241 62.834 37.1642 62.8347 37.7275V46.2275H5.45972V37.7275ZM6.71347 55.79H5.45972V52.6025H7.35097L6.71347 55.79ZM62.8347 55.79H61.581L60.9435 52.6025H62.8347V55.79ZM64.9597 50.4775H3.33472V48.3525H64.9597V50.4775Z" fill="white"/>
</svg>
