<svg width="53" height="52" viewBox="0 0 53 52" fill="none" xmlns="http://www.w3.org/2000/svg">
<g clip-path="url(#clip0)">
<g filter="url(#filter0_d)">
<path d="M26.4336 5.52356C22.3358 5.52356 18.3301 6.71532 14.9229 8.94815C11.5157 11.181 8.86013 14.3546 7.29197 18.0676C5.72382 21.7807 5.31352 25.8664 6.11296 29.8082C6.9124 33.7499 8.88566 37.3707 11.7832 40.2125C14.6808 43.0544 18.3725 44.9897 22.3916 45.7737C26.4106 46.5578 30.5765 46.1554 34.3623 44.6174C38.1482 43.0794 41.384 40.4749 43.6606 37.1332C45.9372 33.7916 47.1524 29.8629 47.1524 25.8439C47.1462 20.4565 44.9613 15.2914 41.0771 11.4819C37.193 7.67245 31.9267 5.52962 26.4336 5.52356ZM26.4336 43.7736C22.8179 43.7736 19.2834 42.722 16.2771 40.7519C13.2707 38.7817 10.9276 35.9815 9.54393 32.7053C8.16027 29.429 7.79824 25.824 8.50362 22.346C9.20901 18.8679 10.9501 15.6732 13.5068 13.1657C16.0635 10.6582 19.3209 8.95052 22.8671 8.2587C26.4133 7.56688 30.0891 7.92195 33.4295 9.279C36.77 10.6361 39.6251 12.9341 41.6339 15.8827C43.6427 18.8312 44.7149 22.2977 44.7149 25.8439C44.7094 30.5975 42.7816 35.1548 39.3543 38.5161C35.9271 41.8774 31.2804 43.7682 26.4336 43.7736ZM35.7774 25.8439C35.7774 26.1609 35.6489 26.4649 35.4204 26.6891C35.1918 26.9133 34.8818 27.0392 34.5586 27.0392H27.6524V33.8126C27.6524 34.1296 27.5239 34.4337 27.2954 34.6578C27.0668 34.882 26.7568 35.0079 26.4336 35.0079C26.1104 35.0079 25.8004 34.882 25.5718 34.6578C25.3433 34.4337 25.2149 34.1296 25.2149 33.8126V27.0392H18.3086C17.9854 27.0392 17.6754 26.9133 17.4468 26.6891C17.2183 26.4649 17.0899 26.1609 17.0899 25.8439C17.0899 25.5269 17.2183 25.2228 17.4468 24.9987C17.6754 24.7745 17.9854 24.6486 18.3086 24.6486H25.2149V17.8751C25.2149 17.5581 25.3433 17.2541 25.5718 17.0299C25.8004 16.8057 26.1104 16.6798 26.4336 16.6798C26.7568 16.6798 27.0668 16.8057 27.2954 17.0299C27.5239 17.2541 27.6524 17.5581 27.6524 17.8751V24.6486H34.5586C34.8818 24.6486 35.1918 24.7745 35.4204 24.9987C35.6489 25.2228 35.7774 25.5269 35.7774 25.8439Z" fill="#394273"/>
</g>
</g>
<defs>
<filter id="filter0_d" x="-0.285156" y="0.52356" width="53.4375" height="52.6406" filterUnits="userSpaceOnUse" color-interpolation-filters="sRGB">
<feFlood flood-opacity="0" result="BackgroundImageFix"/>
<feColorMatrix in="SourceAlpha" type="matrix" values="0 0 0 0 0 0 0 0 0 0 0 0 0 0 0 0 0 0 127 0" result="hardAlpha"/>
<feOffset dy="1"/>
<feGaussianBlur stdDeviation="3"/>
<feComposite in2="hardAlpha" operator="out"/>
<feColorMatrix type="matrix" values="0 0 0 0 0 0 0 0 0 0 0 0 0 0 0 0 0 0 0.25 0"/>
<feBlend mode="normal" in2="BackgroundImageFix" result="effect1_dropShadow"/>
<feBlend mode="normal" in="SourceGraphic" in2="effect1_dropShadow" result="shape"/>
</filter>
<clipPath id="clip0">
<rect width="52" height="51" fill="white" transform="translate(0.433594 0.343872)"/>
</clipPath>
</defs>
</svg>
