<svg width="858" height="720" viewBox="0 0 858 720" fill="none" xmlns="http://www.w3.org/2000/svg">
<g clip-path="url(#clip0)">
<path d="M303.094 719.728L-36.983 -110.388L1059.23 -171.209L1229.02 720.779L303.094 719.728Z" fill="url(#paint0_linear)" fill-opacity="0.7"/>
<path d="M753.475 274.492L754.487 274.504C754.626 274.506 754.761 274.488 754.889 274.453C755.516 274.285 755.981 273.717 755.989 273.036C755.998 272.216 755.342 271.544 754.521 271.534L753.51 271.523C752.692 271.513 752.018 272.17 752.008 272.99C751.999 273.81 752.656 274.483 753.475 274.492Z" fill="white" fill-opacity="0.5"/>
<path d="M716.391 292.425C716.179 291.633 715.364 291.163 714.571 291.375L712.205 292.009C711.414 292.221 710.942 293.036 711.154 293.828C711.367 294.621 712.182 295.09 712.974 294.878L715.34 294.244C716.133 294.031 716.603 293.217 716.391 292.425Z" fill="white" fill-opacity="0.5"/>
<path d="M734.044 310.605C734.287 311.172 734.524 311.716 734.754 312.233C735.302 313.463 735.811 314.542 736.288 315.486L727.629 319.506L726.978 317.965L734.044 310.605ZM724.923 258.092C727.555 257.387 730.626 259.948 731.637 263.689C731.78 264.296 734.678 276.67 737.17 289.489C740.094 304.532 740.811 311.713 740.86 315.132C740.862 315.165 740.856 315.197 740.858 315.23C740.859 315.234 740.861 315.238 740.862 315.243C740.872 316.17 740.832 316.81 740.775 317.251C740.504 316.898 740.149 316.364 739.694 315.557C739.692 315.552 739.691 315.547 739.689 315.543C739.674 315.511 739.654 315.485 739.637 315.454C737.97 312.467 735.002 305.891 730.017 291.414C725.765 279.066 722.087 266.894 721.906 266.296C720.912 262.551 722.29 258.797 724.923 258.092ZM753.079 310.971L753.284 312.631L743.776 313.479C743.718 312.423 743.618 311.234 743.478 309.896C743.42 309.332 743.353 308.743 743.278 308.131L753.079 310.971ZM709.828 294.183C709.616 293.391 708.802 292.921 708.01 293.133L697.265 296.012L696.607 293.556L722.513 278.205C723.493 281.269 724.628 284.749 725.839 288.356L718.803 290.241C718.011 290.453 717.541 291.268 717.753 292.059C717.966 292.852 718.78 293.322 719.572 293.109L726.794 291.174C727.112 292.104 727.434 293.037 727.757 293.969C729.612 299.298 731.302 303.861 732.805 307.607L724.159 316.615C723.747 317.043 723.63 317.675 723.862 318.222L725.494 322.078C725.651 322.449 725.951 322.741 726.327 322.886C726.623 322.999 726.944 323.015 727.245 322.934C727.327 322.912 727.408 322.884 727.486 322.848L737.745 318.083C739.21 320.367 740.41 321.11 741.715 320.76C743.018 320.411 743.687 319.167 743.813 316.457L755.079 315.454C755.166 315.446 755.25 315.43 755.331 315.408C755.633 315.327 755.904 315.153 756.102 314.907C756.355 314.594 756.47 314.191 756.42 313.792L755.906 309.636C755.833 309.046 755.417 308.558 754.846 308.392L742.852 304.915C742.282 300.919 741.463 296.122 740.405 290.58C740.22 289.611 740.031 288.643 739.842 287.678L770.038 279.587C770.83 279.375 771.301 278.561 771.088 277.768L769.755 272.791C769.582 272.148 769.003 271.699 768.336 271.691L758.883 271.583C758.064 271.574 757.39 272.231 757.382 273.051C757.373 273.872 758.03 274.543 758.85 274.553L767.177 274.647L767.835 277.103L739.26 284.76C738.507 281.03 737.748 277.449 737.066 274.305L749.027 274.441C749.167 274.443 749.301 274.425 749.429 274.391C750.056 274.223 750.521 273.655 750.529 272.974C750.539 272.153 749.882 271.481 749.061 271.471L736.412 271.328C735.316 266.362 734.538 263.052 734.522 262.985C734.518 262.971 734.514 262.956 734.51 262.942C733.064 257.544 728.418 254.081 724.154 255.224C719.889 256.366 717.597 261.688 719.044 267.086C719.047 267.101 719.051 267.115 719.055 267.129C719.075 267.196 720.056 270.451 721.589 275.3L694.124 291.576C693.55 291.916 693.274 292.594 693.447 293.238L694.78 298.215C694.993 299.008 695.806 299.477 696.598 299.265L708.779 296.001C709.571 295.789 710.04 294.976 709.828 294.183Z" fill="white" fill-opacity="0.5"/>
<path d="M705.364 299.274C704.571 299.486 704.102 300.3 704.314 301.092L705.66 306.113C705.872 306.905 706.685 307.375 707.478 307.163C708.27 306.95 708.739 306.136 708.527 305.345L707.181 300.324C706.969 299.532 706.156 299.062 705.364 299.274Z" fill="white" fill-opacity="0.5"/>
<path d="M707.822 308.447C707.029 308.659 706.56 309.473 706.772 310.266L706.966 310.989C707.179 311.782 707.992 312.252 708.784 312.04C709.577 311.827 710.046 311.013 709.833 310.221L709.639 309.497C709.427 308.705 708.614 308.235 707.822 308.447Z" fill="white" fill-opacity="0.5"/>
<path d="M754.516 287.641C754.304 286.849 753.489 286.379 752.697 286.592C751.905 286.804 751.435 287.618 751.647 288.41L753.646 295.869C753.858 296.661 754.672 297.131 755.464 296.919C756.256 296.707 756.727 295.892 756.515 295.1L754.516 287.641Z" fill="white" fill-opacity="0.5"/>
<path d="M755.808 298.202C755.016 298.414 754.546 299.229 754.758 300.021L755.384 302.358C755.596 303.15 756.41 303.62 757.203 303.408C757.995 303.195 758.466 302.381 758.254 301.589L757.628 299.252C757.415 298.46 756.6 297.99 755.808 298.202Z" fill="white" fill-opacity="0.5"/>
<path d="M716.937 297.711C716.724 296.918 715.91 296.449 715.117 296.661C714.325 296.873 713.855 297.687 714.068 298.479L716.066 305.939C716.279 306.73 717.092 307.201 717.885 306.988C718.677 306.776 719.147 305.962 718.935 305.17L716.937 297.711Z" fill="white" fill-opacity="0.5"/>
<path d="M718.228 308.271C717.436 308.484 716.967 309.298 717.179 310.09L717.805 312.427C718.017 313.219 718.831 313.689 719.623 313.477C720.416 313.265 720.886 312.45 720.674 311.658L720.048 309.321C719.836 308.53 719.021 308.059 718.228 308.271Z" fill="white" fill-opacity="0.5"/>
<path d="M764.27 285.027C764.058 284.235 763.244 283.765 762.452 283.978C761.658 284.19 761.188 285.004 761.4 285.796L762.746 290.817C762.958 291.609 763.772 292.079 764.565 291.866C765.358 291.654 765.827 290.84 765.615 290.048L764.27 285.027Z" fill="white" fill-opacity="0.5"/>
<path d="M764.909 293.15C764.116 293.363 763.646 294.177 763.858 294.969L764.052 295.693C764.264 296.485 765.079 296.955 765.872 296.743C766.664 296.53 767.134 295.716 766.922 294.924L766.728 294.2C766.515 293.408 765.702 292.938 764.909 293.15Z" fill="white" fill-opacity="0.5"/>
<path d="M365.614 512.89L357.551 504.517C360.477 503.936 363.357 503.757 366.124 503.999C366.355 506.88 366.172 509.873 365.614 512.89ZM349.019 545.98C348.888 546.899 348.193 548.334 347.561 548.991L339.921 556.927C339.774 557.077 339.581 557.161 339.369 557.161C339.249 557.161 339.017 557.131 338.822 556.927L334.089 552.013C339.346 550.397 344.558 547.641 349.312 543.913L349.019 545.98ZM319.897 537.273L315.166 532.358C314.97 532.156 314.941 531.914 314.941 531.788C314.941 531.662 314.97 531.42 315.166 531.217L322.806 523.282C323.44 522.625 324.821 521.903 325.707 521.767L327.7 521.461C324.109 526.399 321.454 531.814 319.897 537.273ZM367.566 501.246C361.051 500.406 353.949 501.73 347.025 505.076C346.327 505.413 346.024 506.274 346.349 506.998C346.675 507.722 347.502 508.037 348.2 507.699C350.251 506.708 352.315 505.911 354.37 505.304L364.856 516.195C362.847 523.523 358.692 530.823 352.85 536.892C344.256 545.817 333.101 550.957 323.059 550.775L330.398 543.152C330.943 542.587 330.943 541.671 330.398 541.106C329.856 540.541 328.972 540.541 328.431 541.106L321.089 548.73C320.914 538.302 325.863 526.714 334.456 517.788C336.298 515.875 338.278 514.109 340.343 512.54C340.964 512.068 341.098 511.163 340.645 510.518C340.19 509.873 339.319 509.733 338.699 510.205C336.519 511.861 334.429 513.725 332.487 515.742C331.732 516.526 331.007 517.331 330.306 518.153C330.252 518.156 330.197 518.153 330.142 518.161L325.299 518.903C323.814 519.132 321.896 520.135 320.836 521.235L313.197 529.171C312.525 529.867 312.154 530.797 312.154 531.788C312.154 532.778 312.524 533.708 313.197 534.405L319.098 540.534C318.345 544.242 318.115 547.93 318.458 551.463L316.536 553.458C315.993 554.022 315.993 554.939 316.536 555.503C316.81 555.786 317.166 555.927 317.523 555.927C317.879 555.927 318.234 555.786 318.507 555.503L320.427 553.511C321.454 553.618 322.495 553.674 323.546 553.674C325.973 553.674 328.457 553.389 330.947 552.842L336.851 558.973C337.521 559.67 338.417 560.055 339.369 560.055C340.324 560.055 341.219 559.67 341.89 558.974L349.531 551.038C350.591 549.937 351.556 547.944 351.774 546.403L352.489 541.372C352.498 541.315 352.496 541.26 352.498 541.204C353.288 540.476 354.064 539.722 354.818 538.938C361.155 532.356 365.62 524.374 367.694 516.355C367.752 516.219 367.784 516.078 367.8 515.933C368.932 511.377 369.292 506.817 368.777 502.503C368.698 501.845 368.198 501.327 367.566 501.246Z" fill="white" fill-opacity="0.5"/>
<path d="M343.087 510.347C343.334 510.347 343.582 510.279 343.808 510.138C343.991 510.021 344.175 509.907 344.36 509.795C345.023 509.39 345.244 508.502 344.855 507.814C344.465 507.126 343.609 506.895 342.948 507.3C342.753 507.42 342.559 507.54 342.364 507.662C341.706 508.076 341.496 508.966 341.895 509.65C342.157 510.099 342.616 510.347 343.087 510.347Z" fill="white" fill-opacity="0.5"/>
<path d="M346.423 519.92C347.006 519.313 347.784 518.979 348.609 518.979C349.434 518.979 350.213 519.313 350.795 519.92C351.381 520.526 351.702 521.333 351.702 522.191C351.702 523.05 351.381 523.856 350.795 524.463C350.211 525.07 349.434 525.404 348.609 525.404C347.784 525.404 347.007 525.07 346.423 524.463C345.838 523.856 345.516 523.05 345.516 522.191C345.516 521.333 345.838 520.526 346.423 519.92ZM342.729 522.191C342.729 523.823 343.341 525.356 344.452 526.509C345.562 527.663 347.039 528.297 348.609 528.297C350.179 528.297 351.656 527.663 352.766 526.509C353.877 525.356 354.489 523.823 354.489 522.191C354.489 520.561 353.877 519.027 352.766 517.873C351.656 516.721 350.179 516.085 348.609 516.085C347.039 516.085 345.562 516.72 344.452 517.873C343.341 519.027 342.729 520.561 342.729 522.191Z" fill="white" fill-opacity="0.5"/>
<path d="M306.028 566.726C306.301 567.009 306.657 567.15 307.014 567.15C307.37 567.15 307.728 567.009 307.998 566.726L313.018 561.515C313.561 560.949 313.561 560.034 313.018 559.469C312.473 558.903 311.59 558.903 311.047 559.469L306.028 564.68C305.485 565.245 305.485 566.161 306.028 566.726Z" fill="white" fill-opacity="0.5"/>
<path d="M311.79 574.333C312.062 574.615 312.417 574.757 312.774 574.757C313.131 574.757 313.488 574.615 313.759 574.333L323.721 563.986C324.265 563.421 324.265 562.505 323.721 561.94C323.178 561.375 322.296 561.375 321.752 561.94L311.79 572.286C311.246 572.851 311.246 573.768 311.79 574.333Z" fill="white" fill-opacity="0.5"/>
<path d="M299.392 560.857C299.749 560.857 300.107 560.716 300.378 560.433L310.34 550.086C310.886 549.521 310.886 548.605 310.34 548.04C309.797 547.475 308.914 547.475 308.371 548.04L298.408 558.387C297.864 558.952 297.864 559.869 298.408 560.433C298.68 560.716 299.037 560.857 299.392 560.857Z" fill="white" fill-opacity="0.5"/>
<path d="M302.362 568.488L301.084 569.816C300.54 570.381 300.54 571.297 301.084 571.862C301.357 572.145 301.711 572.286 302.068 572.286C302.426 572.286 302.782 572.145 303.054 571.862L304.332 570.534C304.877 569.969 304.877 569.053 304.332 568.488C303.789 567.923 302.905 567.923 302.362 568.488Z" fill="white" fill-opacity="0.5"/>
<path d="M627.968 115.535L619.699 119.41C620.008 117.087 620.604 114.9 621.485 112.904C623.686 113.461 625.865 114.356 627.968 115.535ZM648.371 136.257C649.021 136.587 649.913 137.467 650.241 138.103L654.207 145.795C654.282 145.942 654.295 146.107 654.242 146.265C654.211 146.354 654.13 146.518 653.929 146.613L649.076 148.887C649.205 144.569 648.476 139.995 646.908 135.515L648.371 136.257ZM634.52 155.707L629.667 157.981C629.467 158.075 629.279 158.035 629.186 158.003C629.092 157.971 628.92 157.889 628.818 157.692L624.852 150.001C624.524 149.363 624.337 148.152 624.46 147.459L624.738 145.9C627.501 149.821 630.855 153.166 634.52 155.707ZM619.803 111.134C617.528 115.766 616.714 121.383 617.448 127.379C617.522 127.984 618.086 128.427 618.707 128.368C619.328 128.31 619.771 127.774 619.697 127.17C619.479 125.393 619.41 123.657 619.479 121.975L630.233 116.936C635.174 120.286 639.55 125.224 642.583 131.106C647.044 139.757 648.04 149.355 645.362 156.776L641.552 149.387C641.269 148.839 640.588 148.607 640.03 148.869C639.473 149.129 639.249 149.786 639.532 150.332L643.342 157.723C635.543 155.211 628.179 148.597 623.718 139.945C622.762 138.092 621.95 136.172 621.307 134.238C621.113 133.657 620.474 133.328 619.879 133.502C619.285 133.677 618.96 134.289 619.154 134.87C619.833 136.91 620.689 138.936 621.697 140.892C622.089 141.651 622.505 142.394 622.938 143.124C622.926 143.165 622.91 143.205 622.903 143.248L622.228 147.038C622.022 148.2 622.282 149.88 622.831 150.947L626.798 158.638C627.146 159.313 627.743 159.825 628.48 160.076C629.217 160.327 630.002 160.287 630.69 159.964L636.743 157.128C639.309 158.627 641.993 159.731 644.707 160.372L645.704 162.306C645.987 162.853 646.668 163.085 647.225 162.824C647.505 162.692 647.7 162.463 647.791 162.198C647.881 161.933 647.866 161.633 647.725 161.358L646.729 159.426C647.069 158.689 647.375 157.93 647.641 157.148C648.256 155.343 648.672 153.424 648.896 151.433L654.951 148.596C655.639 148.274 656.152 147.706 656.393 146.997C656.635 146.287 656.576 145.525 656.228 144.849L652.262 137.157C651.711 136.09 650.474 134.868 649.383 134.315L645.823 132.509C645.783 132.488 645.742 132.476 645.701 132.46C645.36 131.688 644.995 130.92 644.603 130.161C641.314 123.781 636.509 118.439 631.071 114.866C630.985 114.789 630.888 114.728 630.784 114.68C627.683 112.685 624.383 111.262 621.045 110.552C620.536 110.444 620.024 110.685 619.803 111.134Z" fill="white" fill-opacity="0.5"/>
<path d="M620.371 131.642C620.433 131.458 620.446 131.257 620.398 131.053C620.358 130.887 620.32 130.721 620.283 130.556C620.15 129.96 619.546 129.571 618.935 129.686C618.324 129.802 617.936 130.379 618.07 130.974C618.11 131.149 618.15 131.324 618.191 131.5C618.333 132.094 618.941 132.475 619.55 132.352C619.951 132.271 620.251 131.992 620.371 131.642Z" fill="white" fill-opacity="0.5"/>
<path d="M628.334 131.587C628.031 131 627.979 130.336 628.188 129.723C628.397 129.109 628.843 128.615 629.442 128.335C630.041 128.053 630.722 128.019 631.361 128.236C631.999 128.453 632.517 128.897 632.82 129.486C633.124 130.074 633.175 130.736 632.966 131.35C632.757 131.964 632.312 132.457 631.712 132.737C631.113 133.018 630.432 133.054 629.794 132.837C629.155 132.619 628.637 132.175 628.334 131.587ZM629.088 134.909C630.301 135.322 631.596 135.255 632.735 134.721C633.874 134.188 634.72 133.251 635.118 132.083C635.515 130.915 635.417 129.656 634.841 128.538C634.265 127.421 633.279 126.577 632.066 126.164C630.854 125.751 629.558 125.817 628.419 126.351C627.281 126.885 626.434 127.822 626.036 128.99C625.638 130.157 625.737 131.416 626.313 132.534C626.889 133.652 627.875 134.496 629.088 134.909Z" fill="white" fill-opacity="0.5"/>
<path d="M652.911 173.481C653.19 173.349 653.385 173.12 653.476 172.855C653.566 172.59 653.551 172.289 653.41 172.016L650.805 166.963C650.523 166.415 649.842 166.184 649.284 166.445C648.725 166.706 648.502 167.363 648.785 167.91L651.389 172.962C651.672 173.51 652.353 173.742 652.911 173.481Z" fill="white" fill-opacity="0.5"/>
<path d="M660.025 171.122C660.304 170.992 660.499 170.763 660.59 170.498C660.68 170.233 660.665 169.931 660.524 169.658L655.353 159.629C655.071 159.082 654.389 158.85 653.831 159.111C653.274 159.372 653.05 160.028 653.333 160.575L658.503 170.604C658.786 171.151 659.467 171.383 660.025 171.122Z" fill="white" fill-opacity="0.5"/>
<path d="M646.865 176.929C646.956 176.664 646.941 176.362 646.8 176.088L641.628 166.059C641.347 165.511 640.666 165.279 640.107 165.541C639.549 165.802 639.325 166.459 639.608 167.006L644.779 177.035C645.061 177.583 645.743 177.815 646.301 177.553C646.58 177.423 646.775 177.194 646.865 176.929Z" fill="white" fill-opacity="0.5"/>
<path d="M653.291 176.653L653.954 177.94C654.237 178.487 654.919 178.719 655.476 178.458C655.756 178.327 655.95 178.099 656.041 177.833C656.131 177.568 656.117 177.268 655.975 176.993L655.311 175.706C655.029 175.158 654.348 174.926 653.79 175.188C653.232 175.449 653.008 176.106 653.291 176.653Z" fill="white" fill-opacity="0.5"/>
<path d="M674.032 568.664C670.845 567.523 667.33 569.173 666.196 572.341L653.982 606.485C652.849 609.653 654.52 613.158 657.708 614.298L684.966 624.049C688.154 625.19 691.669 623.54 692.802 620.372L705.016 586.228C706.15 583.06 704.479 579.555 701.291 578.415L674.032 568.664ZM684.226 626.118L656.968 616.366C652.64 614.818 650.373 610.053 651.914 605.745L664.128 571.601C665.669 567.293 670.445 565.047 674.772 566.595L702.031 576.347C706.359 577.895 708.626 582.659 707.084 586.968L694.87 621.112C693.329 625.42 688.554 627.666 684.226 626.118Z" fill="white" fill-opacity="0.5"/>
<path d="M657.23 623.141C654.744 622.252 653.444 619.505 654.334 617.018L655.209 614.571L657.278 615.311L656.402 617.758C655.921 619.104 656.624 620.591 657.97 621.073C659.316 621.554 660.803 620.851 661.284 619.505L662.16 617.057L664.228 617.797L663.353 620.245C662.463 622.731 659.717 624.03 657.23 623.141Z" fill="white" fill-opacity="0.5"/>
<path d="M679.727 631.189C677.24 630.299 675.94 627.553 676.83 625.066L677.706 622.619L679.774 623.358L678.898 625.806C678.417 627.152 679.12 628.639 680.467 629.121C681.813 629.602 683.299 628.899 683.781 627.553L684.657 625.105L686.725 625.845L685.849 628.293C684.96 630.779 682.213 632.079 679.727 631.189Z" fill="white" fill-opacity="0.5"/>
<path d="M680.937 569.683L678.869 568.943L686.023 548.945L688.091 549.685L680.937 569.683Z" fill="white" fill-opacity="0.5"/>
<path d="M684.051 570.797L681.983 570.057L689.138 550.058L691.205 550.798L684.051 570.797Z" fill="white" fill-opacity="0.5"/>
<path d="M694.259 574.447L692.191 573.708L699.345 553.709L701.413 554.449L694.259 574.447Z" fill="white" fill-opacity="0.5"/>
<path d="M697.371 575.562L695.302 574.822L702.456 554.823L704.525 555.563L697.371 575.562Z" fill="white" fill-opacity="0.5"/>
<path d="M688.432 544.727C688.165 544.632 687.87 544.772 687.775 545.038L686.915 547.442C686.82 547.708 686.959 548.004 687.226 548.099L704.137 554.149C704.404 554.244 704.699 554.104 704.794 553.838L705.654 551.434C705.749 551.168 705.61 550.872 705.343 550.777L688.432 544.727ZM703.397 556.217L686.486 550.167C685.079 549.664 684.343 548.109 684.847 546.702L685.706 544.298C686.21 542.891 687.764 542.156 689.171 542.659L706.083 548.709C707.49 549.212 708.226 550.767 707.722 552.174L706.863 554.578C706.359 555.985 704.805 556.72 703.397 556.217Z" fill="white" fill-opacity="0.5"/>
<path d="M661.838 607.733C661.266 607.529 660.969 606.901 661.173 606.329L671.657 577.024C671.861 576.452 672.49 576.155 673.061 576.359C673.632 576.564 673.929 577.192 673.725 577.764L663.241 607.069C663.037 607.64 662.409 607.938 661.838 607.733Z" fill="white" fill-opacity="0.5"/>
<path d="M673.888 612.043C673.317 611.839 673.019 611.211 673.223 610.639L683.707 581.334C683.911 580.762 684.54 580.465 685.111 580.669C685.683 580.874 685.98 581.502 685.775 582.074L675.292 611.379C675.087 611.951 674.459 612.248 673.888 612.043Z" fill="white" fill-opacity="0.5"/>
<path d="M685.938 616.355C685.367 616.151 685.069 615.522 685.274 614.951L695.757 585.645C695.962 585.074 696.59 584.777 697.162 584.981C697.733 585.185 698.03 585.814 697.826 586.385L687.342 615.691C687.138 616.262 686.509 616.559 685.938 616.355Z" fill="white" fill-opacity="0.5"/>
<path d="M160.071 186.092C157.391 187.061 155.995 190.016 156.959 192.679L167.344 221.379C168.307 224.042 171.271 225.42 173.95 224.45L196.863 216.159C199.542 215.19 200.938 212.235 199.974 209.572L189.589 180.872C188.626 178.209 185.662 176.831 182.983 177.801L160.071 186.092ZM197.492 217.898L174.58 226.189C170.942 227.505 166.916 225.63 165.605 222.008L155.22 193.308C153.91 189.687 155.804 185.669 159.441 184.353L182.354 176.062C185.992 174.746 190.018 176.621 191.328 180.243L201.713 208.943C203.023 212.564 201.13 216.582 197.492 217.898Z" fill="white" fill-opacity="0.5"/>
<path d="M178.382 230.443C176.292 231.2 173.976 230.114 173.22 228.024L172.476 225.967L174.214 225.338L174.959 227.395C175.368 228.527 176.622 229.114 177.753 228.705C178.885 228.295 179.472 227.042 179.063 225.91L178.318 223.853L180.057 223.224L180.801 225.281C181.557 227.371 180.472 229.687 178.382 230.443Z" fill="white" fill-opacity="0.5"/>
<path d="M197.292 223.6C195.202 224.357 192.886 223.272 192.13 221.182L191.385 219.124L193.124 218.495L193.868 220.553C194.278 221.684 195.532 222.271 196.663 221.862C197.795 221.452 198.382 220.199 197.973 219.068L197.228 217.01L198.967 216.381L199.711 218.438C200.467 220.528 199.383 222.844 197.292 223.6Z" fill="white" fill-opacity="0.5"/>
<path d="M165.096 183.051L163.357 183.68L157.275 166.87L159.013 166.241L165.096 183.051Z" fill="white" fill-opacity="0.5"/>
<path d="M167.714 182.103L165.976 182.732L159.893 165.922L161.632 165.293L167.714 182.103Z" fill="white" fill-opacity="0.5"/>
<path d="M176.294 178.998L174.556 179.627L168.473 162.817L170.212 162.188L176.294 178.998Z" fill="white" fill-opacity="0.5"/>
<path d="M178.909 178.052L177.171 178.681L171.088 161.871L172.827 161.242L178.909 178.052Z" fill="white" fill-opacity="0.5"/>
<path d="M156.578 162.842C156.354 162.923 156.237 163.173 156.318 163.396L157.049 165.417C157.13 165.64 157.379 165.758 157.603 165.676L171.818 160.533C172.043 160.451 172.159 160.202 172.078 159.978L171.347 157.958C171.266 157.734 171.017 157.617 170.793 157.699L156.578 162.842ZM172.447 162.271L158.232 167.415C157.049 167.843 155.739 167.229 155.311 166.046L154.58 164.025C154.152 162.842 154.766 161.532 155.949 161.104L170.164 155.96C171.347 155.532 172.658 156.146 173.086 157.329L173.817 159.349C174.245 160.532 173.63 161.843 172.447 162.271Z" fill="white" fill-opacity="0.5"/>
<path d="M173.109 217.977C172.628 218.151 172.099 217.903 171.925 217.422L163.011 192.789C162.838 192.309 163.086 191.779 163.566 191.605C164.046 191.431 164.576 191.68 164.75 192.16L173.663 216.793C173.837 217.273 173.589 217.803 173.109 217.977Z" fill="white" fill-opacity="0.5"/>
<path d="M183.239 214.312C182.758 214.486 182.228 214.238 182.055 213.757L173.141 189.124C172.967 188.644 173.216 188.114 173.696 187.94C174.176 187.766 174.706 188.015 174.88 188.495L183.793 213.128C183.967 213.608 183.719 214.138 183.239 214.312Z" fill="white" fill-opacity="0.5"/>
<path d="M193.368 210.647C192.888 210.821 192.358 210.572 192.184 210.092L183.271 185.459C183.097 184.979 183.345 184.449 183.825 184.275C184.306 184.101 184.835 184.35 185.009 184.83L193.923 209.463C194.096 209.943 193.848 210.473 193.368 210.647Z" fill="white" fill-opacity="0.5"/>
<path d="M784 464.448C778.182 464.448 773.448 469.182 773.448 475C773.448 480.818 778.182 485.552 784 485.552C789.819 485.552 794.55 480.818 794.55 475C794.55 469.182 789.819 464.448 784 464.448ZM784 487.617C777.042 487.617 771.383 481.957 771.383 475C771.383 468.043 777.042 462.383 784 462.383C790.955 462.383 796.619 468.043 796.619 475C796.619 481.957 790.955 487.617 784 487.617Z" fill="white" fill-opacity="0.5"/>
<path d="M784.001 459.23C783.431 459.23 782.968 458.768 782.968 458.198V446.033C782.968 445.463 783.431 445 784.001 445C784.571 445 785.033 445.463 785.033 446.033V458.198C785.033 458.768 784.571 459.23 784.001 459.23Z" fill="white" fill-opacity="0.5"/>
<path d="M775.6 461.481C775.243 461.481 774.896 461.296 774.705 460.965L768.621 450.43C768.336 449.935 768.505 449.303 768.999 449.02C769.492 448.733 770.125 448.902 770.41 449.396L776.493 459.932C776.778 460.426 776.609 461.058 776.115 461.343C775.952 461.437 775.775 461.481 775.6 461.481Z" fill="white" fill-opacity="0.5"/>
<path d="M769.448 467.632C769.272 467.632 769.095 467.587 768.932 467.493L758.397 461.41C757.902 461.125 757.734 460.494 758.019 460C758.304 459.506 758.937 459.337 759.43 459.622L769.965 465.705C770.459 465.989 770.628 466.621 770.343 467.115C770.152 467.446 769.804 467.632 769.448 467.632Z" fill="white" fill-opacity="0.5"/>
<path d="M767.198 476.033H755.033C754.462 476.033 754 475.571 754 475C754 474.43 754.462 473.967 755.033 473.967H767.198C767.769 473.967 768.231 474.43 768.231 475C768.231 475.571 767.769 476.033 767.198 476.033Z" fill="white" fill-opacity="0.5"/>
<path d="M758.914 490.518C758.558 490.518 758.21 490.332 758.019 490.001C757.734 489.507 757.902 488.876 758.397 488.59L768.932 482.507C769.425 482.223 770.058 482.39 770.343 482.885C770.628 483.379 770.459 484.011 769.965 484.296L759.43 490.379C759.267 490.473 759.089 490.518 758.914 490.518Z" fill="white" fill-opacity="0.5"/>
<path d="M769.515 501.12C769.34 501.12 769.162 501.075 768.999 500.981C768.505 500.696 768.336 500.064 768.621 499.571L774.705 489.035C774.99 488.541 775.622 488.372 776.115 488.657C776.609 488.942 776.778 489.574 776.493 490.068L770.41 500.604C770.219 500.935 769.871 501.12 769.515 501.12Z" fill="white" fill-opacity="0.5"/>
<path d="M784.001 505.001C783.431 505.001 782.968 504.539 782.968 503.968V491.803C782.968 491.232 783.431 490.77 784.001 490.77C784.571 490.77 785.033 491.232 785.033 491.803V503.968C785.033 504.539 784.571 505.001 784.001 505.001Z" fill="white" fill-opacity="0.5"/>
<path d="M798.484 501.12C798.129 501.12 797.78 500.935 797.59 500.604L791.509 490.068C791.222 489.574 791.391 488.942 791.885 488.657C792.379 488.372 793.011 488.541 793.297 489.035L799.379 499.571C799.665 500.064 799.496 500.696 799.002 500.981C798.837 501.075 798.66 501.12 798.484 501.12Z" fill="white" fill-opacity="0.5"/>
<path d="M809.085 490.518C808.912 490.518 808.733 490.473 808.57 490.379L798.035 484.296C797.541 484.011 797.371 483.379 797.658 482.885C797.941 482.39 798.573 482.223 799.067 482.507L809.603 488.59C810.097 488.876 810.266 489.507 809.983 490.001C809.789 490.332 809.444 490.518 809.085 490.518Z" fill="white" fill-opacity="0.5"/>
<path d="M812.967 476.033H800.805C800.232 476.033 799.772 475.571 799.772 475C799.772 474.43 800.232 473.967 800.805 473.967H812.967C813.537 473.967 814 474.43 814 475C814 475.571 813.537 476.033 812.967 476.033Z" fill="white" fill-opacity="0.5"/>
<path d="M798.553 467.632C798.197 467.632 797.848 467.446 797.658 467.115C797.371 466.621 797.541 465.989 798.035 465.705L808.57 459.622C809.064 459.337 809.696 459.505 809.983 460C810.266 460.494 810.097 461.125 809.603 461.41L799.067 467.493C798.905 467.587 798.729 467.632 798.553 467.632Z" fill="white" fill-opacity="0.5"/>
<path d="M792.4 461.481C792.227 461.481 792.047 461.437 791.885 461.343C791.391 461.058 791.222 460.426 791.509 459.932L797.59 449.396C797.877 448.902 798.508 448.733 799.002 449.02C799.496 449.303 799.665 449.935 799.379 450.43L793.297 460.965C793.104 461.296 792.759 461.481 792.4 461.481Z" fill="white" fill-opacity="0.5"/>
<path d="M429 182.448C423.182 182.448 418.448 187.182 418.448 193C418.448 198.818 423.182 203.552 429 203.552C434.819 203.552 439.55 198.818 439.55 193C439.55 187.182 434.819 182.448 429 182.448ZM429 205.617C422.042 205.617 416.383 199.957 416.383 193C416.383 186.043 422.042 180.383 429 180.383C435.955 180.383 441.619 186.043 441.619 193C441.619 199.957 435.955 205.617 429 205.617Z" fill="white" fill-opacity="0.5"/>
<path d="M429.001 177.23C428.431 177.23 427.968 176.768 427.968 176.198V164.033C427.968 163.463 428.431 163 429.001 163C429.571 163 430.033 163.463 430.033 164.033V176.198C430.033 176.768 429.571 177.23 429.001 177.23Z" fill="white" fill-opacity="0.5"/>
<path d="M420.6 179.481C420.243 179.481 419.896 179.296 419.705 178.965L413.621 168.43C413.336 167.935 413.505 167.303 413.999 167.02C414.492 166.733 415.125 166.902 415.41 167.396L421.493 177.932C421.778 178.426 421.609 179.058 421.115 179.343C420.952 179.437 420.775 179.481 420.6 179.481Z" fill="white" fill-opacity="0.5"/>
<path d="M414.448 185.632C414.272 185.632 414.095 185.587 413.932 185.493L403.397 179.41C402.902 179.125 402.734 178.494 403.019 178C403.304 177.506 403.937 177.337 404.43 177.622L414.965 183.705C415.459 183.989 415.628 184.621 415.343 185.115C415.152 185.446 414.804 185.632 414.448 185.632Z" fill="white" fill-opacity="0.5"/>
<path d="M412.198 194.033H400.033C399.462 194.033 399 193.571 399 193C399 192.43 399.462 191.967 400.033 191.967H412.198C412.769 191.967 413.231 192.43 413.231 193C413.231 193.571 412.769 194.033 412.198 194.033Z" fill="white" fill-opacity="0.5"/>
<path d="M403.914 208.518C403.558 208.518 403.21 208.332 403.019 208.001C402.734 207.507 402.902 206.876 403.397 206.59L413.932 200.507C414.425 200.223 415.058 200.39 415.343 200.885C415.628 201.379 415.459 202.011 414.965 202.296L404.43 208.379C404.267 208.473 404.089 208.518 403.914 208.518Z" fill="white" fill-opacity="0.5"/>
<path d="M414.515 219.12C414.34 219.12 414.162 219.075 413.999 218.981C413.505 218.696 413.336 218.064 413.621 217.571L419.705 207.035C419.99 206.541 420.622 206.372 421.115 206.657C421.609 206.942 421.778 207.574 421.493 208.068L415.41 218.604C415.219 218.935 414.871 219.12 414.515 219.12Z" fill="white" fill-opacity="0.5"/>
<path d="M429.001 223.001C428.431 223.001 427.968 222.539 427.968 221.968V209.803C427.968 209.232 428.431 208.77 429.001 208.77C429.571 208.77 430.033 209.232 430.033 209.803V221.968C430.033 222.539 429.571 223.001 429.001 223.001Z" fill="white" fill-opacity="0.5"/>
<path d="M443.484 219.12C443.129 219.12 442.78 218.935 442.59 218.604L436.509 208.068C436.222 207.574 436.391 206.942 436.885 206.657C437.379 206.372 438.011 206.541 438.297 207.035L444.379 217.571C444.665 218.064 444.496 218.696 444.002 218.981C443.837 219.075 443.66 219.12 443.484 219.12Z" fill="white" fill-opacity="0.5"/>
<path d="M454.085 208.518C453.912 208.518 453.733 208.473 453.57 208.379L443.035 202.296C442.541 202.011 442.371 201.379 442.658 200.885C442.941 200.39 443.573 200.223 444.067 200.507L454.603 206.59C455.097 206.876 455.266 207.507 454.983 208.001C454.789 208.332 454.444 208.518 454.085 208.518Z" fill="white" fill-opacity="0.5"/>
<path d="M457.967 194.033H445.805C445.232 194.033 444.772 193.571 444.772 193C444.772 192.43 445.232 191.967 445.805 191.967H457.967C458.537 191.967 459 192.43 459 193C459 193.571 458.537 194.033 457.967 194.033Z" fill="white" fill-opacity="0.5"/>
<path d="M443.553 185.632C443.197 185.632 442.848 185.446 442.658 185.115C442.371 184.621 442.541 183.989 443.035 183.705L453.57 177.622C454.064 177.337 454.696 177.505 454.983 178C455.266 178.494 455.097 179.125 454.603 179.41L444.067 185.493C443.905 185.587 443.729 185.632 443.553 185.632Z" fill="white" fill-opacity="0.5"/>
<path d="M437.4 179.481C437.227 179.481 437.047 179.437 436.885 179.343C436.391 179.058 436.222 178.426 436.509 177.932L442.59 167.396C442.877 166.902 443.508 166.733 444.002 167.02C444.496 167.303 444.665 167.935 444.379 168.43L438.297 178.965C438.104 179.296 437.759 179.481 437.4 179.481Z" fill="white" fill-opacity="0.5"/>
<path d="M363.815 366.691H272.185C271.527 366.691 271 366.161 271 365.507C271 364.853 271.527 364.322 272.185 364.322H363.815C364.469 364.322 365 364.853 365 365.507C365 366.161 364.469 366.691 363.815 366.691Z" fill="white" fill-opacity="0.5"/>
<path d="M299.993 366.533C299.339 366.533 298.808 366.002 298.808 365.348V332.154C298.808 331.501 298.428 331.046 298.087 331.046H285.952C285.612 331.046 285.231 331.501 285.231 332.154V365.348C285.231 366.002 284.701 366.533 284.047 366.533C283.393 366.533 282.862 366.002 282.862 365.348V332.154C282.862 330.237 284.249 328.677 285.952 328.677H298.087C299.791 328.677 301.177 330.237 301.177 332.154V365.348C301.177 366.002 300.646 366.533 299.993 366.533Z" fill="white" fill-opacity="0.5"/>
<path d="M296.545 330.56C295.892 330.56 295.361 330.029 295.361 329.375V322.484H288.677V329.375C288.677 330.029 288.146 330.56 287.493 330.56C286.839 330.56 286.308 330.029 286.308 329.375V321.299C286.308 320.645 286.839 320.114 287.493 320.114H296.545C297.199 320.114 297.73 320.645 297.73 321.299V329.375C297.73 330.029 297.199 330.56 296.545 330.56Z" fill="white" fill-opacity="0.5"/>
<path d="M292.017 321.61C291.363 321.61 290.833 321.08 290.833 320.426V306.626C290.833 305.972 291.363 305.441 292.017 305.441C292.675 305.441 293.202 305.972 293.202 306.626V320.426C293.202 321.08 292.675 321.61 292.017 321.61Z" fill="white" fill-opacity="0.5"/>
<path d="M306.025 366.533C305.372 366.533 304.841 366.002 304.841 365.348V304.633C304.841 302.079 306.921 300 309.476 300H331.888C334.439 300 336.519 302.079 336.519 304.633V331.973C336.519 332.627 335.988 333.158 335.334 333.158C334.681 333.158 334.15 332.627 334.15 331.973V304.633C334.15 303.385 333.132 302.369 331.888 302.369H309.476C308.224 302.369 307.21 303.385 307.21 304.633V365.348C307.21 366.002 306.679 366.533 306.025 366.533Z" fill="white" fill-opacity="0.5"/>
<path d="M347.691 366.41C347.034 366.41 346.503 365.879 346.503 365.225V334.539C346.503 333.925 346.004 333.425 345.39 333.425H328.727C328.112 333.425 327.613 333.925 327.613 334.539V365.225C327.613 365.879 327.082 366.41 326.425 366.41C325.771 366.41 325.24 365.879 325.24 365.225V334.539C325.24 332.619 326.805 331.056 328.727 331.056H345.39C347.311 331.056 348.876 332.619 348.876 334.539V365.225C348.876 365.879 348.345 366.41 347.691 366.41Z" fill="white" fill-opacity="0.5"/>
<path d="M342.807 339.811H331.024C330.371 339.811 329.84 339.28 329.84 338.626C329.84 337.972 330.371 337.441 331.024 337.441H342.807C343.46 337.441 343.991 337.972 343.991 338.626C343.991 339.28 343.46 339.811 342.807 339.811Z" fill="white" fill-opacity="0.5"/>
<path d="M342.807 344.443H331.024C330.371 344.443 329.84 343.913 329.84 343.259C329.84 342.604 330.371 342.074 331.024 342.074H342.807C343.46 342.074 343.991 342.604 343.991 343.259C343.991 343.913 343.46 344.443 342.807 344.443Z" fill="white" fill-opacity="0.5"/>
<path d="M312.669 318.121H315.759V310.46H312.669V318.121ZM316.944 320.49H311.484C310.831 320.49 310.3 319.959 310.3 319.305V309.275C310.3 308.621 310.831 308.09 311.484 308.09H316.944C317.597 308.09 318.128 308.621 318.128 309.275V319.305C318.128 319.959 317.597 320.49 316.944 320.49Z" fill="white" fill-opacity="0.5"/>
<path d="M312.669 333.205H315.759V325.544H312.669V333.205ZM316.944 335.575H311.484C310.831 335.575 310.3 335.044 310.3 334.39V324.36C310.3 323.706 310.831 323.175 311.484 323.175H316.944C317.597 323.175 318.128 323.706 318.128 324.36V334.39C318.128 335.044 317.597 335.575 316.944 335.575Z" fill="white" fill-opacity="0.5"/>
<path d="M323.722 318.121H326.812V310.46H323.722V318.121ZM327.997 320.49H322.538C321.884 320.49 321.353 319.959 321.353 319.305V309.275C321.353 308.621 321.884 308.09 322.538 308.09H327.997C328.651 308.09 329.181 308.621 329.181 309.275V319.305C329.181 319.959 328.651 320.49 327.997 320.49Z" fill="white" fill-opacity="0.5"/>
<path d="M299.993 337.062H284.047C283.393 337.062 282.862 336.532 282.862 335.878C282.862 335.223 283.393 334.693 284.047 334.693H299.993C300.646 334.693 301.177 335.223 301.177 335.878C301.177 336.532 300.646 337.062 299.993 337.062Z" fill="white" fill-opacity="0.5"/>
<path d="M299.993 341.704H284.047C283.393 341.704 282.862 341.173 282.862 340.519C282.862 339.865 283.393 339.334 284.047 339.334H299.993C300.646 339.334 301.177 339.865 301.177 340.519C301.177 341.173 300.646 341.704 299.993 341.704Z" fill="white" fill-opacity="0.5"/>
<path d="M835.024 147.569L760.958 145.928C760.426 145.917 760.01 145.478 760.021 144.95C760.033 144.421 760.468 144.001 761 144.013L835.066 145.654C835.595 145.665 836.014 146.104 836.003 146.633C835.991 147.161 835.552 147.581 835.024 147.569Z" fill="white" fill-opacity="0.5"/>
<path d="M783.437 146.298C782.909 146.287 782.489 145.848 782.501 145.32L783.095 118.489C783.107 117.961 782.808 117.586 782.532 117.58L772.723 117.363C772.448 117.357 772.132 117.718 772.121 118.246L771.527 145.077C771.515 145.605 771.076 146.025 770.548 146.013C770.019 146.001 769.6 145.563 769.612 145.034L770.206 118.203C770.24 116.654 771.389 115.417 772.766 115.448L782.575 115.665C783.952 115.695 785.044 116.982 785.01 118.531L784.416 145.362C784.404 145.89 783.966 146.31 783.437 146.298Z" fill="white" fill-opacity="0.5"/>
<path d="M781.296 117.159C780.767 117.147 780.348 116.709 780.359 116.18L780.483 110.61L775.081 110.49L774.957 116.061C774.945 116.589 774.507 117.008 773.978 116.997C773.45 116.985 773.03 116.547 773.042 116.018L773.187 109.49C773.198 108.962 773.637 108.542 774.165 108.554L781.483 108.716C782.011 108.728 782.431 109.166 782.419 109.695L782.274 116.223C782.263 116.751 781.824 117.171 781.296 117.159Z" fill="white" fill-opacity="0.5"/>
<path d="M777.795 109.844C777.266 109.832 776.847 109.394 776.859 108.865L777.106 97.7106C777.117 97.1823 777.556 96.7626 778.084 96.7743C778.616 96.7861 779.032 97.2247 779.021 97.753L778.774 108.908C778.762 109.436 778.326 109.856 777.795 109.844Z" fill="white" fill-opacity="0.5"/>
<path d="M788.313 146.406C787.785 146.395 787.365 145.956 787.377 145.428L788.464 96.3513C788.51 94.2861 790.228 92.6431 792.294 92.6889L810.409 93.0901C812.472 93.1358 814.116 94.8532 814.07 96.9184L813.58 119.018C813.569 119.546 813.13 119.966 812.602 119.954C812.073 119.943 811.654 119.504 811.665 118.975L812.155 96.876C812.177 95.8673 811.372 95.0277 810.367 95.0054L792.251 94.6042C791.239 94.5817 790.401 95.385 790.379 96.3937L789.292 145.47C789.28 145.999 788.842 146.418 788.313 146.406Z" fill="white" fill-opacity="0.5"/>
<path d="M821.996 147.053C821.464 147.041 821.044 146.602 821.056 146.074L821.606 121.27C821.617 120.774 821.222 120.361 820.726 120.35L807.257 120.052C806.76 120.041 806.348 120.436 806.337 120.932L805.788 145.736C805.776 146.264 805.337 146.684 804.806 146.672C804.277 146.66 803.858 146.222 803.869 145.693L804.419 120.89C804.453 119.337 805.746 118.102 807.299 118.136L820.768 118.435C822.321 118.469 823.558 119.761 823.524 121.313L822.974 146.117C822.963 146.645 822.524 147.065 821.996 147.053Z" fill="white" fill-opacity="0.5"/>
<path d="M818.523 125.465L808.999 125.254C808.471 125.242 808.051 124.803 808.063 124.275C808.075 123.746 808.514 123.327 809.042 123.338L818.566 123.549C819.094 123.561 819.514 123.999 819.502 124.528C819.49 125.057 819.052 125.476 818.523 125.465Z" fill="white" fill-opacity="0.5"/>
<path d="M818.441 129.209L808.917 128.998C808.389 128.987 807.969 128.548 807.981 128.02C807.992 127.491 808.431 127.071 808.959 127.083L818.483 127.294C819.011 127.306 819.431 127.744 819.419 128.273C819.408 128.802 818.969 129.221 818.441 129.209Z" fill="white" fill-opacity="0.5"/>
<path d="M794.552 107.393L797.049 107.448L797.187 101.256L794.689 101.2L794.552 107.393ZM797.965 109.385L793.552 109.287C793.023 109.275 792.604 108.837 792.615 108.308L792.795 100.2C792.807 99.6715 793.245 99.2522 793.774 99.2639L798.187 99.3616C798.715 99.3733 799.135 99.8116 799.123 100.34L798.943 108.448C798.932 108.977 798.493 109.396 797.965 109.385Z" fill="white" fill-opacity="0.5"/>
<path d="M794.282 119.586L796.779 119.641L796.917 113.449L794.419 113.393L794.282 119.586ZM797.695 121.577L793.282 121.48C792.753 121.468 792.334 121.03 792.345 120.501L792.525 112.393C792.537 111.865 792.975 111.445 793.504 111.457L797.916 111.555C798.445 111.566 798.864 112.005 798.853 112.534L798.673 120.641C798.662 121.17 798.223 121.589 797.695 121.577Z" fill="white" fill-opacity="0.5"/>
<path d="M803.486 107.591L805.984 107.646L806.121 101.454L803.623 101.399L803.486 107.591ZM806.899 109.583L802.486 109.485C801.957 109.473 801.538 109.035 801.55 108.506L801.729 100.398C801.741 99.8697 802.179 99.4504 802.708 99.4621L807.121 99.5599C807.649 99.5716 808.069 100.01 808.057 100.539L807.877 108.646C807.866 109.175 807.427 109.595 806.899 109.583Z" fill="white" fill-opacity="0.5"/>
<path d="M783.965 122.477L771.076 122.191C770.547 122.179 770.128 121.741 770.139 121.212C770.151 120.683 770.59 120.264 771.118 120.276L784.007 120.561C784.536 120.573 784.955 121.011 784.944 121.54C784.932 122.069 784.493 122.488 783.965 122.477Z" fill="white" fill-opacity="0.5"/>
<path d="M783.882 126.229L770.993 125.943C770.464 125.931 770.045 125.493 770.056 124.964C770.068 124.436 770.507 124.016 771.035 124.028L783.924 124.313C784.453 124.325 784.872 124.764 784.861 125.292C784.849 125.821 784.41 126.24 783.882 126.229Z" fill="white" fill-opacity="0.5"/>
<path d="M510.648 320.142C507.315 320.725 505.079 323.927 505.665 327.281L510.587 355.454C511.173 358.809 514.362 361.063 517.696 360.481L565.791 352.078C569.125 351.496 571.361 348.293 570.775 344.939L565.853 316.766C565.267 313.412 562.078 311.157 558.743 311.739L510.648 320.142ZM566.127 353.999L518.032 362.402C513.639 363.169 509.437 360.204 508.666 355.79L503.744 327.617C502.973 323.204 505.92 318.989 510.313 318.221L558.408 309.819C562.801 309.051 567.003 312.017 567.774 316.43L572.696 344.603C573.467 349.017 570.52 353.231 566.127 353.999Z" fill="white" fill-opacity="0.5"/>
<path d="M515.095 330.748L517.572 330.315L516.778 325.772L514.301 326.205L515.095 330.748ZM518.135 332.196L515.203 332.709C514.269 332.872 513.377 332.246 513.214 331.314L512.339 326.309C512.177 325.377 512.804 324.487 513.738 324.324L516.67 323.811C517.603 323.648 518.496 324.273 518.659 325.205L519.533 330.21C519.696 331.142 519.068 332.033 518.135 332.196Z" fill="white" fill-opacity="0.5"/>
<path d="M555.68 323.657L558.158 323.224L557.364 318.681L554.886 319.114L555.68 323.657ZM558.72 325.105L555.788 325.618C554.855 325.781 553.962 325.155 553.799 324.224L552.925 319.218C552.762 318.286 553.39 317.396 554.323 317.233L557.255 316.721C558.189 316.557 559.081 317.182 559.244 318.114L560.119 323.119C560.282 324.051 559.654 324.942 558.72 325.105Z" fill="white" fill-opacity="0.5"/>
<path d="M543.966 312.342L546.55 311.891L545.664 306.821C545.654 306.757 545.139 303.342 543.047 301.827C542.164 301.187 541.134 300.981 539.898 301.197L524.801 303.834C523.563 304.051 522.662 304.596 522.049 305.5C520.838 307.284 521.082 310.111 521.278 311.049L522.169 316.15L524.753 315.699L524.061 311.094C523.908 310.073 523.923 309.255 524.108 308.522C524.436 307.222 525.516 306.349 527.149 306.063L538.445 304.09C540.078 303.804 541.391 304.26 542.14 305.372C542.563 305.999 542.855 306.763 543.056 307.777L543.966 312.342ZM548.806 313.476L542.426 314.59L541.144 308.159C540.995 307.407 540.797 306.868 540.523 306.462C540.221 306.013 539.634 305.861 538.78 306.011L527.485 307.984C526.631 308.133 526.131 308.475 525.999 308.999C525.879 309.474 525.876 310.048 525.989 310.806L526.964 317.292L520.584 318.406L519.363 311.417C519.333 311.277 518.518 307.232 520.435 304.406C521.348 303.06 522.704 302.221 524.466 301.913L539.562 299.276C541.324 298.968 542.884 299.297 544.2 300.254C546.961 302.262 547.566 306.345 547.59 306.517L548.806 313.476Z" fill="white" fill-opacity="0.5"/>
<path d="M567.387 319.879L505.278 330.73L504.942 328.81L567.051 317.958L567.387 319.879Z" fill="white" fill-opacity="0.5"/>
<path d="M527.125 306.067L538.469 304.085L538.021 301.524L526.677 303.506L527.125 306.067ZM540.725 305.67L525.54 308.323L524.421 301.92L539.606 299.267L540.725 305.67Z" fill="white" fill-opacity="0.5"/>
<path d="M545.638 348.587L552.694 349.3L549.783 342.833L545.638 348.587ZM554.444 351.4C554.357 351.415 554.268 351.418 554.178 351.409L543.762 350.358C543.415 350.322 543.114 350.105 542.971 349.788C542.828 349.47 542.865 349.1 543.069 348.817L549.188 340.323C549.391 340.04 549.73 339.888 550.077 339.923C550.423 339.958 550.725 340.175 550.868 340.492L555.165 350.039C555.308 350.357 555.271 350.727 555.067 351.009C554.916 351.218 554.691 351.356 554.444 351.4Z" fill="white" fill-opacity="0.5"/>
<path d="M559.035 335.557C557.446 335.835 556.38 337.353 556.657 338.942C556.935 340.531 558.453 341.598 560.042 341.32C561.631 341.042 562.697 339.524 562.42 337.935C562.142 336.347 560.624 335.28 559.035 335.557ZM560.378 343.241C557.73 343.704 555.199 341.926 554.736 339.278C554.273 336.63 556.052 334.099 558.7 333.636C561.348 333.174 563.878 334.951 564.341 337.6C564.803 340.248 563.026 342.778 560.378 343.241Z" fill="white" fill-opacity="0.5"/>
<path d="M557.032 341.575L555.846 340.027L562.036 335.286L563.222 336.834L557.032 341.575Z" fill="white" fill-opacity="0.5"/>
</g>
<defs>
<linearGradient id="paint0_linear" x1="468.131" y1="609.575" x2="1100.3" y2="154.405" gradientUnits="userSpaceOnUse">
<stop stop-color="#798DF2"/>
<stop offset="1" stop-color="#8BD996"/>
</linearGradient>
<clipPath id="clip0">
<rect width="858" height="720" fill="white"/>
</clipPath>
</defs>
</svg>
