<svg width="434" height="314" viewBox="0 0 434 314" fill="none" xmlns="http://www.w3.org/2000/svg">
<path d="M0 274.791H434V274.574H0V274.791Z" fill="#E7E8E5"/>
<path d="M90.7441 280.702H119.494V280.485H90.7441V280.702Z" fill="#E7E8E5"/>
<path d="M148.549 288.653H183.92V288.436H148.549V288.653Z" fill="#E7E8E5"/>
<path d="M45.5344 285.933H89.8753V285.716H45.5344V285.933Z" fill="#E7E8E5"/>
<path d="M390.514 281.943H309.669V282.16H390.514V281.943Z" fill="#E7E8E5"/>
<path d="M301.94 281.943H296.443V282.16H301.94V281.943Z" fill="#E7E8E5"/>
<path d="M240.621 285.825H277.278V285.608H240.621V285.825Z" fill="#E7E8E5"/>
<path d="M151.106 96.0394C151.106 115.032 166.502 130.429 185.496 130.429C204.489 130.429 219.885 115.032 219.885 96.0394C219.885 77.0458 204.489 61.6493 185.496 61.6493C166.502 61.6493 151.106 77.0458 151.106 96.0394" fill="#FAFAF9"/>
<path d="M38.5359 274.574H394.168C394.168 274.574 376.157 253.144 348.611 249.231C321.065 245.317 273.387 242.909 273.387 242.909C273.387 242.909 265.971 210.1 234.186 208.596C229.949 192.642 216.529 119.799 183.685 108.361C150.841 96.9223 151.903 72.0046 124.003 61.4697C96.1033 50.9339 63.3739 130.484 56.9026 152.674C41.363 205.952 38.5359 274.574 38.5359 274.574Z" fill="#EDEDEB"/>
<path d="M56.8999 152.677C58.3728 147.602 61.2331 139.52 65.0897 130.21C65.9902 129.786 66.9545 129.397 67.9822 129.046C76.5238 126.139 86.5126 139.83 98.8129 153.521C115.974 172.623 137.635 191.725 166.145 165.751C196.862 137.765 214.645 155.016 224.605 171.568C227.678 181.682 229.998 191.146 231.704 198.342C214.881 198.342 202.338 161.987 183.331 172.173C157.861 185.827 114.674 199.986 93.7916 171.55C79.2658 151.756 63.8609 153.507 55.8403 156.407C56.19 155.151 56.5399 153.915 56.8999 152.677" fill="#E7E8E5"/>
<path d="M50.1299 180.301C80.1766 182.965 88.1756 267.686 193.255 239.503C231.799 229.155 275.259 252.813 301.883 274.575H252.671C237.913 259.838 222.359 244.388 204.878 248.632C147.772 262.475 107.003 261.499 84.521 229.217C73.2269 212.972 57.9172 207.59 45.5 206.253C46.8034 197.783 48.3292 189.024 50.1299 180.301" fill="#E7E8E5"/>
<path d="M372.17 21.1084H255.879C255.879 21.1084 256.581 12.2617 271.827 9.62302C258.829 3.8812 287.349 -8.22567 318.314 8.53715C315.9 2.94896 343.429 4.96706 351.851 12.5716C354.842 7.60578 381.096 16.2962 372.17 21.1084" fill="#F3F2F1"/>
<path d="M162.832 37.9666H97.8357C97.8357 37.9666 82.5956 34.9181 84.5642 26.8562C86.5332 18.795 109.549 25.5125 109.549 25.5125C109.549 25.5125 102.57 14.2597 124.857 17.4505C147.143 20.6422 149.316 31.7977 149.316 31.7977C149.316 31.7977 178.582 29.0895 162.832 37.9666Z" fill="#F3F2F1"/>
<path d="M370.311 154.109H337.321C337.321 154.109 329.585 152.562 330.584 148.47C331.583 144.378 343.266 147.788 343.266 147.788C343.266 147.788 339.723 142.076 351.035 143.696C362.348 145.316 363.451 150.978 363.451 150.978C363.451 150.978 378.305 149.604 370.311 154.109Z" fill="#F3F2F1"/>
<path d="M385.296 303.946C385.296 309.375 309.948 313.775 217 313.775C124.053 313.775 48.7041 309.375 48.7041 303.946C48.7041 298.519 124.053 294.118 217 294.118C309.948 294.118 385.296 298.519 385.296 303.946Z" fill="#F3F2F1"/>
<path d="M147.913 286.267C165.544 267.628 164.728 238.224 146.088 220.592C127.449 202.96 98.0451 203.777 80.4133 222.417C62.781 241.056 63.5978 270.459 82.2371 288.092C100.877 305.724 130.281 304.907 147.913 286.267Z" fill="#8BD996"/>
<path d="M105.787 297.021C96.9427 297.02 88.5969 294.107 82.237 288.092C85.192 290.887 89.2262 292.211 93.896 292.211C105.062 292.211 119.871 284.643 132.302 271.501C149.934 252.861 156.106 230.069 146.088 220.592C143.133 217.797 139.1 216.472 134.429 216.472C123.263 216.472 108.455 224.04 96.0235 237.183C78.391 255.821 72.2187 278.615 82.237 288.092C66.9866 273.665 68.917 246.86 86.5492 228.221C96.829 217.354 110.173 211.663 122.538 211.663C131.383 211.663 139.729 214.577 146.088 220.592C161.338 235.018 159.407 261.823 141.776 280.462C131.497 291.33 118.152 297.022 105.787 297.021Z" fill="white" fill-opacity="0.97"/>
<path d="M132.302 271.501C149.934 252.862 156.107 230.069 146.088 220.592C136.07 211.115 113.654 218.544 96.0235 237.183C78.3911 255.821 72.2188 278.615 82.2371 288.092C92.2555 297.569 114.671 290.141 132.302 271.501" fill="#8BD996"/>
<path d="M84.6178 288.887C83.6087 288.887 82.8042 288.629 82.2369 288.092C77.9566 284.042 88.779 265.649 106.412 247.01C121.707 230.84 137.101 219.798 143.707 219.798C144.716 219.798 145.521 220.056 146.088 220.592C150.369 224.642 139.546 243.034 121.914 261.674C106.618 277.844 91.2242 288.887 84.6178 288.887Z" fill="white" fill-opacity="0.97"/>
<path d="M344.472 298.922C343.935 298.922 343.396 298.738 342.955 298.362L190.476 168.113C189.494 167.274 189.378 165.799 190.217 164.818C191.055 163.837 192.532 163.722 193.51 164.559L345.99 294.808C346.972 295.647 347.088 297.122 346.249 298.103C345.788 298.643 345.132 298.922 344.472 298.922" fill="#F39A00"/>
<path d="M244.555 298.922C244.037 298.922 243.525 298.75 243.104 298.417C242.416 297.872 242.091 296.987 242.263 296.126L256.863 223.246C257.116 221.981 258.352 221.161 259.613 221.414C260.878 221.667 261.698 222.898 261.445 224.164L247.745 292.556L327.306 256.154C328.484 255.615 329.866 256.134 330.403 257.306C330.941 258.479 330.424 259.866 329.251 260.403L245.527 298.709C245.216 298.852 244.884 298.922 244.555 298.922" fill="#F39A00"/>
<path d="M191.993 166.336H117.412C136.729 199.361 190.352 267.856 243.452 267.856H308.465C266.465 267.856 211.309 199.361 191.993 166.336Z" fill="#798BF2"/>
<path d="M293.397 267.856H243.452C242.211 267.856 240.967 267.818 239.726 267.745L239.342 267.417L244.442 265.083C245.241 265.105 246.051 265.115 246.869 265.115C257.204 265.115 268.953 263.393 280.644 261.084C282.761 262.115 284.97 263.252 287.219 264.453L287.218 264.461C289.258 265.548 291.331 266.689 293.397 267.856V267.856ZM230.152 266.482C213.924 263.196 197.916 254.289 183.139 242.758L184.411 236.412L184.633 236.569C184.842 236.713 185.053 236.847 185.227 236.942C185.982 237.374 186.592 237.614 187.149 237.81C187.716 238.01 188.215 238.146 188.703 238.266C189.669 238.49 190.549 238.63 191.401 238.741C193.864 239.052 196.154 239.14 198.404 239.14C198.618 239.14 198.829 239.139 199.042 239.138L218.027 255.355C219.615 257.35 221.57 258.99 223.837 260.317L230.739 266.214L230.152 266.482V266.482ZM179.034 239.463C160.367 224.063 143.875 204.793 131.687 187.997C128.015 182.936 124.733 178.1 121.899 173.661C121.702 173.352 121.51 173.049 121.317 172.745L177.743 220.944C178.061 222.455 178.41 223.977 178.819 225.528C179.227 227.086 179.703 228.66 180.367 230.359C180.471 230.622 180.58 230.888 180.697 231.16L179.034 239.463V239.463ZM196.169 228.489C195.182 228.321 194.223 228.132 193.34 227.91C193.22 227.88 193.102 227.85 192.985 227.819L191.536 226.581C191.514 226.509 191.491 226.437 191.469 226.364C191.018 224.837 190.62 223.02 190.281 221.132C190.802 221.82 191.32 222.492 191.834 223.152C191.834 223.15 191.835 223.15 191.835 223.149C193.312 225.043 194.764 226.824 196.169 228.489V228.489ZM176.45 213.693L121.01 166.336H180.894C183.87 171.211 186.322 176.884 184.977 180.512C184.498 180.691 184.02 180.872 183.547 181.053C179.149 182.731 176.189 186.427 175.209 190.626C174.664 191.625 174.38 192.782 174.44 194C174.742 200.058 175.348 205.936 176.182 211.925C176.27 212.515 176.359 213.103 176.45 213.693V213.693ZM195.343 171.845C194.908 171.356 194.523 170.815 194.183 170.241C193.896 169.753 193.639 169.241 193.41 168.715C194.023 169.729 194.671 170.776 195.343 171.845Z" fill="#F2CD13"/>
<path d="M203.083 175.51L203.618 174.945L204.224 174.281C204.631 173.83 205.044 173.372 205.447 172.904C206.25 171.964 207.056 171.016 207.821 170.037C209.369 168.094 210.803 166.071 212.122 164.015C212.784 162.987 213.395 161.939 213.968 160.881C214.56 159.831 215.09 158.764 215.577 157.69C216.543 155.536 217.319 153.358 217.831 151.169L219.25 156.026C218.837 155.388 217.645 154.357 216.333 153.491C214.982 152.612 213.469 151.726 211.872 150.92C210.282 150.091 208.62 149.305 206.93 148.53L201.833 146.238L201.714 146.184C200.095 145.457 199.374 143.556 200.101 141.938C200.653 140.711 201.883 140 203.15 140.046C205.262 140.126 207.22 140.356 209.244 140.662C211.254 140.974 213.256 141.395 215.274 141.924C217.281 142.485 219.316 143.122 221.373 144.049C223.433 145.023 225.568 146.058 227.786 148.261C228.98 149.447 229.476 151.071 229.273 152.621L229.205 153.117C228.767 156.302 227.975 159.378 226.879 162.274C225.808 165.183 224.476 167.935 222.968 170.542C221.479 173.162 219.786 175.622 217.977 177.977C217.063 179.148 216.129 180.3 215.135 181.411C214.637 181.968 214.137 182.522 213.611 183.067L212.806 183.883L211.896 184.766C209.364 187.221 205.322 187.157 202.867 184.626C200.48 182.163 200.474 178.272 202.806 175.802L203.083 175.51" fill="#F9A8B3"/>
<path d="M205.321 140.168L197.855 139.246L195.378 148.244C195.378 148.244 202.909 150.186 206.176 145.309L205.321 140.168" fill="#F9A8B3"/>
<path d="M192.031 139.191L191.063 146.732L195.377 148.244L197.855 139.247L192.031 139.191" fill="#F9A8B3"/>
<path d="M213.97 246.43C213.97 246.43 193.776 230.683 176.604 200.338C172.539 193.154 175.833 183.997 183.547 181.053C189.992 178.592 196.937 176.255 202.599 174.452C208.319 172.63 214.591 174.752 217.931 179.74C224.927 190.19 231.847 204.84 253.295 222.436C254.539 223.456 254.342 225.417 252.915 226.16L213.97 246.43Z" fill="#798BF2"/>
<path d="M214.428 246.135L205.924 238.87C210.271 238.582 214.551 238.086 218.859 237.346C220.23 237.109 221.339 235.986 221.491 234.533C221.675 232.781 220.403 231.211 218.65 231.026L218.588 231.021C212.818 230.415 206.978 229.949 201.356 229.246C199.951 229.077 198.561 228.884 197.207 228.659C196.859 228.605 196.513 228.549 196.169 228.49C194.764 226.824 193.313 225.043 191.835 223.149C192.313 215.607 190.912 207.571 187.89 201.106C187.65 198.459 187.423 195.815 187.197 193.206L187.188 193.115C186.897 189.818 184.129 187.291 180.828 187.291C180.721 187.291 180.612 187.293 180.504 187.298C178.198 187.414 176.239 188.739 175.209 190.626C176.189 186.427 179.149 182.731 183.547 181.053C184.021 180.872 184.498 180.691 184.977 180.512C187.607 181.531 190.381 182.264 193.528 182.264C195.934 182.264 198.558 181.835 201.501 180.778C208.292 178.338 206.009 176.042 202.981 174.336C204.225 173.98 205.491 173.807 206.743 173.807C211.147 173.807 215.388 175.943 217.931 179.74C223.481 188.029 228.981 198.961 241.726 211.911L240.904 226.81L223.831 231.802C223.614 231.865 223.517 232.043 223.518 232.278C223.519 232.83 224.053 233.699 224.815 234.156L228.558 236.4C226.524 237.525 224.772 238.549 223.518 239.374C223.623 239.878 223.749 240.366 223.894 240.834C220.107 242.819 216.645 244.724 214.428 246.135" fill="#CFE0F5"/>
<path d="M191.834 223.152C191.319 222.492 190.802 221.819 190.28 221.132C190.28 221.131 190.28 221.129 190.28 221.127C190.802 221.816 191.319 222.488 191.835 223.148C191.835 223.15 191.834 223.15 191.834 223.152" fill="#647087"/>
<path d="M191.835 223.148C191.319 222.488 190.802 221.816 190.28 221.128C190.137 220.331 190.004 219.522 189.884 218.716C189.48 215.97 189.103 213.158 188.807 210.321C188.468 207.278 188.169 204.19 187.89 201.106C190.911 207.57 192.312 215.607 191.835 223.148" fill="#A0AFC8"/>
<path d="M176.738 160.35C180.778 165.505 186.945 175.201 184.977 180.511C189.617 182.311 194.709 183.219 201.501 180.778C208.293 178.337 206.007 176.041 202.98 174.335C195.934 175.356 193.434 169.956 192.241 165.17L176.738 160.35Z" fill="#F9A8B3"/>
<path d="M196.303 172.774C195.961 172.496 195.645 172.19 195.353 171.861C195.349 171.854 195.347 171.851 195.343 171.845C195.641 172.18 195.963 172.49 196.313 172.772C196.309 172.772 196.306 172.773 196.303 172.774Z" fill="#3563B7"/>
<path d="M195.353 171.861C194.914 171.367 194.526 170.821 194.183 170.24C194.523 170.815 194.908 171.356 195.343 171.844C195.347 171.851 195.349 171.854 195.353 171.861Z" fill="#647087"/>
<path d="M194.414 172.949C191.131 172.949 187.461 171.501 185.927 169.158C184.768 167.373 183.75 163.517 183.602 162.526L192.25 165.215C192.679 166.924 193.274 168.705 194.183 170.24C194.526 170.821 194.914 171.367 195.353 171.861C195.645 172.19 195.961 172.495 196.303 172.774C195.702 172.892 195.065 172.949 194.414 172.949Z" fill="#D8898C"/>
<path d="M195.335 140.398C198.476 142.925 199.933 148.689 198.785 152.702C193.101 143.734 193.029 141.089 193.029 141.089L195.335 140.398Z" fill="#17282F"/>
<path d="M175.817 152.833C177.827 160.985 178.586 165.837 183.544 169.506C191.001 175.026 200.546 169.919 201.026 161.456C201.457 153.838 198.097 141.787 189.385 139.58C180.802 137.406 173.805 144.681 175.817 152.833" fill="#F9A8B3"/>
<path d="M177.239 160.336C179.366 157.411 180.407 151.636 179.159 147.382C184.348 146.048 200.485 145.113 196.074 136.448C191.664 127.783 185.671 131.681 185.541 134.788C175.67 131.922 169.041 135.203 171.738 138.213C161.569 141.897 165.149 150.147 167.432 151.132C163.904 155.336 165.46 164.728 170.961 164.935C176.46 165.143 178.84 169.345 181.954 168.151C181.331 165 177.239 160.336 177.239 160.336" fill="#17282F"/>
<path d="M187.829 153.743C187.918 154.373 188.325 154.836 188.737 154.777C189.149 154.719 189.41 154.16 189.32 153.53C189.23 152.899 188.824 152.437 188.411 152.495C187.999 152.554 187.739 153.113 187.829 153.743" fill="#17282F"/>
<path d="M195.567 152.25C195.657 152.88 196.064 153.343 196.475 153.284C196.887 153.226 197.148 152.667 197.058 152.037C196.968 151.407 196.562 150.944 196.15 151.003C195.737 151.061 195.477 151.619 195.567 152.25Z" fill="#17282F"/>
<path d="M173.31 161.54C174.588 163.159 176.474 164.08 178.136 164.306C180.635 164.646 181.426 162.367 180.348 160.222C179.379 158.292 176.91 155.788 174.585 156.434C172.296 157.069 171.849 159.688 173.31 161.54" fill="#F9A8B3"/>
<path d="M193.069 152.949C193.069 152.949 195.309 156.608 197.339 158.249C196.346 159.511 194.224 159.272 194.224 159.272L193.069 152.949Z" fill="#F46878"/>
<path d="M190.977 162.652C188.347 162.646 186.834 161.035 186.763 160.958C186.687 160.876 186.691 160.751 186.771 160.679C186.853 160.607 186.98 160.617 187.056 160.699C187.073 160.719 188.84 162.588 191.794 162.2C191.904 162.187 192.009 162.263 192.029 162.371C192.049 162.48 191.976 162.58 191.866 162.594C191.557 162.634 191.261 162.652 190.977 162.652" fill="#17282F"/>
<path d="M183.195 151.377L182.995 151.326C182.797 151.217 182.717 150.975 182.817 150.785C183.823 148.877 185.671 148.744 185.749 148.74C185.97 148.726 186.168 148.892 186.192 149.111C186.217 149.328 186.059 149.516 185.838 149.531C185.777 149.535 184.34 149.654 183.536 151.176C183.468 151.305 183.336 151.378 183.195 151.377Z" fill="#17282F"/>
<path d="M198.188 149.313C198.061 149.338 197.922 149.3 197.819 149.2C196.521 147.945 195.105 148.188 195.046 148.199C194.83 148.239 194.613 148.098 194.561 147.884C194.509 147.669 194.64 147.462 194.855 147.42C194.934 147.407 196.743 147.075 198.37 148.648C198.533 148.805 198.541 149.056 198.389 149.208L198.188 149.313" fill="#17282F"/>
<path d="M337.594 293.907L347.462 292.089L322.98 269.56L316.108 279.429L337.594 293.907" fill="#F9A8B3"/>
<path d="M337.178 299.251C336.392 296.993 336.993 293.95 334.777 290.467C334.777 290.467 340.004 285.199 342.154 287.519C344.304 289.841 351.061 292.211 359.256 290.336C360.402 290.074 360.75 293.505 358.173 294.39C353.911 295.853 350.76 296.868 347.125 298.115C344.017 299.182 343.457 300.139 341.047 301.154C339.035 302.001 337.967 301.52 337.178 299.251Z" fill="#F9A8B3"/>
<path d="M244.085 230.756C244.085 230.756 276.376 235.124 295.351 241.781C307.947 246.201 331.813 275.82 331.813 275.82L322.162 285.471C322.162 285.471 298.211 269.643 280.643 261.084C249.885 267.159 218.723 269.178 213.97 246.43C221.064 241.762 244.085 230.756 244.085 230.756" fill="#17282F"/>
<path d="M293.676 268.013C293.584 267.961 293.491 267.908 293.397 267.855H293.398C293.491 267.908 293.583 267.959 293.676 268.013" fill="#B6B8B6"/>
<path d="M293.398 267.856H293.397C291.331 266.689 289.257 265.548 287.218 264.461L287.218 264.453C289.258 265.544 291.331 266.688 293.398 267.856" fill="#647087"/>
<path d="M303.226 273.586C300.17 271.754 296.934 269.855 293.677 268.013C293.583 267.959 293.491 267.907 293.398 267.855C291.331 266.688 289.259 265.544 287.219 264.453L290.044 244.792C291.509 253.724 293.027 267.076 293.027 267.076L300.308 266.184L303.226 273.586" fill="#111D23"/>
<path d="M336.715 276.379L322.806 290.06L318.116 285.58L332.405 270.97L336.715 276.379" fill="#8BD996"/>
<path d="M253.633 223.698C253.633 223.698 290.239 211.923 309.212 218.581C321.809 223.001 310.178 264.975 310.178 264.975L293.027 267.076C293.027 267.076 291.125 250.342 289.524 241.808C273.958 248.318 228.27 262.12 223.518 239.374C230.612 234.705 253.633 223.698 253.633 223.698Z" fill="#17282F"/>
<path d="M299.837 290.06L308.013 290.427L307.324 263.052L295.329 263.914L299.837 290.06" fill="#F9A8B3"/>
<path d="M296.883 295.296C297.57 293.006 299.843 290.893 300.089 286.773C300.089 286.773 307.413 285.57 307.794 288.711C308.173 291.852 312.256 297.734 319.993 301.022C321.077 301.482 319.346 304.465 316.739 303.671C312.429 302.356 309.281 301.33 305.606 300.208C302.462 299.25 301.449 299.697 298.901 299.106C296.774 298.612 296.192 297.596 296.883 295.296" fill="#F9A8B3"/>
<path d="M311.876 267.465L292.6 270.475L291.401 264.101L311.526 260.558L311.876 267.465Z" fill="#8BD996"/>
<path d="M187.197 193.206C187.688 198.855 188.177 204.667 188.808 210.321C189.104 213.157 189.48 215.97 189.884 218.716C190.292 221.432 190.828 224.191 191.469 226.363C191.627 226.887 191.802 227.363 191.924 227.65C191.979 227.787 192.029 227.885 191.982 227.836C191.956 227.811 192.006 227.879 191.84 227.683L191.644 227.493L191.503 227.368L191.362 227.264L191.276 227.205L191.143 227.131C191.016 227.079 191.078 227.14 191.208 227.203C191.325 227.268 191.527 227.348 191.743 227.429C192.191 227.597 192.749 227.761 193.34 227.91C194.53 228.208 195.858 228.448 197.207 228.658C198.561 228.883 199.951 229.077 201.356 229.246C206.978 229.948 212.818 230.414 218.588 231.02L218.65 231.026C220.403 231.21 221.675 232.78 221.491 234.533C221.339 235.986 220.23 237.108 218.859 237.345C212.902 238.369 206.996 238.927 200.894 239.11C197.828 239.174 194.775 239.166 191.401 238.741C190.549 238.63 189.67 238.49 188.703 238.266C188.215 238.145 187.716 238.009 187.149 237.809C186.592 237.613 185.982 237.374 185.227 236.941C185.054 236.847 184.843 236.712 184.633 236.568L184.324 236.349L183.973 236.067C183.854 235.966 183.752 235.883 183.626 235.761C183.495 235.634 183.367 235.503 183.243 235.369C182.945 235.045 182.893 234.96 182.755 234.789C182.263 234.157 181.938 233.62 181.65 233.111C181.088 232.1 180.707 231.213 180.367 230.359C179.703 228.66 179.227 227.085 178.82 225.527C178.409 223.972 178.059 222.448 177.741 220.933C177.091 217.906 176.629 214.909 176.182 211.925C175.348 205.936 174.743 200.058 174.44 194C174.264 190.475 176.979 187.475 180.503 187.298C183.946 187.126 186.888 189.711 187.188 193.114L187.197 193.206" fill="#F9A8B3"/>
<path d="M274.772 216.91L292.925 225.289C294.043 225.805 294.832 227.438 294.079 227.676L242.405 243.828C241.795 244.021 240.933 243.817 240.008 243.263L224.815 234.155C223.728 233.504 223.106 232.015 223.83 231.801L274.772 216.91" fill="#798BF2"/>
<path d="M241.911 243.9C241.367 243.9 240.705 243.681 240.008 243.263L224.815 234.155C224.053 233.699 223.519 232.83 223.518 232.278C223.517 232.043 223.614 231.865 223.831 231.802L240.904 226.81L240.064 242.047C240.063 242.071 240.062 242.094 240.062 242.118C240.063 242.631 240.392 242.958 240.861 242.958C240.968 242.958 241.083 242.941 241.204 242.904L294.3 226.82C294.349 226.963 294.376 227.098 294.376 227.219C294.376 227.442 294.284 227.611 294.079 227.676L242.405 243.828C242.255 243.876 242.089 243.9 241.911 243.9Z" fill="#F26716"/>
<path d="M286.552 190.91L286.281 190.015L290.419 188.762L290.69 189.657L286.552 190.91" fill="black"/>
<path d="M266.478 196.99L266.206 196.096L281.723 191.396L281.994 192.29L266.478 196.99" fill="black"/>
<path d="M296.469 190.346L243.212 206.478C242.546 206.679 241.975 207.389 241.938 208.063L240.064 242.047C240.027 242.722 240.537 243.105 241.204 242.904L294.461 226.772C295.126 226.571 295.698 225.861 295.734 225.186L297.608 191.203C297.645 190.528 297.135 190.144 296.469 190.346" fill="#F26716"/>
<path d="M240.861 242.958C240.392 242.958 240.063 242.63 240.062 242.117C240.062 242.094 240.063 242.071 240.064 242.047L241.938 208.062C241.975 207.389 242.545 206.679 243.212 206.477L241.203 242.904C241.083 242.94 240.968 242.958 240.861 242.958" fill="black"/>
<path d="M217.483 230.742L224.774 229.315L224.398 238.864C224.398 238.864 216.143 239.576 214.866 235.788L215.584 232.589C215.794 231.651 216.539 230.926 217.483 230.742" fill="#F9A8B3"/>
<path d="M230.24 229.928L232.967 237.008L224.398 238.865L224.774 229.315L230.24 229.928Z" fill="#F9A8B3"/>
<path d="M269.892 298.922C269.353 298.922 268.814 298.738 268.374 298.362L115.894 168.113C114.914 167.274 114.797 165.799 115.636 164.818C116.475 163.837 117.951 163.722 118.93 164.559L271.41 294.808C272.391 295.647 272.507 297.122 271.668 298.103C271.207 298.643 270.55 298.922 269.892 298.922" fill="#798BF2"/>
<path d="M269.892 298.922C269.353 298.922 268.814 298.738 268.374 298.362L260.671 291.781L256.753 288.434L249.766 282.467L245.696 278.989L234.657 269.559L239.341 267.416L271.41 294.808C271.95 295.27 272.228 295.925 272.229 296.584C272.229 297.122 272.045 297.662 271.668 298.103C271.207 298.643 270.55 298.922 269.892 298.922V298.922ZM230.739 266.213L186.082 228.067L186.864 224.164C186.895 224.011 186.91 223.858 186.91 223.707C186.912 223.032 186.619 222.401 186.132 221.964L235.424 264.069L230.739 266.213V266.213ZM182.013 224.591L115.894 168.113C115.355 167.651 115.076 166.996 115.076 166.337C115.075 165.799 115.259 165.259 115.636 164.818C116.098 164.277 116.755 164 117.413 164C117.951 164 118.49 164.183 118.93 164.559L186.045 221.89C185.761 221.659 185.417 221.491 185.032 221.414C184.878 221.383 184.725 221.368 184.574 221.368C183.487 221.368 182.503 222.135 182.282 223.246L182.013 224.591" fill="#F39A00"/>
<path d="M169.973 298.922C169.457 298.922 168.944 298.75 168.523 298.417C167.835 297.872 167.51 296.987 167.683 296.126L182.282 223.246C182.534 221.981 183.776 221.161 185.031 221.414C186.297 221.667 187.117 222.898 186.864 224.164L173.164 292.556L252.724 256.154C253.901 255.615 255.284 256.134 255.822 257.306C256.358 258.479 255.842 259.866 254.668 260.403L170.945 298.709C170.635 298.852 170.303 298.922 169.973 298.922" fill="#798BF2"/>
<path d="M169.974 298.922C169.457 298.922 168.944 298.75 168.523 298.417C167.956 297.967 167.636 297.288 167.637 296.58C167.638 296.429 167.653 296.277 167.683 296.126L182.282 223.246C182.503 222.135 183.488 221.368 184.574 221.368C184.725 221.368 184.878 221.383 185.032 221.414C186.144 221.636 186.913 222.614 186.91 223.707C186.91 223.858 186.895 224.011 186.864 224.164L186.082 228.067L184.411 236.412L183.139 242.758L180.949 253.69L176.767 274.574L176.723 274.791L173.99 288.436L173.946 288.653L173.164 292.556L252.724 256.154C253.04 256.009 253.371 255.94 253.697 255.94C254.583 255.94 255.429 256.448 255.822 257.306C255.966 257.622 256.035 257.954 256.034 258.28C256.032 259.165 255.526 260.011 254.669 260.403L244.442 265.082L239.342 267.416L234.657 269.559L223.698 274.574L223.224 274.791L170.946 298.709C170.635 298.852 170.303 298.922 169.974 298.922" fill="#F39A00"/>
<path d="M286.422 48.6449C259.374 48.6449 237.37 70.6444 237.37 97.6869C237.37 120.939 253.885 141.151 276.638 145.747C276.767 145.774 276.878 145.857 276.939 145.975L286.422 164.482L295.895 145.975C295.955 145.857 296.066 145.774 296.196 145.747C318.949 141.151 335.464 120.939 335.464 97.6869C335.464 70.6444 313.464 48.6449 286.422 48.6449V48.6449ZM286.422 165.867C286.259 165.867 286.11 165.776 286.035 165.632L276.261 146.556C253.21 141.8 236.502 121.281 236.502 97.6869C236.502 70.1661 258.896 47.7769 286.422 47.7769C313.943 47.7769 336.332 70.1661 336.332 97.6869C336.332 121.281 319.624 141.8 296.573 146.556L286.808 165.632C286.734 165.776 286.584 165.867 286.422 165.867Z" fill="#5D9E78"/>
<path d="M248.921 100.318L254.914 124.954C255.402 126.959 257.441 128.201 259.445 127.713L315.512 114.076C317.516 113.588 318.757 111.548 318.269 109.544L312.277 84.9073C312.16 84.4273 311.954 83.9881 311.679 83.6114C310.813 82.4066 309.271 81.7782 307.746 82.1488L251.68 95.7869C250.158 96.1566 249.073 97.4239 248.857 98.8891C248.787 99.3535 248.804 99.8352 248.921 100.318" fill="#8BD996"/>
<path d="M288.298 115.234L248.857 98.8891L288.8 111.877L304.334 92.6863L304.96 92.6994L288.298 115.234Z" fill="#5D9E78"/>
<path d="M248.857 98.8891L288.8 111.877L311.68 83.6114C310.814 82.4066 309.271 81.7782 307.746 82.1488L251.68 95.7868C250.159 96.1566 249.074 97.4239 248.857 98.8891Z" fill="#798BF2"/>
<path d="M288.8 111.877L248.857 98.8891C249.074 97.4239 250.159 96.1566 251.68 95.7868L267.603 91.9138L304.334 92.6863L288.8 111.877V111.877ZM279.954 88.9088L280.764 88.7126L279.954 88.9088Z" fill="#28B03C"/>
<path d="M314.22 92.8938L313.737 90.9095H313.738L314.22 92.8938Z" fill="#E0E1DE"/>
<path d="M314.221 92.8938L304.96 92.6994L306.633 90.4356L313.737 90.9095L314.221 92.8938" fill="black"/>
<path d="M304.959 92.6992L304.333 92.6862L306.18 90.406L306.633 90.4355L304.959 92.6992" fill="#3563B8"/>
<path d="M267.601 91.9138L279.954 88.9088L267.603 91.9138" fill="#E0E1DE"/>
<path d="M304.334 92.6863L267.601 91.9138L279.954 88.9088L280.764 88.7126L306.18 90.4061L304.334 92.6863Z" fill="black"/>
<path d="M272.313 62.1777L270.813 84.7023C270.69 86.5347 272.09 88.1344 273.923 88.2559L325.182 91.6715C327.015 91.7939 328.614 90.3938 328.736 88.5615L330.237 66.0369C330.266 65.5985 330.208 65.1706 330.075 64.7774C329.662 63.5223 328.521 62.5761 327.127 62.4833L275.868 59.0677C274.476 58.9748 273.216 59.7612 272.641 60.9469C272.457 61.3228 272.343 61.7368 272.313 62.1777Z" fill="#8BD996"/>
<path d="M301.762 85.3767L272.641 60.9469L308.644 80.3692L301.762 85.3767Z" fill="#5D9E78"/>
<path d="M272.641 60.9468L310.261 81.2424L330.075 64.7773C329.662 63.5222 328.521 62.5761 327.127 62.4832L275.868 59.0676C274.476 58.9748 273.216 59.7612 272.641 60.9468" fill="#798BF2"/>
<path d="M310.261 81.2424L308.644 80.3692L272.641 60.9469C273.186 59.8245 274.344 59.0607 275.646 59.0607C275.719 59.0607 275.793 59.0624 275.868 59.0676L327.127 62.4832C328.521 62.5761 329.662 63.5222 330.075 64.7773L310.261 81.2424" fill="#28B03C"/>
</svg>
