<svg width="69" height="69" viewBox="0 0 69 69" fill="none" xmlns="http://www.w3.org/2000/svg">
<path d="M41.7291 10.4684C41.8386 10.0602 42.1055 9.71206 42.4713 9.50049C42.8372 9.28893 43.272 9.23121 43.6804 9.33999C47.5533 10.3815 51.0845 12.4223 53.9204 15.2582C56.7562 18.0941 58.797 21.6253 59.8384 25.4982C59.8938 25.7009 59.9086 25.9124 59.8819 26.1208C59.8553 26.3292 59.7877 26.5302 59.683 26.7124C59.5784 26.8945 59.4388 27.0542 59.2722 27.1822C59.1057 27.3102 58.9155 27.404 58.7125 27.4582C58.5096 27.5125 58.2979 27.526 58.0897 27.4982C57.8815 27.4703 57.6808 27.4016 57.4993 27.2959C57.3177 27.1902 57.1589 27.0497 57.0318 26.8824C56.9048 26.7151 56.8121 26.5244 56.759 26.3211C55.863 22.9891 54.1071 19.9511 51.6674 17.5113C49.2276 15.0715 46.1895 13.3157 42.8575 12.4196C42.6553 12.3656 42.4657 12.2723 42.2995 12.145C42.1334 12.0177 41.9939 11.8589 41.8892 11.6777C41.7844 11.4965 41.7163 11.2965 41.6889 11.089C41.6614 10.8815 41.6751 10.6706 41.7291 10.4684ZM40.6571 20.632C42.5482 21.1404 44.2724 22.1369 45.6571 23.5215C47.0418 24.9062 48.0383 26.6305 48.5467 28.5216C48.6558 28.93 48.9227 29.2783 49.2886 29.4899C49.6546 29.7015 50.0896 29.7591 50.498 29.6499C50.9063 29.5408 51.2547 29.2739 51.4663 28.908C51.6779 28.5421 51.7355 28.107 51.6263 27.6987C50.9724 25.2667 49.6909 23.0493 47.9101 21.2685C46.1294 19.4878 43.912 18.2062 41.48 17.5523C41.2778 17.4983 41.0669 17.4846 40.8594 17.5121C40.6519 17.5395 40.4518 17.6076 40.2706 17.7124C39.9047 17.924 39.6378 18.2723 39.5287 18.6807C39.4196 19.0891 39.4772 19.5241 39.6888 19.89C39.9004 20.256 40.2487 20.5229 40.6571 20.632ZM61.9039 46.6938C61.4588 50.1544 59.769 53.3347 57.1503 55.6405C54.5316 57.9464 51.163 59.22 47.6738 59.2236C26.8757 59.2236 9.95508 42.303 9.95508 21.5048C9.95863 18.0157 11.2322 14.6471 13.538 12.0284C15.8438 9.40973 19.024 7.71996 22.4846 7.27476C23.2835 7.17859 24.0921 7.34363 24.7894 7.7452C25.4868 8.14677 26.0354 8.76329 26.3532 9.50255L31.6898 21.9545C31.9321 22.5181 32.031 23.1329 31.9775 23.744C31.924 24.3551 31.7198 24.9434 31.3833 25.4563L26.9644 32.2082C26.9144 32.2808 26.8841 32.3651 26.8763 32.453C26.8685 32.5408 26.8836 32.6291 26.92 32.7094C28.9705 36.8924 32.362 40.2686 36.5542 42.3001C36.635 42.3362 36.7237 42.3507 36.8118 42.3423C36.8998 42.3338 36.9842 42.3026 37.0565 42.2517L43.7065 37.8174C44.2207 37.4731 44.8131 37.2631 45.4294 37.2065C46.0457 37.1499 46.6663 37.2485 47.2347 37.4933L59.6758 42.8255C60.4151 43.1432 61.0317 43.6917 61.4334 44.389C61.835 45.0863 62.0001 45.8949 61.9039 46.6938ZM58.7414 46.2943C58.7532 46.1817 58.7283 46.0684 58.6703 45.9712C58.6124 45.874 58.5246 45.7982 58.42 45.7551L45.9791 40.4232C45.8979 40.3884 45.8092 40.3744 45.7212 40.3825C45.6332 40.3906 45.5486 40.4204 45.475 40.4694L38.8251 44.904C38.2909 45.2614 37.673 45.4739 37.032 45.5206C36.391 45.5674 35.7488 45.4468 35.1685 45.1707C30.333 42.8274 26.421 38.933 24.0558 34.1082C23.7785 33.5312 23.655 32.8924 23.6974 32.2537C23.7397 31.615 23.9465 30.998 24.2975 30.4628L28.7162 23.7106C28.7643 23.6372 28.7935 23.5531 28.8012 23.4657C28.8088 23.3784 28.7947 23.2904 28.76 23.2099L23.4236 10.7584C23.384 10.6636 23.3176 10.5823 23.2325 10.5246C23.1475 10.4668 23.0475 10.4351 22.9447 10.4333C22.9245 10.4334 22.9044 10.4347 22.8844 10.4373C20.1932 10.7838 17.7203 12.0983 15.9275 14.135C14.1348 16.1717 13.1448 18.7915 13.1426 21.5048C13.1529 30.6599 16.7943 39.4371 23.268 45.9107C29.7416 52.3843 38.5187 56.0257 47.6738 56.0361C50.3872 56.0338 53.0069 55.0439 55.0437 53.2511C57.0804 51.4583 58.3948 48.9854 58.7414 46.2943Z" fill="white"/>
</svg>
