<svg width="42" height="42" viewBox="0 0 42 42" fill="none" xmlns="http://www.w3.org/2000/svg">
<path d="M28.6131 35.3282C28.6131 35.5831 28.5118 35.8275 28.3316 36.0077C28.1514 36.1879 27.907 36.2892 27.6521 36.2892H4.58962C4.33476 36.2892 4.09034 36.1879 3.91013 36.0077C3.72992 35.8275 3.62868 35.5831 3.62868 35.3282C3.62868 35.0734 3.72992 34.829 3.91013 34.6488C4.09034 34.4685 4.33476 34.3673 4.58962 34.3673H27.6521C27.907 34.3673 28.1514 34.4685 28.3316 34.6488C28.5118 34.829 28.6131 35.0734 28.6131 35.3282ZM40.7696 15.6402C40.7448 15.7771 40.6906 15.9069 40.6107 16.0207C40.5308 16.1345 40.4272 16.2297 40.307 16.2996L16.0581 30.3978C14.9279 31.0618 13.6126 31.3407 12.3102 31.1925C11.0078 31.0443 9.7888 30.4771 8.83664 29.5762L2.79955 23.9166C2.52776 23.6618 2.32373 23.3433 2.20591 22.9899C2.08809 22.6365 2.06018 22.2593 2.12472 21.8924C2.18926 21.5255 2.3442 21.1804 2.57555 20.8884C2.8069 20.5964 3.10736 20.3666 3.44979 20.2199L6.13304 19.07C6.25263 19.0187 6.38138 18.9923 6.51149 18.9923C6.6416 18.9923 6.77036 19.0187 6.88994 19.07L10.9345 20.8033L13.8494 19.1377L9.92074 15.602C9.64093 15.3502 9.42902 15.032 9.30453 14.6768C9.18004 14.3215 9.14699 13.9407 9.20842 13.5693C9.26985 13.1979 9.42378 12.848 9.65603 12.5518C9.88828 12.2556 10.1914 12.0226 10.5373 11.8743L13.1799 10.7419C13.3962 10.6493 13.639 10.6392 13.8622 10.7135L23.0572 13.7784L29.7865 9.81999C31.0365 9.07714 32.5121 8.80898 33.9436 9.06452C35.375 9.32007 36.6667 10.0823 37.5824 11.2118L40.5678 14.8604C40.6558 14.968 40.7194 15.0935 40.7543 15.2281C40.7891 15.3627 40.7943 15.5033 40.7696 15.6401V15.6402ZM38.3662 15.2048L36.0951 12.4288C35.4685 11.656 34.5847 11.1345 33.6053 10.9596C32.6258 10.7847 31.6162 10.9682 30.7609 11.4765L23.6549 15.6566C23.5367 15.7262 23.4049 15.7696 23.2684 15.784C23.1319 15.7984 22.9939 15.7833 22.8638 15.7398L13.6013 12.6524L11.2946 13.6407C11.2451 13.6619 11.2018 13.6951 11.1686 13.7375C11.1354 13.7798 11.1134 13.8298 11.1046 13.8829C11.0958 13.936 11.1005 13.9904 11.1184 14.0412C11.1362 14.0919 11.1665 14.1374 11.2065 14.1734L16.1233 18.5983C16.2363 18.7 16.3236 18.8271 16.3779 18.9691C16.4323 19.1111 16.4522 19.2639 16.436 19.4151C16.4198 19.5663 16.3679 19.7115 16.2847 19.8387C16.2014 19.9659 16.0892 20.0716 15.9572 20.147L11.4728 22.7095C11.3437 22.7832 11.1993 22.826 11.0509 22.8345C10.9025 22.843 10.7542 22.8169 10.6176 22.7584L6.51149 20.9987L4.20684 21.9863C4.15791 22.0072 4.11497 22.04 4.08191 22.0818C4.04884 22.1235 4.0267 22.1728 4.01748 22.2252C4.00826 22.2777 4.01225 22.3316 4.0291 22.3821C4.04594 22.4326 4.07511 22.4781 4.11395 22.5145L10.1512 28.1742C10.8026 28.7907 11.6367 29.1789 12.5278 29.2803C13.419 29.3817 14.3189 29.1908 15.0922 28.7364L38.3662 15.2048Z" fill="#394273"/>
</svg>
